SplineFontDB: 3.0
FontName: EngravingShadedCC
FullName: Engraving Shaded CC
FamilyName: Engraving Shaded CC
Weight: Bold
Copyright: Copyright 2020 The Cowboy Collective (https://cowboycollective.cc)
UComments: "Made with love by indestructible type* for the Cowboy Collective"
Version: 001.000
ItalicAngle: 0
UnderlinePosition: -200
UnderlineWidth: 100
Ascent: 1600
Descent: 400
InvalidEm: 0
LayerCount: 2
Layer: 0 0 "Back" 1
Layer: 1 0 "Fore" 0
PreferredKerning: 4
XUID: [1021 31 -699969567 16188444]
FSType: 0
OS2Version: 0
OS2_WeightWidthSlopeOnly: 0
OS2_UseTypoMetrics: 0
CreationTime: 1465610489
ModificationTime: 1594403086
PfmFamily: 33
TTFWeight: 700
TTFWidth: 5
LineGap: 0
VLineGap: 0
OS2TypoAscent: 2060
OS2TypoAOffset: 0
OS2TypoDescent: -700
OS2TypoDOffset: 0
OS2TypoLinegap: 0
OS2WinAscent: 2060
OS2WinAOffset: 0
OS2WinDescent: 700
OS2WinDOffset: 0
HheadAscent: 2060
HheadAOffset: 0
HheadDescent: -700
HheadDOffset: 0
OS2CapHeight: 700
OS2XHeight: 460
OS2Vendor: 'it* '
Lookup: 258 0 0 "'kern' Horizontal Kerning lookup 0" { "kerning like they all do" [150,0,6] } ['kern' ('DFLT' <'dflt' > 'grek' <'dflt' > 'latn' <'dflt' > ) ]
MarkAttachClasses: 1
DEI: 91125
KernClass2: 16 12 "kerning like they all do"
 108 A backslash a agrave aacute acircumflex atilde adieresis aring Amacron amacron Abreve abreve Aogonek aogonek
 197 D O d o Ograve Oacute Ocircumflex Otilde Odieresis Oslash eth ograve oacute ocircumflex otilde odieresis oslash Dcaron dcaron Dcroat dcroat Omacron omacron Obreve obreve Ohungarumlaut ohungarumlaut
 32 K X k x ccedilla uni0136 uni0137
 31 V W v w Wcircumflex wcircumflex
 57 L l Lacute lacute Lcommaaccent lcommaaccent Lslash lslash
 47 F T f t uni0162 uni0163 Tcaron tcaron Tbar tbar
 54 Y y Yacute ydieresis Ycircumflex ycircumflex Ydieresis
 173 J U j u Ugrave Uacute Ucircumflex Udieresis IJ ij Jcircumflex jcircumflex Utilde utilde Umacron umacron Ubreve ubreve Uring uring Uhungarumlaut uhungarumlaut Uogonek uogonek
 3 P p

StartChar: period
Encoding: 46 46 20
GlifName: period
Width: 880
Flags: HMW
LayerCount: 2
Fore
SplineSet
200 220 m 4
 200 352 308 460 440 460 c 4
 572 460 680 352 680 220 c 4
 680 88 572 -20 440 -20 c 4
 308 -20 200 88 200 220 c 4
519 72 m 5
 524 81 528 90 532 100 c 5
 444 12 l 5
 453 15 461 18 469 22 c 5
 519 72 l 5
424 7 m 5
 431 8 438 10 444 12 c 5
 438 10 431 8 424 7 c 5
424 7 m 5
 539 122 l 5
 541 128 542 134 543 141 c 5
 407 5 l 5
 413 5 419 6 424 7 c 5
392 5 m 5
 546 159 l 5
 547 164 547 170 548 176 c 5
 378 6 l 5
 383 5 387 5 392 5 c 5
407 5 m 5
 403 5 399 5 395 5 c 5
 399 5 403 5 407 5 c 5
365 8 m 5
 369 7 374 7 378 6 c 5
 374 7 369 7 365 8 c 5
365 8 m 5
 549 192 l 5
 549 197 550 203 550 208 c 5
 353 11 l 5
 357 10 361 9 365 8 c 5
342 15 m 5
 346 14 349 12 353 11 c 5
 349 12 346 14 342 15 c 5
342 15 m 5
 550 223 l 6
 550 222 550 221 550 220 c 5
 550 221 550 222 550 223 c 4
 550 228 550 233 550 238 c 5
 332 20 l 5
 335 18 338 16 342 15 c 5
322 25 m 5
 549 252 l 5
 549 257 548 261 548 266 c 5
 312 30 l 5
 315 28 319 27 322 25 c 5
303 36 m 5
 306 34 309 32 312 30 c 5
 309 32 306 34 303 36 c 5
303 36 m 5
 546 279 l 5
 545 283 545 288 544 292 c 5
 295 43 l 5
 298 41 300 38 303 36 c 5
286 49 m 5
 542 305 l 5
 541 309 540 313 539 317 c 5
 279 57 l 5
 282 55 283 51 286 49 c 5
271 64 m 5
 536 329 l 5
 535 333 533 336 532 340 c 5
 264 72 l 5
 266 69 269 67 271 64 c 5
257 80 m 5
 528 351 l 5
 526 354 525 358 523 361 c 5
 251 89 l 5
 253 86 255 83 257 80 c 5
245 98 m 5
 518 371 l 5
 516 374 514 377 512 380 c 5
 240 108 l 5
 242 105 243 101 245 98 c 5
234 117 m 5
 505 388 l 5
 503 391 500 393 498 396 c 5
 230 128 l 5
 232 125 232 120 234 117 c 5
225 138 m 5
 490 403 l 5
 487 405 485 408 482 410 c 5
 221 149 l 5
 222 145 224 142 225 138 c 5
218 161 m 5
 473 416 l 5
 470 418 466 419 463 421 c 5
 215 173 l 5
 216 169 217 165 218 161 c 5
213 186 m 5
 452 425 l 5
 448 426 445 428 441 429 c 5
 211 199 l 5
 211 195 212 190 213 186 c 5
210 213 m 5
 429 432 l 5
 425 433 420 434 416 434 c 5
 210 228 l 5
 210 225 210 223 210 220 c 4
 210 218 210 215 210 213 c 5
402 435 m 5
 400 435 397 435 395 435 c 4
 392 435 390 435 387 435 c 5
 214 262 l 5
 213 256 212 250 211 244 c 5
 402 435 l 5
370 433 m 5
 363 432 357 430 350 428 c 5
 227 305 l 5
 224 297 221 290 219 282 c 5
 370 433 l 5
324 417 m 5
 291 399 262 370 242 335 c 5
 324 417 l 5
EndSplineSet
EndChar

StartChar: comma
Encoding: 44 44 21
GlifName: comma
Width: 918
Flags: HMW
LayerCount: 2
Fore
SplineSet
204 218 m 4
 204 344 312 456 458 456 c 4
 606 456 718 334 718 148 c 4
 718 -123 510 -312 200 -312 c 5
 200 -292 l 5
 438 -282 575 -128 575 1 c 4
 575 6 573 18 561 18 c 4
 544 18 519 -20 440 -20 c 4
 294 -20 204 92 204 218 c 4
577 -50 m 5
 603 -24 l 5
 606 -16 609 -8 612 -0 c 5
 582 -30 l 5
 581 -37 579 -44 577 -50 c 5
569 -73 m 5
 571 -75 l 5
 576 -70 581 -63 586 -56 c 5
 569 -73 l 5
584 -13 m 5
 618 21 l 5
 620 27 621 33 622 40 c 5
 585 3 l 6
 585 2 585 2 585 1 c 4
 585 -3 585 -8 584 -13 c 5
582 15 m 5
 625 58 l 5
 626 64 627 69 627 75 c 5
 575 23 l 5
 578 21 580 18 582 15 c 5
563 26 m 5
 628 91 l 5
 628 93 628 96 628 98 c 4
 628 101 628 103 628 106 c 5
 539 17 l 5
 548 22 556 26 563 26 c 5
509 2 m 5
 627 120 l 5
 627 125 627 129 626 134 c 5
 487 -5 l 5
 495 -3 502 -1 509 2 c 5
469 -8 m 5
 624 147 l 5
 623 151 622 155 621 159 c 5
 452 -10 l 5
 458 -10 464 -9 469 -8 c 5
437 -10 m 5
 619 172 l 5
 618 176 616 179 615 183 c 5
 423 -9 l 5
 428 -9 432 -10 437 -10 c 5
409 -8 m 5
 612 195 l 5
 611 199 609 202 608 206 c 5
 396 -6 l 5
 400 -7 405 -7 409 -8 c 5
383 -4 m 5
 603 216 l 5
 601 219 600 223 598 226 c 5
 371 -1 l 5
 375 -2 379 -3 383 -4 c 5
360 3 m 5
 593 236 l 5
 591 239 590 243 588 246 c 5
 349 7 l 5
 353 6 356 4 360 3 c 5
338 11 m 5
 582 255 l 5
 580 258 578 261 576 264 c 5
 328 16 l 5
 331 14 335 13 338 11 c 5
319 22 m 5
 570 273 l 5
 568 276 566 279 564 282 c 5
 310 28 l 5
 313 26 316 24 319 22 c 5
301 34 m 5
 557 290 l 5
 555 293 552 295 550 298 c 5
 293 41 l 5
 296 39 298 36 301 34 c 5
285 48 m 5
 543 306 l 5
 540 309 538 311 535 313 c 5
 277 55 l 5
 279 52 282 50 285 48 c 5
270 63 m 5
 527 320 l 5
 524 322 522 325 519 327 c 5
 263 71 l 5
 265 68 268 66 270 63 c 5
257 80 m 5
 510 333 l 5
 507 335 504 337 501 339 c 5
 251 89 l 5
 253 86 255 83 257 80 c 5
245 98 m 5
 492 345 l 5
 489 347 485 348 482 350 c 5
 240 108 l 5
 242 105 243 101 245 98 c 5
235 118 m 5
 472 355 l 5
 468 357 465 358 461 359 c 5
 230 128 l 5
 231 124 233 121 235 118 c 5
227 140 m 5
 450 363 l 5
 446 364 442 365 438 366 c 5
 223 151 l 5
 224 147 226 144 227 140 c 5
220 163 m 5
 426 369 l 5
 422 370 416 370 412 370 c 5
 218 176 l 5
 219 172 219 167 220 163 c 5
216 189 m 5
 398 371 l 5
 393 371 388 371 383 371 c 5
 214 202 l 5
 214 197 215 194 216 189 c 5
214 217 m 6
 367 370 l 5
 361 370 355 369 350 368 c 5
 214 232 l 5
 214 227 214 223 214 218 c 4
 214 217 l 6
332 365 m 5
 325 364 317 361 311 359 c 5
 220 268 l 5
 218 262 217 256 216 249 c 5
 332 365 l 5
286 349 m 5
 260 336 241 318 229 292 c 5
 286 349 l 5
EndSplineSet
EndChar

StartChar: exclam
Encoding: 33 33 25
GlifName: exclam
Width: 880
VWidth: 0
Flags: HMW
LayerCount: 2
Fore
SplineSet
544 292 m 1
 295 43 l 1
 298 41 300 38 303 36 c 1
 546 279 l 1
 545 283 545 288 544 292 c 1
542 305 m 1
 541 309 540 313 539 317 c 1
 279 57 l 1
 282 55 283 51 286 49 c 1
 542 305 l 1
443 1016 m 1
 444 1021 444 1027 445 1033 c 1
 375 963 l 1
 376 959 378 956 379 952 c 1
 443 1016 l 1
454 1087 m 1
 455 1093 457 1100 458 1106 c 1
 359 1007 l 1
 363 996 368 986 372 975 c 1
 448 1051 l 1
 449 1057 450 1063 451 1069 c 1
 368 986 l 1
 367 990 365 993 364 997 c 1
 454 1087 l 1
424 7 m 1
 539 122 l 1
 541 128 542 134 543 141 c 1
 407 5 l 1
 413 5 419 6 424 7 c 1
550 223 m 1
 550 228 550 233 550 238 c 1
 332 20 l 1
 329 22 325 23 322 25 c 1
 549 252 l 1
 549 257 548 261 548 266 c 1
 312 30 l 1
 322 24 332 19 342 15 c 1
 550 223 l 1
406 844 m 1
 409 832 l 1
 430 853 l 1
 430 858 431 864 431 869 c 1
 406 844 l 1
396 894 m 1
 397 890 397 885 398 881 c 1
 434 917 l 1
 434 922 435 928 435 933 c 1
 396 894 l 1
233 1244 m 1
 235 1240 239 1238 241 1234 c 1
 377 1370 l 1
 362 1370 l 1
 235 1243 l 2
 235 1244 234 1244 233 1244 c 1
199 1297 m 1
 201 1294 203 1291 205 1288 c 1
 287 1370 l 1
 272 1370 l 1
 199 1297 l 1
140 1400 m 1
 740 1400 l 1
 740 1370 l 1
 540 1140 455 920 455 560 c 1
 425 560 l 1
 425 920 340 1090 140 1370 c 1
 140 1400 l 1
200 220 m 0
 200 352 308 460 440 460 c 0
 572 460 680 352 680 220 c 0
 680 88 572 -20 440 -20 c 0
 308 -20 200 88 200 220 c 0
428 821 m 1
 427 804 424 802 416 794 c 1
 418 781 l 1
 427 790 l 1
 427 785 426 779 426 774 c 1
 420 768 l 1
 422 755 l 1
 426 759 l 1
 427 786 428 812 429 837 c 1
 411 819 l 1
 412 815 412 810 413 806 c 1
 428 821 l 1
519 72 m 1
 524 81 528 90 532 100 c 1
 444 12 l 1
 453 15 461 18 469 22 c 1
 519 72 l 1
353 11 m 1
 366 7 379 5 392 5 c 1
 546 159 l 1
 547 164 547 170 548 176 c 1
 378 6 l 1
 374 7 369 7 365 8 c 1
 549 192 l 1
 549 197 550 203 550 208 c 1
 353 11 l 1
271 64 m 1
 536 329 l 1
 535 333 533 336 532 340 c 1
 264 72 l 1
 266 69 269 67 271 64 c 1
257 80 m 1
 528 351 l 1
 526 354 525 358 523 361 c 1
 251 89 l 1
 253 86 255 83 257 80 c 1
245 98 m 1
 518 371 l 1
 516 374 514 377 512 380 c 1
 240 108 l 1
 242 105 243 101 245 98 c 1
234 117 m 1
 505 388 l 1
 503 391 500 393 498 396 c 1
 230 128 l 1
 232 125 232 120 234 117 c 1
490 403 m 1
 487 405 485 408 482 410 c 1
 221 149 l 1
 222 145 224 142 225 138 c 1
 490 403 l 1
218 161 m 1
 473 416 l 1
 470 418 466 419 463 421 c 1
 215 173 l 1
 216 169 217 165 218 161 c 1
452 425 m 1
 448 426 445 428 441 429 c 1
 211 199 l 1
 211 195 212 190 213 186 c 1
 452 425 l 1
210 213 m 1
 429 432 l 1
 425 433 420 434 416 434 c 1
 210 228 l 1
 210 213 l 1
402 435 m 1
 387 435 l 1
 214 262 l 1
 213 256 212 250 211 244 c 1
 402 435 l 1
324 417 m 1
 291 399 262 370 242 335 c 1
 324 417 l 1
423 741 m 1
 424 737 424 734 425 730 c 1
 425 734 425 739 425 743 c 1
 423 741 l 1
431 884 m 1
 431 889 432 895 432 900 c 1
 401 869 l 1
 402 865 403 861 404 857 c 1
 431 884 l 1
392 905 m 1
 436 949 l 1
 436 955 437 961 438 966 c 1
 389 917 l 1
 390 913 391 909 392 905 c 1
386 929 m 1
 439 982 l 1
 440 988 440 993 441 999 c 1
 383 941 l 1
 384 937 385 933 386 929 c 1
351 1029 m 1
 352 1025 354 1022 355 1018 c 1
 463 1126 l 1
 465 1133 466 1139 468 1146 c 1
 351 1029 l 1
474 1167 m 1
 476 1175 479 1183 482 1190 c 1
 342 1050 l 1
 340 1053 339 1057 337 1060 c 1
 491 1214 l 1
 495 1223 500 1233 504 1242 c 1
 332 1070 l 1
 337 1060 342 1049 346 1039 c 1
 474 1167 l 1
327 1080 m 1
 520 1273 l 1
 528 1287 537 1300 546 1314 c 1
 322 1090 l 1
 324 1087 325 1083 327 1080 c 1
312 1110 m 1
 314 1107 315 1103 317 1100 c 1
 587 1370 l 1
 572 1370 l 1
 312 1110 l 1
307 1120 m 1
 557 1370 l 1
 542 1370 l 1
 302 1130 l 1
 304 1127 305 1123 307 1120 c 1
296 1139 m 1
 527 1370 l 1
 512 1370 l 1
 291 1149 l 1
 293 1146 294 1142 296 1139 c 1
280 1168 m 1
 282 1165 284 1162 286 1159 c 1
 497 1370 l 1
 482 1370 l 1
 280 1168 l 1
275 1178 m 1
 467 1370 l 1
 452 1370 l 1
 269 1187 l 1
 271 1184 273 1181 275 1178 c 1
263 1196 m 1
 437 1370 l 1
 422 1370 l 1
 258 1206 l 1
 260 1203 261 1199 263 1196 c 1
246 1224 m 1
 248 1221 250 1218 252 1215 c 1
 407 1370 l 1
 392 1370 l 1
 246 1224 l 1
229 1252 m 1
 347 1370 l 1
 332 1370 l 1
 223 1261 l 1
 225 1258 227 1255 229 1252 c 1
217 1270 m 1
 317 1370 l 1
 302 1370 l 1
 211 1279 l 1
 213 1276 215 1273 217 1270 c 1
193 1306 m 1
 257 1370 l 1
 242 1370 l 1
 187 1315 l 1
 189 1312 191 1309 193 1306 c 1
181 1324 m 1
 227 1370 l 1
 212 1370 l 1
 175 1333 l 1
 177 1330 179 1327 181 1324 c 1
169 1342 m 1
 197 1370 l 1
 182 1370 l 1
 163 1351 l 1
 165 1348 167 1345 169 1342 c 1
157 1360 m 1
 167 1370 l 1
 152 1370 l 1
 151 1369 l 1
 153 1366 155 1363 157 1360 c 1
370 433 m 1
 350 428 l 1
 227 305 l 1
 224 297 221 290 219 282 c 1
 370 433 l 1
418 781 m 2
 419 774 l 2
 419 776 418 779 418 781 c 2
EndSplineSet
EndChar

StartChar: quotesingle
Encoding: 39 39 26
GlifName: quotesingle
Width: 840
Flags: HMW
LayerCount: 2
Fore
SplineSet
334 1397 m 1
 326 1395 318 1392 311 1389 c 1
 227 1305 l 1
 223 1297 221 1289 218 1281 c 1
 334 1397 l 1
461 1344 m 1
 459 1347 457 1350 455 1353 c 1
 233 1131 l 1
 235 1128 236 1124 238 1121 c 1
 461 1344 l 1
489 1252 m 1
 489 1257 489 1262 488 1266 c 1
 278 1056 l 1
 280 1053 282 1050 284 1047 c 1
 489 1252 l 1
488 1191 m 1
 489 1197 490 1203 490 1208 c 1
 303 1021 l 1
 305 1018 308 1016 310 1013 c 1
 488 1191 l 1
323 996 m 1
 482 1155 l 1
 483 1161 484 1167 485 1173 c 1
 316 1004 l 1
 318 1001 321 999 323 996 c 1
359 942 m 1
 440 1023 l 1
 444 1032 448 1041 452 1050 c 1
 353 951 l 1
 355 948 357 945 359 942 c 1
365 933 m 1
 367 930 368 926 370 923 c 1
 416 969 l 1
 420 978 424 987 428 996 c 1
 365 933 l 1
396 919 m 1
 399 927 402 935 405 943 c 1
 375 913 l 1
 377 909 378 906 379 902 c 1
 396 919 l 1
220 1163 m 1
 433 1376 l 1
 430 1378 427 1380 424 1382 c 1
 217 1175 l 1
 218 1171 219 1167 220 1163 c 1
272 1065 m 1
 485 1278 l 1
 484 1282 484 1287 483 1291 c 1
 266 1074 l 1
 268 1071 270 1068 272 1065 c 1
297 1030 m 1
 490 1223 l 1
 490 1238 l 1
 290 1038 l 1
 292 1035 295 1033 297 1030 c 1
640 1228 m 0
 640 1039 435 985 435 746 c 1
 405 746 l 1
 405 985 200 1039 200 1228 c 0
 200 1346 302 1430 420 1430 c 0
 538 1430 640 1346 640 1228 c 0
272 1365 m 2
 266 1360 260 1353 254 1347 c 2
 272 1365 l 2
228 1141 m 1
 448 1361 l 1
 446 1364 444 1367 441 1369 c 1
 224 1152 l 1
 225 1148 226 1144 228 1141 c 1
383 891 m 1
 384 889 384 888 385 886 c 1
 386 889 387 893 388 896 c 1
 383 891 l 1
380 1398 m 1
 210 1228 l 1
 210 1233 211 1239 211 1244 c 1
 367 1400 l 2
 366 1400 365 1400 364 1400 c 0
 360 1400 355 1399 351 1399 c 1
 213 1261 l 1
 211 1250 210 1239 210 1228 c 0
 210 1223 210 1218 210 1213 c 1
 393 1396 l 1
 389 1397 384 1397 380 1398 c 1
214 1187 m 1
 415 1388 l 1
 412 1390 409 1392 405 1393 c 1
 212 1200 l 1
 213 1196 213 1191 214 1187 c 1
254 1092 m 1
 256 1089 258 1086 260 1083 c 1
 479 1302 l 1
 478 1306 477 1310 476 1314 c 1
 254 1092 l 1
248 1101 m 1
 471 1324 l 1
 469 1327 468 1331 466 1334 c 1
 243 1111 l 1
 245 1108 246 1104 248 1101 c 1
474 1117 m 1
 476 1123 477 1129 478 1136 c 1
 329 987 l 1
 331 984 333 981 335 978 c 1
 474 1117 l 1
468 1096 m 1
 341 969 l 1
 343 966 346 964 348 961 c 1
 461 1074 l 1
 463 1081 466 1088 468 1096 c 1
EndSplineSet
EndChar

StartChar: numbersign
Encoding: 35 35 27
GlifName: numbersign
Width: 1210
VWidth: 0
Flags: HMW
LayerCount: 2
Fore
SplineSet
510 1400 m 1
 540 1400 l 1
 463 985 l 1
 853 985 l 1
 930 1400 l 1
 960 1400 l 1
 883 985 l 1
 1150 985 l 1
 1150 955 l 1
 877 955 l 1
 786 465 l 1
 1090 465 l 1
 1090 435 l 1
 781 435 l 1
 700 0 l 1
 670 0 l 1
 751 435 l 1
 361 435 l 1
 280 0 l 1
 250 0 l 1
 331 435 l 1
 60 435 l 1
 60 465 l 1
 336 465 l 1
 427 955 l 1
 120 955 l 1
 120 985 l 1
 433 985 l 1
 510 1400 l 1
756 465 m 1
 847 955 l 1
 457 955 l 1
 366 465 l 1
 756 465 l 1
EndSplineSet
EndChar

StartChar: hyphen
Encoding: 45 45 28
GlifName: hyphen
Width: 560
VWidth: 0
Flags: HMW
LayerCount: 2
Fore
SplineSet
40 450 m 1
 40 650 l 1
 520 650 l 1
 520 450 l 1
 40 450 l 1
367 460 m 1
 370 463 l 1
 370 478 l 1
 352 460 l 1
 367 460 l 1
337 460 m 1
 370 493 l 1
 370 508 l 1
 322 460 l 1
 337 460 l 1
307 460 m 1
 370 523 l 1
 370 538 l 1
 292 460 l 1
 307 460 l 1
277 460 m 1
 370 553 l 1
 370 568 l 1
 262 460 l 1
 277 460 l 1
247 460 m 1
 370 583 l 1
 370 598 l 1
 232 460 l 1
 247 460 l 1
217 460 m 1
 370 613 l 1
 370 620 l 1
 362 620 l 1
 202 460 l 1
 217 460 l 1
187 460 m 1
 347 620 l 1
 332 620 l 1
 172 460 l 1
 187 460 l 1
157 460 m 1
 317 620 l 1
 302 620 l 1
 142 460 l 1
 157 460 l 1
127 460 m 1
 287 620 l 1
 272 620 l 1
 112 460 l 1
 127 460 l 1
97 460 m 1
 257 620 l 1
 242 620 l 1
 82 460 l 1
 97 460 l 1
67 460 m 1
 227 620 l 1
 212 620 l 1
 52 460 l 1
 67 460 l 1
197 620 m 1
 182 620 l 1
 50 488 l 1
 50 473 l 1
 197 620 l 1
167 620 m 1
 152 620 l 1
 50 518 l 1
 50 503 l 1
 167 620 l 1
137 620 m 1
 122 620 l 1
 50 548 l 1
 50 533 l 1
 137 620 l 1
107 620 m 1
 92 620 l 1
 50 578 l 1
 50 563 l 1
 107 620 l 1
77 620 m 1
 62 620 l 1
 50 608 l 1
 50 593 l 1
 77 620 l 1
EndSplineSet
EndChar

StartChar: dollar
Encoding: 36 36 29
GlifName: dollar
Width: 1666
Flags: HMW
LayerCount: 2
Fore
SplineSet
872 1500 m 1
 902 1500 l 1
 902 1418 l 1
 1221 1403 1470 1302 1470 1114 c 0
 1470 1000 1377 934 1247 934 c 0
 1127 934 1022 1012 1022 1112 c 0
 1022 1282 1170 1256 1170 1299 c 0
 1170 1341 1089 1379 902 1388 c 1
 902 896 l 1
 1380 846 1616 715 1616 440 c 0
 1616 138 1255 -20 902 -28 c 1
 902 -190 l 1
 872 -190 l 1
 872 -28 l 1
 824 -28 777 -26 732 -24 c 1
 732 -190 l 1
 702 -190 l 1
 702 -22 l 1
 346 2 80 104 80 298 c 0
 80 412 183 468 313 468 c 0
 433 468 528 390 528 290 c 0
 528 120 370 156 370 113 c 0
 370 68 517 27 702 10 c 1
 702 513 l 1
 268 568 98 704 98 970 c 0
 98 1231 363 1387 702 1415 c 1
 702 1500 l 1
 732 1500 l 1
 732 1417 l 1
 760 1419 788 1420 817 1420 c 0
 836 1420 854 1420 872 1419 c 1
 872 1500 l 1
1462 205 m 1
 1450 190 1436 176 1420 163 c 1
 1436 176 1450 190 1462 205 c 1
1422 585 m 1
 1425 583 1427 580 1430 578 c 1
 1278 426 l 1
 1281 424 1285 423 1288 421 c 1
 1437 570 l 1
 1429 577 1422 584 1413 591 c 1
 1257 435 l 1
 1261 434 1264 431 1267 430 c 1
 1422 585 l 1
1305 1218 m 1
 1306 1214 1308 1211 1309 1207 c 1
 1096 994 l 1
 1093 996 1091 999 1088 1001 c 1
 1305 1218 l 1
786 759 m 1
 790 758 795 758 799 757 c 1
 588 546 l 1
 592 545 596 544 600 543 c 1
 813 756 l 1
 800 758 786 759 773 761 c 1
 563 551 l 1
 567 550 571 549 575 548 c 1
 786 759 l 1
234 207 m 1
 375 348 l 1
 373 361 370 373 365 383 c 1
 146 164 l 1
 148 161 150 158 153 156 c 1
 370 373 l 1
 371 369 372 365 373 361 c 1
 210 198 l 1
 223 207 246 210 270 213 c 1
 377 320 l 1
 377 322 377 323 377 325 c 0
 377 328 377 332 377 335 c 1
 252 210 l 1
 246 209 240 208 234 207 c 1
1274 1277 m 1
 1276 1274 1279 1272 1281 1269 c 1
 1054 1042 l 1
 1056 1039 1058 1036 1060 1033 c 1
 1287 1260 l 1
 1281 1269 1275 1278 1268 1286 c 1
 1043 1061 l 1
 1041 1065 1040 1068 1039 1072 c 1
 1260 1293 l 1
 1258 1295 1256 1299 1253 1301 c 1
 1036 1084 l 1
 1039 1073 1042 1061 1048 1051 c 1
 1274 1277 l 1
104 227 m 1
 311 434 l 1
 315 433 319 432 322 430 c 1
 108 216 l 1
 113 206 119 197 125 188 c 1
 347 410 l 1
 345 413 343 416 340 418 c 1
 119 197 l 1
 117 200 116 204 114 207 c 1
 331 424 l 1
 322 430 311 435 300 438 c 1
 100 238 l 1
 101 234 103 231 104 227 c 1
91 274 m 1
 260 443 l 1
 242 443 225 440 209 437 c 1
 91 319 l 1
 90 314 90 309 90 303 c 1
 228 441 l 1
 233 442 238 442 244 442 c 1
 90 288 l 1
 90 283 90 279 91 274 c 1
448 841 m 1
 451 839 454 837 458 836 c 1
 276 654 l 1
 279 652 282 650 285 648 c 1
 469 832 l 1
 450 839 433 847 417 855 c 1
 241 679 l 1
 244 677 246 674 249 672 c 1
 427 850 l 1
 430 848 435 848 438 846 c 1
 258 666 l 1
 261 664 264 662 267 660 c 1
 448 841 l 1
324 927 m 1
 326 924 329 922 331 919 c 1
 167 755 l 1
 169 752 172 750 174 747 c 1
 339 912 l 1
 331 920 324 928 318 936 c 1
 156 774 l 1
 158 771 160 768 162 765 c 1
 324 927 l 1
732 7 m 1
 777 4 824 2 872 2 c 1
 872 494 l 1
 829 499 778 504 732 509 c 1
 732 7 l 1
902 490 m 1
 902 2 l 1
 1120 7 1388 70 1388 250 c 0
 1388 396 1245 449 902 490 c 1
817 1390 m 0
 787 1390 759 1389 732 1387 c 1
 732 916 l 1
 774 909 822 904 872 899 c 1
 872 1389 l 1
 855 1389 836 1390 817 1390 c 0
702 1385 m 1
 482 1364 358 1283 358 1190 c 0
 358 1061 436 969 702 921 c 1
 702 1385 l 1
1367 125 m 1
 1417 156 1464 196 1491 249 c 1
 1367 125 l 1
1312 93 m 1
 1318 96 1324 100 1330 103 c 1
 1502 275 l 1
 1505 282 1507 290 1509 297 c 1
 1380 168 l 1
 1365 138 1341 112 1312 93 c 1
1513 316 m 1
 1514 322 1515 328 1516 334 c 1
 1396 214 l 1
 1397 220 1398 226 1399 232 c 1
 1517 350 l 1
 1517 355 1518 361 1518 366 c 1
 1400 248 l 1
 1400 229 1397 211 1391 194 c 1
 1513 316 l 1
1400 263 m 1
 1518 381 l 1
 1518 386 1517 390 1517 395 c 1
 1399 277 l 1
 1399 272 1400 268 1400 263 c 1
1397 290 m 1
 1516 409 l 1
 1515 413 1515 418 1514 422 c 1
 1394 302 l 1
 1395 298 1396 294 1397 290 c 1
1397 288 m 1
 1398 284 1399 281 1399 277 c 1
 1399 281 1398 284 1397 288 c 1
1391 314 m 1
 1512 435 l 1
 1511 439 1510 443 1509 447 c 1
 1387 325 l 1
 1386 329 1384 332 1382 335 c 1
 1506 459 l 1
 1505 463 1503 466 1502 470 c 1
 1377 345 l 1
 1383 335 1387 325 1391 314 c 1
1371 354 m 1
 1498 481 l 1
 1497 485 1496 489 1494 492 c 1
 1365 363 l 1
 1367 360 1369 357 1371 354 c 1
1373 352 m 1
 1374 351 1375 348 1376 347 c 1
 1375 348 1374 351 1373 352 c 1
1358 371 m 1
 1489 502 l 1
 1487 505 1485 508 1483 511 c 1
 1351 379 l 1
 1354 377 1356 374 1358 371 c 1
1478 521 m 1
 1476 524 1474 527 1472 530 c 1
 1334 392 l 1
 1337 390 1340 388 1343 386 c 1
 1478 521 l 1
1326 399 m 1
 1466 539 l 1
 1464 542 1461 544 1459 547 c 1
 1317 405 l 1
 1320 403 1323 401 1326 399 c 1
1452 555 m 1
 1450 558 1447 560 1445 563 c 1
 1298 416 l 1
 1301 414 1305 413 1308 411 c 1
 1452 555 l 1
1296 417 m 1
 1295 418 1294 418 1293 419 c 1
 1294 418 1295 418 1296 417 c 1
1246 439 m 1
 1405 598 l 1
 1402 600 1399 602 1396 604 c 1
 1235 443 l 1
 1239 442 1242 440 1246 439 c 1
1387 610 m 1
 1384 612 1381 614 1378 616 c 1
 1212 450 l 1
 1216 449 1219 447 1223 446 c 1
 1387 610 l 1
1200 453 m 1
 1369 622 l 1
 1366 624 1362 625 1359 627 c 1
 1189 457 l 1
 1185 458 1181 459 1177 460 c 1
 1349 632 l 1
 1346 634 1342 635 1339 637 c 1
 1165 463 l 1
 1177 460 1189 456 1200 453 c 1
1209 451 m 1
 1207 452 1205 452 1203 453 c 1
 1205 452 1207 452 1209 451 c 1
1353 630 m 1
 1352 631 1351 631 1350 632 c 1
 1351 631 1352 631 1353 630 c 1
1153 466 m 1
 1329 642 l 1
 1326 644 1322 645 1319 647 c 1
 1140 468 l 1
 1136 469 1132 470 1128 471 c 1
 1308 651 l 1
 1305 652 1302 655 1298 656 c 1
 1115 473 l 1
 1128 470 1141 469 1153 466 c 1
1163 463 m 1
 1161 464 1158 464 1156 465 c 1
 1158 464 1161 464 1163 463 c 1
1103 476 m 1
 1287 660 l 1
 1283 661 1280 663 1276 664 c 1
 1090 478 l 1
 1094 477 1099 477 1103 476 c 1
1077 480 m 1
 1265 668 l 1
 1261 669 1258 671 1254 672 c 1
 1065 483 l 1
 1069 482 1073 481 1077 480 c 1
1275 665 m 1
 1273 666 1273 665 1271 666 c 1
 1273 665 1273 666 1275 665 c 1
1052 485 m 1
 1243 676 l 1
 1239 677 1235 678 1231 679 c 1
 1039 487 l 1
 1043 486 1048 486 1052 485 c 1
1061 483 m 1
 1059 483 1056 484 1054 484 c 1
 1056 484 1059 483 1061 483 c 1
1013 491 m 1
 1017 490 1022 490 1026 489 c 1
 1220 683 l 1
 1216 684 1212 685 1208 686 c 1
 1013 491 l 1
1197 690 m 1
 1193 691 1189 692 1185 693 c 1
 986 494 l 1
 990 493 995 493 999 492 c 1
 1197 690 l 1
1206 687 m 1
 1204 687 1203 688 1201 688 c 1
 1203 688 1204 687 1206 687 c 1
973 496 m 1
 1173 696 l 1
 1169 697 1165 698 1161 699 c 1
 960 498 l 1
 964 497 969 497 973 496 c 1
946 499 m 1
 1149 702 l 1
 1145 703 1140 703 1136 704 c 1
 933 501 l 1
 938 500 942 500 946 499 c 1
954 498 m 1
 953 498 952 499 951 499 c 1
 952 499 953 498 954 498 c 1
920 503 m 1
 1124 707 l 1
 1120 708 1116 709 1112 710 c 1
 906 504 l 1
 911 503 916 504 920 503 c 1
893 506 m 1
 1099 712 l 1
 1095 713 1091 714 1087 715 c 1
 879 507 l 1
 884 507 889 506 893 506 c 1
1111 710 m 1
 1108 711 1104 711 1101 712 c 1
 1104 711 1108 711 1111 710 c 1
1074 717 m 1
 1070 718 1066 719 1062 720 c 1
 852 510 l 1
 857 510 860 508 865 508 c 1
 1074 717 l 1
825 513 m 1
 830 513 833 511 838 511 c 1
 1049 722 l 1
 1045 723 1040 723 1036 724 c 1
 825 513 l 1
811 514 m 1
 1023 726 l 1
 1019 727 1014 727 1010 728 c 1
 797 515 l 1
 801 515 806 514 811 514 c 1
784 517 m 1
 998 731 l 1
 994 732 989 732 985 733 c 1
 770 518 l 1
 774 517 779 518 784 517 c 1
1274 1007 m 1
 1272 1005 1271 1004 1269 1002 c 1
 1271 1004 1272 1005 1274 1007 c 1
1226 974 m 1
 1262 989 1291 1019 1307 1055 c 1
 1226 974 l 1
757 520 m 1
 972 735 l 1
 968 736 962 735 958 736 c 1
 744 522 l 1
 748 521 753 521 757 520 c 1
982 733 m 1
 979 733 976 734 973 734 c 1
 976 734 979 733 982 733 c 1
1186 964 m 1
 1192 965 1198 966 1204 967 c 1
 1315 1078 l 1
 1317 1084 1318 1091 1319 1097 c 1
 1186 964 l 1
713 526 m 1
 719 525 724 524 730 523 c 1
 945 738 l 1
 941 739 936 739 932 740 c 1
 717 525 l 1
 716 525 714 526 713 526 c 1
1158 966 m 1
 1162 965 1167 964 1171 964 c 1
 1320 1113 l 1
 1320 1114 l 0
 1320 1119 1320 1123 1320 1128 c 1
 1158 966 l 1
1176 964 m 1
 1178 964 1180 964 1182 964 c 1
 1180 964 1178 964 1176 964 c 1
691 529 m 1
 695 528 700 528 704 527 c 1
 919 742 l 1
 915 743 910 743 906 744 c 1
 691 529 l 1
1319 1142 m 1
 1319 1147 1318 1151 1318 1156 c 1
 1135 973 l 1
 1139 972 1142 970 1146 969 c 1
 1319 1142 l 1
1319 1140 m 1
 1319 1138 1320 1135 1320 1133 c 1
 1320 1135 1319 1138 1319 1140 c 1
892 745 m 1
 888 746 883 746 879 747 c 1
 664 532 l 1
 668 531 674 532 678 531 c 1
 892 745 l 1
1124 977 m 1
 1316 1169 l 1
 1315 1173 1315 1178 1314 1182 c 1
 1114 982 l 1
 1117 980 1121 979 1124 977 c 1
866 749 m 1
 862 750 856 749 852 750 c 1
 639 537 l 1
 643 536 648 536 652 535 c 1
 866 749 l 1
661 533 m 1
 658 533 656 534 653 534 c 1
 656 534 658 533 661 533 c 1
212 110 m 1
 215 108 219 107 222 105 c 1
 229 112 l 1
 227 115 225 118 223 121 c 1
 212 110 l 1
231 99 m 1
 234 97 236 96 239 94 c 1
 241 96 l 1
 239 99 238 102 236 104 c 1
 231 99 l 1
1312 1195 m 1
 1309 1207 1305 1218 1301 1229 c 1
 1080 1008 l 1
 1088 1000 1096 994 1105 988 c 1
 1312 1195 l 1
1313 1190 m 1
 1313 1188 1314 1186 1314 1184 c 1
 1314 1186 1313 1188 1313 1190 c 1
626 539 m 1
 839 752 l 1
 835 753 830 753 826 754 c 1
 613 541 l 1
 617 540 622 540 626 539 c 1
203 116 m 1
 217 130 l 1
 215 133 213 136 211 139 c 1
 194 122 l 1
 197 120 200 118 203 116 c 1
306 219 m 1
 371 284 l 1
 373 290 375 297 376 304 c 1
 287 215 l 1
 294 216 300 217 306 219 c 1
312 221 m 1
 321 224 329 229 337 235 c 1
 329 229 321 224 312 221 c 1
337 235 m 1
 344 240 350 246 356 254 c 1
 350 248 343 241 337 235 c 1
186 129 m 1
 206 149 l 1
 204 153 202 156 201 159 c 1
 177 135 l 1
 174 137 172 140 169 142 c 1
 198 171 l 1
 198 173 198 175 198 177 c 0
 198 182 199 186 201 189 c 2
 161 149 l 1
 169 142 178 135 186 129 c 1
192 124 m 1
 191 125 191 125 190 126 c 1
 191 125 191 125 192 124 c 1
281 214 m 1
 283 214 284 215 286 215 c 1
 284 215 283 214 281 214 c 1
376 307 m 1
 376 308 376 310 376 311 c 1
 376 310 376 308 376 307 c 1
1073 1016 m 1
 1297 1240 l 1
 1295 1243 1294 1247 1292 1250 c 1
 1066 1024 l 1
 1068 1021 1071 1019 1073 1016 c 1
538 556 m 1
 542 555 546 554 550 553 c 1
 760 763 l 1
 756 764 751 764 747 765 c 1
 538 556 l 1
536 556 m 1
 534 556 533 558 531 558 c 1
 533 558 534 556 536 556 c 1
506 564 m 1
 513 562 519 561 526 559 c 1
 734 767 l 1
 730 768 725 768 721 769 c 1
 514 562 l 1
 511 563 509 563 506 564 c 1
132 180 m 1
 134 177 136 174 138 171 c 1
 360 393 l 1
 358 396 356 399 354 402 c 1
 132 180 l 1
502 565 m 1
 708 771 l 1
 704 772 699 772 695 773 c 1
 490 568 l 1
 494 567 498 566 502 565 c 1
721 769 m 1
 721 769 l 1
127 185 m 1
 128 184 129 183 130 182 c 1
 129 183 128 184 127 185 c 1
349 408 m 1
 350 407 352 405 353 404 c 1
 352 405 350 407 349 408 c 1
1033 1096 m 1
 1245 1308 l 1
 1242 1310 1239 1312 1236 1314 c 1
 1032 1110 l 1
 1032 1105 1032 1101 1033 1096 c 1
478 571 m 1
 683 776 l 1
 679 777 674 777 670 778 c 1
 466 574 l 1
 470 573 474 572 478 571 c 1
483 570 m 1
 482 570 479 571 478 571 c 1
 479 571 482 570 483 570 c 1
694 774 m 1
 691 775 688 774 685 775 c 1
 688 774 691 775 694 774 c 1
338 419 m 1
 337 420 337 420 336 421 c 1
 337 420 337 420 338 419 c 1
1034 1142 m 1
 1033 1137 1032 1131 1032 1125 c 1
 1227 1320 l 1
 1224 1322 1221 1324 1218 1326 c 1
 1174 1282 l 2
 1173 1281 1171 1279 1170 1278 c 2
 1034 1142 l 1
1232 1317 m 1
 1231 1318 1231 1318 1230 1318 c 1
 1231 1318 1231 1318 1232 1317 c 1
455 578 m 1
 657 780 l 1
 653 781 649 782 645 783 c 1
 443 581 l 1
 447 580 451 579 455 578 c 1
464 575 m 1
 462 576 460 576 458 577 c 1
 460 576 462 576 464 575 c 1
667 779 m 1
 665 779 662 780 660 780 c 1
 662 780 665 779 667 779 c 1
1175 1317 m 1
 1178 1311 1179 1307 1180 1303 c 1
 1208 1331 l 1
 1205 1333 1201 1334 1198 1336 c 1
 1176 1314 l 1
 1176 1315 1176 1316 1175 1317 c 1
1138 1261 m 1
 1130 1257 1120 1254 1111 1249 c 1
 1044 1182 l 1
 1041 1175 1039 1168 1037 1160 c 1
 1138 1261 l 1
432 585 m 1
 632 785 l 1
 628 786 624 787 620 788 c 1
 420 588 l 1
 424 587 428 586 432 585 c 1
96 249 m 1
 97 246 98 243 99 240 c 1
 98 243 97 246 96 249 c 1
288 441 m 1
 284 442 280 443 275 443 c 1
 93 261 l 1
 94 257 95 253 96 249 c 1
 288 441 l 1
1187 1340 m 1
 1183 1341 1180 1343 1176 1344 c 1
 1164 1332 l 1
 1162 1335 1160 1338 1157 1340 c 1
 1165 1348 l 1
 1161 1349 1157 1350 1153 1351 c 1
 1148 1346 l 1
 1158 1339 1166 1332 1171 1324 c 1
 1187 1340 l 1
409 592 m 1
 608 791 l 1
 604 792 600 793 596 794 c 1
 398 596 l 1
 394 597 391 599 387 600 c 1
 584 797 l 1
 580 798 576 799 572 800 c 1
 376 604 l 1
 387 600 398 596 409 592 c 1
1138 1352 m 2
 1139 1352 l 2
 1141 1354 l 2
 1140 1354 l 2
 1138 1352 l 2
560 803 m 1
 556 804 552 805 548 806 c 1
 355 613 l 1
 358 612 361 609 365 608 c 1
 560 803 l 1
91 320 m 1
 92 325 93 330 94 335 c 1
 93 330 92 325 91 320 c 1
189 432 m 1
 180 429 172 426 164 422 c 1
 103 361 l 1
 100 354 97 346 95 338 c 1
 189 432 l 1
344 617 m 1
 536 809 l 1
 532 810 529 812 525 813 c 1
 334 622 l 1
 337 620 341 619 344 617 c 1
324 627 m 1
 513 816 l 1
 509 817 506 819 502 820 c 1
 314 632 l 1
 317 630 321 629 324 627 c 1
304 637 m 1
 491 824 l 1
 487 825 484 827 480 828 c 1
 295 643 l 1
 298 641 301 639 304 637 c 1
499 821 m 1
 497 822 495 822 493 823 c 1
 495 822 497 822 499 821 c 1
291 645 m 1
 290 646 288 646 287 647 c 1
 288 646 290 646 291 645 c 1
408 861 m 1
 405 863 401 864 398 866 c 1
 224 692 l 1
 227 690 229 687 232 685 c 1
 408 861 l 1
216 699 m 1
 389 872 l 1
 386 874 383 876 380 878 c 1
 208 706 l 1
 211 704 213 701 216 699 c 1
223 693 m 1
 222 694 221 695 220 696 c 1
 221 695 222 694 223 693 c 1
392 870 m 1
 391 871 l 1
 392 870 l 1
201 714 m 1
 371 884 l 1
 368 886 365 888 362 890 c 1
 194 722 l 1
 196 719 199 717 201 714 c 1
202 713 m 1
 203 712 205 710 206 709 c 1
 205 710 203 712 202 713 c 1
354 897 m 1
 351 899 349 902 346 904 c 1
 180 738 l 1
 182 735 185 733 187 730 c 1
 354 897 l 1
357 895 m 1
 356 896 l 1
 357 895 l 1
311 944 m 1
 309 947 307 950 305 953 c 1
 146 794 l 1
 148 791 149 787 151 784 c 1
 311 944 l 1
300 963 m 1
 298 966 297 970 295 973 c 1
 136 814 l 1
 137 810 139 807 141 804 c 1
 300 963 l 1
132 825 m 1
 290 983 l 1
 289 987 287 990 286 994 c 1
 129 837 l 1
 130 833 131 829 132 825 c 1
132 825 m 1
 133 823 133 822 134 820 c 1
 133 822 133 823 132 825 c 1
125 848 m 1
 282 1005 l 1
 281 1009 280 1013 279 1017 c 1
 122 860 l 1
 123 856 124 852 125 848 c 1
119 872 m 1
 276 1029 l 1
 275 1033 275 1038 274 1042 c 1
 117 885 l 1
 118 881 118 876 119 872 c 1
115 898 m 1
 272 1055 l 1
 271 1060 271 1064 271 1069 c 1
 113 911 l 1
 114 907 114 902 115 898 c 1
115 898 m 1
 115 896 116 895 116 893 c 1
 116 895 115 896 115 898 c 1
112 925 m 1
 270 1083 l 1
 270 1088 270 1093 270 1098 c 1
 111 939 l 1
 111 934 112 930 112 925 c 1
271 1078 m 1
 271 1076 271 1075 271 1073 c 1
 271 1075 271 1076 271 1078 c 1
110 968 m 1
 110 963 110 958 110 953 c 1
 270 1113 l 1
 270 1118 271 1124 271 1129 c 1
 110 968 l 1
110 983 m 1
 273 1146 l 1
 274 1152 276 1159 277 1165 c 1
 112 1000 l 1
 111 995 110 988 110 983 c 1
110 970 m 1
 110 969 110 969 110 968 c 1
 110 969 110 969 110 970 c 1
272 1134 m 1
 272 1136 272 1137 272 1139 c 1
 272 1137 272 1136 272 1134 c 1
114 1017 m 1
 282 1185 l 1
 284 1193 287 1201 290 1208 c 1
 117 1035 l 1
 116 1029 115 1023 114 1017 c 1
112 1001 m 1
 113 1006 112 1010 113 1015 c 1
 112 1010 113 1006 112 1001 c 1
303 1236 m 1
 320 1267 345 1294 376 1316 c 1
 372 1315 368 1313 364 1312 c 1
 130 1078 l 1
 127 1071 125 1064 123 1056 c 1
 303 1236 l 1
159 1139 m 1
 152 1128 147 1116 141 1104 c 1
 339 1302 l 1
 329 1297 318 1292 308 1286 c 1
 157 1135 l 2
 158 1136 158 1138 159 1139 c 1
180 1171 m 1
 182 1173 183 1175 185 1177 c 1
 183 1175 182 1173 180 1171 c 1
261 1254 m 1
 235 1233 210 1209 189 1182 c 1
 261 1254 l 1
EndSplineSet
EndChar

StartChar: bar
Encoding: 124 124 30
GlifName: bar
Width: 608
VWidth: 0
Flags: HMW
LayerCount: 2
Fore
SplineSet
212 1550 m 5
 210 1548 l 5
 210 1550 l 5
 212 1550 l 5
227 1550 m 5
 242 1550 l 5
 210 1518 l 5
 210 1533 l 5
 227 1550 l 5
257 1550 m 5
 272 1550 l 5
 210 1488 l 5
 210 1503 l 5
 257 1550 l 5
287 1550 m 5
 302 1550 l 5
 210 1458 l 5
 210 1473 l 5
 287 1550 l 5
317 1550 m 5
 328 1550 l 5
 328 1546 l 5
 210 1428 l 5
 210 1443 l 5
 317 1550 l 5
328 1531 m 5
 328 1516 l 5
 210 1398 l 5
 210 1413 l 5
 328 1531 l 5
328 1501 m 5
 328 1486 l 5
 210 1368 l 5
 210 1383 l 5
 328 1501 l 5
328 1471 m 5
 328 1456 l 5
 210 1338 l 5
 210 1353 l 5
 328 1471 l 5
328 1441 m 5
 328 1426 l 5
 210 1308 l 5
 210 1323 l 5
 328 1441 l 5
328 1411 m 5
 328 1396 l 5
 210 1278 l 5
 210 1293 l 5
 328 1411 l 5
328 1381 m 5
 328 1366 l 5
 210 1248 l 5
 210 1263 l 5
 328 1381 l 5
328 1351 m 5
 328 1336 l 5
 210 1218 l 5
 210 1233 l 5
 328 1351 l 5
328 1321 m 5
 328 1306 l 5
 210 1188 l 5
 210 1203 l 5
 328 1321 l 5
328 1291 m 5
 328 1276 l 5
 210 1158 l 5
 210 1173 l 5
 328 1291 l 5
328 1261 m 5
 328 1246 l 5
 210 1128 l 5
 210 1143 l 5
 328 1261 l 5
328 1231 m 5
 328 1216 l 5
 210 1098 l 5
 210 1113 l 5
 328 1231 l 5
328 1201 m 5
 328 1186 l 5
 210 1068 l 5
 210 1083 l 5
 328 1201 l 5
328 1171 m 5
 328 1156 l 5
 210 1038 l 5
 210 1053 l 5
 328 1171 l 5
328 1141 m 5
 328 1126 l 5
 210 1008 l 5
 210 1023 l 5
 328 1141 l 5
328 1111 m 5
 328 1096 l 5
 210 978 l 5
 210 993 l 5
 328 1111 l 5
328 1081 m 5
 328 1066 l 5
 210 948 l 5
 210 963 l 5
 328 1081 l 5
328 1051 m 5
 328 1036 l 5
 210 918 l 5
 210 933 l 5
 328 1051 l 5
328 1021 m 5
 328 1006 l 5
 210 888 l 5
 210 903 l 5
 328 1021 l 5
328 991 m 5
 328 976 l 5
 210 858 l 5
 210 873 l 5
 328 991 l 5
328 961 m 5
 328 946 l 5
 210 828 l 5
 210 843 l 5
 328 961 l 5
328 931 m 5
 328 916 l 5
 210 798 l 5
 210 813 l 5
 328 931 l 5
328 901 m 5
 328 886 l 5
 210 768 l 5
 210 783 l 5
 328 901 l 5
328 871 m 5
 328 856 l 5
 210 738 l 5
 210 753 l 5
 328 871 l 5
328 841 m 5
 328 826 l 5
 210 708 l 5
 210 723 l 5
 328 841 l 5
328 811 m 5
 328 796 l 5
 210 678 l 5
 210 693 l 5
 328 811 l 5
328 781 m 5
 328 766 l 5
 210 648 l 5
 210 663 l 5
 328 781 l 5
328 751 m 5
 328 736 l 5
 210 618 l 5
 210 633 l 5
 328 751 l 5
328 721 m 5
 328 706 l 5
 210 588 l 5
 210 603 l 5
 328 721 l 5
328 691 m 5
 328 676 l 5
 210 558 l 5
 210 573 l 5
 328 691 l 5
328 661 m 5
 328 646 l 5
 210 528 l 5
 210 543 l 5
 328 661 l 5
328 631 m 5
 328 616 l 5
 210 498 l 5
 210 513 l 5
 328 631 l 5
328 601 m 5
 328 586 l 5
 210 468 l 5
 210 483 l 5
 328 601 l 5
328 571 m 5
 328 556 l 5
 210 438 l 5
 210 453 l 5
 328 571 l 5
328 541 m 5
 328 526 l 5
 210 408 l 5
 210 423 l 5
 328 541 l 5
328 511 m 5
 328 496 l 5
 210 378 l 5
 210 393 l 5
 328 511 l 5
328 481 m 5
 328 466 l 5
 210 348 l 5
 210 363 l 5
 328 481 l 5
328 451 m 5
 328 436 l 5
 210 318 l 5
 210 333 l 5
 328 451 l 5
328 421 m 5
 328 406 l 5
 210 288 l 5
 210 303 l 5
 328 421 l 5
328 391 m 5
 328 376 l 5
 210 258 l 5
 210 273 l 5
 328 391 l 5
328 361 m 5
 328 346 l 5
 210 228 l 5
 210 243 l 5
 328 361 l 5
328 331 m 5
 328 316 l 5
 210 198 l 5
 210 213 l 5
 328 331 l 5
328 301 m 5
 328 286 l 5
 210 168 l 5
 210 183 l 5
 328 301 l 5
328 271 m 5
 328 256 l 5
 210 138 l 5
 210 153 l 5
 328 271 l 5
328 241 m 5
 328 226 l 5
 210 108 l 5
 210 123 l 5
 328 241 l 5
328 211 m 5
 328 196 l 5
 210 78 l 5
 210 93 l 5
 328 211 l 5
328 181 m 5
 328 166 l 5
 210 48 l 5
 210 63 l 5
 328 181 l 5
328 151 m 5
 328 136 l 5
 210 18 l 5
 210 33 l 5
 328 151 l 5
328 121 m 5
 328 106 l 5
 210 -12 l 5
 210 3 l 5
 328 121 l 5
328 91 m 5
 328 76 l 5
 210 -42 l 5
 210 -27 l 5
 328 91 l 5
328 61 m 5
 328 46 l 5
 210 -72 l 5
 210 -57 l 5
 328 61 l 5
328 31 m 5
 328 16 l 5
 210 -102 l 5
 210 -87 l 5
 328 31 l 5
328 1 m 5
 328 -14 l 5
 210 -132 l 5
 210 -117 l 5
 328 1 l 5
328 -29 m 5
 328 -44 l 5
 210 -162 l 5
 210 -147 l 5
 328 -29 l 5
328 -59 m 5
 328 -74 l 5
 210 -192 l 5
 210 -177 l 5
 328 -59 l 5
328 -89 m 5
 328 -104 l 5
 210 -222 l 5
 210 -207 l 5
 328 -89 l 5
328 -119 m 5
 328 -134 l 5
 210 -252 l 5
 210 -237 l 5
 328 -119 l 5
328 -149 m 5
 328 -164 l 5
 210 -282 l 5
 210 -267 l 5
 328 -149 l 5
328 -179 m 5
 328 -194 l 5
 210 -312 l 5
 210 -297 l 5
 328 -179 l 5
328 -209 m 5
 328 -224 l 5
 210 -342 l 5
 210 -327 l 5
 328 -209 l 5
328 -239 m 5
 328 -254 l 5
 210 -372 l 5
 210 -357 l 5
 328 -239 l 5
328 -269 m 5
 328 -284 l 5
 210 -402 l 5
 210 -387 l 5
 328 -269 l 5
328 -299 m 5
 328 -314 l 5
 212 -430 l 5
 210 -430 l 5
 210 -417 l 5
 328 -299 l 5
328 -329 m 5
 328 -344 l 5
 242 -430 l 5
 227 -430 l 5
 328 -329 l 5
328 -359 m 5
 328 -374 l 5
 272 -430 l 5
 257 -430 l 5
 328 -359 l 5
328 -389 m 5
 328 -404 l 5
 302 -430 l 5
 287 -430 l 5
 328 -389 l 5
328 -419 m 5
 328 -430 l 5
 317 -430 l 5
 328 -419 l 5
210 1550 m 257
 210 -430 l 257
 328 -430 l 257
 328 1550 l 257
 210 1550 l 257
200 1560 m 257
 408 1560 l 257
 408 -440 l 257
 200 -440 l 257
 200 1560 l 257
EndSplineSet
EndChar

StartChar: zero
Encoding: 48 48 31
GlifName: zero
Width: 1960
Flags: HMW
LayerCount: 2
Fore
SplineSet
506 1259 m 1
 490 1249 473 1237 458 1226 c 1
 283 1051 l 1
 273 1037 264 1023 255 1008 c 1
 506 1259 l 1
577 1300 m 1
 566 1294 555 1288 544 1282 c 1
 237 975 l 1
 232 965 226 955 222 945 c 1
 577 1300 l 1
636 1329 m 1
 627 1325 617 1321 608 1316 c 1
 211 919 l 1
 208 911 206 904 203 896 c 1
 636 1329 l 1
667 1330 m 1
 688 1351 l 1
 680 1348 670 1343 662 1340 c 1
 195 873 l 1
 193 866 192 860 190 853 c 1
 627 1290 l 1
 639 1305 653 1318 667 1330 c 1
570 1203 m 1
 576 1215 582 1226 589 1237 c 1
 185 833 l 1
 184 827 182 820 181 814 c 1
 570 1203 l 1
545 1148 m 1
 549 1157 552 1165 556 1174 c 1
 177 795 l 1
 176 789 176 784 175 778 c 1
 545 1148 l 1
528 1101 m 1
 531 1109 533 1116 536 1124 c 1
 173 761 l 1
 172 756 172 750 172 745 c 1
 528 1101 l 1
515 1058 m 1
 517 1065 519 1072 521 1079 c 1
 171 729 l 1
 171 724 170 718 170 713 c 1
 515 1058 l 1
504 1017 m 1
 506 1024 507 1030 509 1037 c 1
 170 698 l 1
 170 693 170 688 170 683 c 1
 504 1017 l 1
496 979 m 1
 497 985 499 992 500 998 c 1
 171 669 l 1
 171 664 172 660 172 655 c 1
 496 979 l 1
489 942 m 1
 490 948 492 955 493 961 c 1
 173 641 l 1
 173 636 173 632 174 627 c 1
 489 942 l 1
484 907 m 1
 485 913 486 919 487 925 c 1
 176 614 l 1
 177 610 177 605 178 601 c 1
 484 907 l 1
480 873 m 1
 481 879 481 884 482 890 c 1
 180 588 l 1
 181 584 181 579 182 575 c 1
 480 873 l 1
476 839 m 1
 477 845 477 850 478 856 c 1
 185 563 l 1
 186 559 187 555 188 551 c 1
 476 839 l 1
474 807 m 1
 474 812 475 818 475 823 c 1
 191 539 l 1
 192 535 193 531 194 527 c 1
 474 807 l 1
472 775 m 1
 472 780 473 786 473 791 c 1
 197 515 l 1
 198 511 200 508 201 504 c 1
 472 775 l 1
1090 1393 m 2
 1089 1392 l 2
 1090 1393 l 2
471 744 m 1
 471 749 471 754 471 759 c 1
 205 493 l 1
 206 489 208 486 209 482 c 1
 471 744 l 1
1116 1389 m 1
 1112 1390 1107 1390 1103 1391 c 1
 1102 1390 l 1
 1106 1389 1110 1388 1114 1387 c 1
 1116 1389 l 1
470 713 m 1
 470 718 470 723 470 728 c 1
 213 471 l 1
 214 467 217 465 218 461 c 1
 470 713 l 1
1141 1384 m 1
 1137 1385 1132 1385 1128 1386 c 1
 1126 1384 l 1
 1130 1383 1134 1382 1138 1381 c 1
 1141 1384 l 1
1165 1378 m 1
 1161 1379 1157 1380 1153 1381 c 1
 1149 1377 l 1
 1153 1376 1155 1373 1159 1372 c 1
 1165 1378 l 1
237 420 m 1
 471 654 l 1
 471 659 470 663 470 668 c 1
 232 430 l 1
 234 427 235 423 237 420 c 1
1189 1372 m 1
 1185 1373 1181 1374 1177 1375 c 1
 1170 1368 l 1
 1173 1366 1177 1365 1180 1363 c 1
 1189 1372 l 1
247 400 m 1
 472 625 l 1
 472 630 471 634 471 639 c 1
 242 410 l 1
 244 407 245 403 247 400 c 1
1212 1365 m 1
 1208 1366 1205 1368 1201 1369 c 1
 1189 1357 l 1
 1192 1355 1195 1353 1198 1351 c 1
 1212 1365 l 1
258 381 m 1
 473 596 l 1
 473 601 473 606 473 611 c 1
 253 391 l 1
 255 388 256 384 258 381 c 1
1235 1358 m 1
 1231 1359 1227 1360 1223 1361 c 1
 1207 1345 l 1
 1210 1343 1213 1341 1216 1339 c 1
 1235 1358 l 1
270 363 m 1
 476 569 l 1
 476 574 474 577 474 582 c 1
 264 372 l 1
 266 369 268 366 270 363 c 1
1256 1349 m 1
 1252 1350 1249 1352 1245 1353 c 1
 1224 1332 l 1
 1227 1330 1229 1327 1232 1325 c 1
 1256 1349 l 1
282 345 m 1
 478 541 l 1
 478 546 477 550 477 555 c 1
 276 354 l 1
 278 351 280 348 282 345 c 1
1277 1340 m 1
 1274 1342 1271 1344 1267 1345 c 1
 1239 1317 l 1
 1241 1314 1244 1312 1246 1309 c 1
 1277 1340 l 1
294 327 m 1
 481 514 l 1
 480 518 481 524 480 528 c 1
 288 336 l 1
 290 333 292 330 294 327 c 1
1298 1331 m 1
 1295 1333 1291 1334 1288 1336 c 1
 1253 1301 l 1
 1255 1298 1257 1295 1259 1292 c 1
 1298 1331 l 1
307 310 m 1
 485 488 l 1
 484 492 484 497 483 501 c 1
 301 319 l 1
 303 316 305 313 307 310 c 1
1318 1321 m 1
 1315 1323 1311 1324 1308 1326 c 1
 1265 1283 l 1
 1267 1280 1268 1276 1270 1273 c 1
 1318 1321 l 1
321 294 m 1
 489 462 l 1
 488 466 488 471 487 475 c 1
 314 302 l 1
 316 299 319 297 321 294 c 1
1337 1310 m 1
 1334 1312 1330 1313 1327 1315 c 1
 1276 1264 l 1
 1278 1261 1279 1257 1281 1254 c 1
 1337 1310 l 1
335 278 m 1
 493 436 l 1
 492 440 492 445 491 449 c 1
 328 286 l 1
 330 283 333 281 335 278 c 1
1355 1298 m 1
 1352 1300 1349 1302 1346 1304 c 1
 1286 1244 l 1
 1288 1241 1289 1237 1290 1233 c 1
 1355 1298 l 1
349 262 m 1
 498 411 l 1
 497 415 497 420 496 424 c 1
 342 270 l 1
 344 267 347 265 349 262 c 1
1373 1286 m 1
 1370 1288 1367 1290 1364 1292 c 1
 1294 1222 l 1
 1295 1218 1297 1215 1298 1211 c 1
 1373 1286 l 1
364 247 m 1
 504 387 l 1
 503 391 502 395 501 399 c 1
 357 255 l 1
 359 252 361 249 364 247 c 1
1391 1274 m 1
 1388 1276 1385 1278 1382 1280 c 1
 1302 1200 l 1
 1303 1196 1304 1192 1305 1188 c 1
 1391 1274 l 1
380 233 m 1
 510 363 l 1
 509 367 508 371 507 375 c 1
 372 240 l 1
 375 238 377 235 380 233 c 1
1408 1261 m 1
 1405 1263 1402 1265 1399 1267 c 1
 1308 1176 l 1
 1309 1172 1310 1168 1311 1164 c 1
 1408 1261 l 1
395 218 m 1
 516 339 l 1
 515 343 514 347 513 351 c 1
 387 225 l 1
 390 223 392 220 395 218 c 1
1424 1247 m 1
 1421 1249 1419 1252 1416 1254 c 1
 1314 1152 l 1
 1315 1148 1316 1144 1317 1140 c 1
 1424 1247 l 1
411 204 m 1
 523 316 l 1
 522 320 520 323 519 327 c 1
 403 211 l 1
 406 209 408 206 411 204 c 1
1440 1233 m 1
 1437 1235 1435 1238 1432 1240 c 1
 1319 1127 l 1
 1320 1123 1320 1118 1321 1114 c 1
 1440 1233 l 1
428 191 m 1
 530 293 l 1
 529 297 527 300 526 304 c 1
 420 198 l 1
 423 196 425 193 428 191 c 1
1455 1218 m 1
 1452 1220 1451 1224 1448 1226 c 1
 1323 1101 l 1
 1324 1097 1324 1092 1325 1088 c 1
 1455 1218 l 1
445 178 m 1
 538 271 l 1
 537 275 535 278 534 282 c 1
 436 184 l 1
 439 182 442 180 445 178 c 1
1470 1203 m 1
 1468 1206 1465 1208 1463 1211 c 1
 1327 1075 l 1
 1328 1071 1328 1066 1328 1061 c 1
 1470 1203 l 1
462 165 m 1
 546 249 l 1
 545 253 543 256 542 260 c 1
 453 171 l 1
 456 169 459 167 462 165 c 1
1484 1187 m 1
 1482 1190 1479 1192 1477 1195 c 1
 1329 1047 l 1
 1329 1042 1331 1039 1331 1034 c 1
 1484 1187 l 1
480 153 m 1
 555 228 l 1
 553 231 552 235 551 239 c 1
 471 159 l 1
 474 157 477 155 480 153 c 1
1498 1171 m 1
 1496 1174 1493 1176 1491 1179 c 1
 1332 1020 l 1
 1332 1015 1333 1011 1333 1006 c 1
 1498 1171 l 1
498 141 m 1
 565 208 l 1
 563 211 562 215 560 218 c 1
 489 147 l 1
 492 145 495 143 498 141 c 1
1511 1154 m 1
 1509 1157 1507 1160 1505 1163 c 1
 1334 992 l 1
 1334 987 1335 983 1335 978 c 1
 1511 1154 l 1
516 129 m 1
 575 188 l 1
 573 191 572 195 570 198 c 1
 507 135 l 1
 510 133 513 131 516 129 c 1
1524 1137 m 1
 1522 1140 1519 1142 1517 1145 c 1
 1336 964 l 1
 1336 959 1336 954 1336 949 c 1
 1524 1137 l 1
535 118 m 1
 586 169 l 1
 584 172 582 175 580 178 c 1
 525 123 l 1
 528 121 532 120 535 118 c 1
1536 1119 m 1
 1534 1122 1532 1125 1530 1128 c 1
 1337 935 l 1
 1337 930 1337 925 1337 920 c 1
 1536 1119 l 1
554 107 m 1
 597 150 l 1
 595 153 593 156 591 159 c 1
 544 112 l 1
 547 110 551 109 554 107 c 1
1547 1100 m 1
 1545 1103 1544 1107 1542 1110 c 1
 1338 906 l 1
 1338 901 1338 896 1338 891 c 1
 1547 1100 l 1
573 96 m 1
 609 132 l 1
 607 135 605 138 603 141 c 1
 564 102 l 1
 567 100 570 98 573 96 c 1
1558 1081 m 1
 1556 1084 1555 1088 1553 1091 c 1
 1339 877 l 1
 1339 872 1339 867 1339 862 c 1
 1558 1081 l 1
593 86 m 1
 622 115 l 1
 620 118 618 121 616 124 c 1
 583 91 l 1
 586 89 590 88 593 86 c 1
1569 1062 m 1
 1567 1065 1566 1069 1564 1072 c 1
 1339 847 l 1
 1339 842 1339 837 1339 832 c 1
 1569 1062 l 1
613 76 m 1
 636 99 l 1
 634 102 631 104 629 107 c 1
 603 81 l 1
 606 79 610 78 613 76 c 1
1579 1042 m 1
 1577 1045 1576 1049 1574 1052 c 1
 1339 817 l 1
 1339 812 1340 808 1340 803 c 1
 1579 1042 l 1
634 67 m 1
 650 83 l 1
 648 86 645 88 643 91 c 1
 624 72 l 1
 627 70 631 69 634 67 c 1
1588 1021 m 1
 1586 1024 1585 1028 1583 1031 c 1
 1340 788 l 1
 1340 783 1340 778 1340 773 c 1
 1588 1021 l 1
1597 1000 m 1
 1596 1004 1593 1006 1592 1010 c 1
 1340 758 l 1
 1340 753 1340 748 1340 743 c 1
 1597 1000 l 1
676 49 m 1
 682 55 l 1
 679 57 677 60 674 62 c 1
 665 53 l 1
 669 52 672 50 676 49 c 1
1605 978 m 1
 1604 982 1602 985 1601 989 c 1
 1340 728 l 1
 1340 723 1340 718 1340 713 c 1
 1605 978 l 1
709 37 m 2
 709 37 l 2
 709 37 l 2
698 41 m 1
 700 43 l 1
 697 45 694 47 691 49 c 1
 687 45 l 1
 691 44 694 42 698 41 c 1
1612 955 m 1
 1611 959 1610 963 1609 967 c 1
 1340 698 l 1
 1340 693 1340 688 1340 683 c 1
 1612 955 l 1
1619 932 m 1
 1618 936 1617 940 1616 944 c 1
 1340 668 l 1
 1340 673 1340 678 1340 683 c 1
 1340 673 1340 663 1340 653 c 1
 1619 932 l 1
1625 908 m 1
 1624 912 1623 916 1622 920 c 1
 1340 638 l 1
 1340 643 1340 648 1340 653 c 1
 1340 643 1340 633 1340 623 c 1
 1625 908 l 1
1631 884 m 1
 1630 888 1629 892 1628 896 c 1
 1340 608 l 1
 1340 613 1340 618 1340 623 c 1
 1340 613 1340 603 1340 593 c 1
 1631 884 l 1
1636 859 m 1
 1635 863 1635 868 1634 872 c 1
 1339 577 l 1
 1339 582 1340 588 1340 593 c 1
 1340 583 1339 572 1339 562 c 1
 1636 859 l 1
1640 833 m 1
 1639 837 1639 842 1638 846 c 1
 1339 547 l 1
 1339 542 1339 537 1339 532 c 1
 1640 833 l 1
1644 807 m 1
 1643 811 1643 816 1642 820 c 1
 1338 516 l 1
 1338 511 1338 506 1338 501 c 1
 1644 807 l 1
1647 780 m 1
 1647 785 1645 788 1645 793 c 1
 1338 486 l 1
 1338 481 1337 475 1337 470 c 1
 1647 780 l 1
1649 752 m 1
 1649 757 1648 761 1648 766 c 1
 1336 454 l 1
 1336 449 1336 444 1336 439 c 1
 1649 752 l 1
1650 723 m 1
 1650 728 1649 732 1649 737 c 1
 1335 423 l 1
 1335 418 1334 412 1334 407 c 1
 1650 723 l 1
1650 693 m 1
 1650 695 1650 698 1650 700 c 0
 1650 703 1650 705 1650 708 c 1
 1333 391 l 1
 1333 386 1332 380 1332 375 c 1
 1650 693 l 1
1649 662 m 1
 1649 667 1650 673 1650 678 c 1
 1330 358 l 1
 1329 352 1330 347 1329 342 c 1
 1649 662 l 1
1647 630 m 1
 1647 635 1649 642 1649 647 c 1
 1327 325 l 1
 1326 319 1326 314 1325 308 c 1
 1647 630 l 1
1644 597 m 1
 1645 603 1645 608 1646 614 c 1
 1322 290 l 1
 1321 284 1320 278 1319 272 c 1
 1644 597 l 1
1640 563 m 1
 1641 569 1641 574 1642 580 c 1
 1316 254 l 1
 1315 248 1313 241 1312 235 c 1
 1640 563 l 1
1633 526 m 1
 1634 532 1636 539 1637 545 c 1
 1308 216 l 1
 1306 209 1304 202 1302 195 c 1
 1633 526 l 1
1625 488 m 1
 1627 495 1627 500 1629 507 c 1
 1295 173 l 1
 1292 165 1288 156 1285 148 c 1
 1625 488 l 1
1191 24 m 1
 1612 445 l 1
 1614 452 1617 460 1619 467 c 1
 1271 119 l 1
 1248 78 1217 46 1176 24 c 1
 1169 17 l 1
 1177 19 1184 21 1191 24 c 1
1240 43 m 1
 1596 399 l 1
 1599 407 1602 415 1605 423 c 1
 1215 33 l 1
 1223 36 1232 40 1240 43 c 1
1296 69 m 1
 1571 344 l 1
 1576 353 1581 363 1585 373 c 1
 1266 54 l 1
 1276 59 1286 64 1296 69 c 1
1526 269 m 1
 1535 283 1544 296 1552 310 c 1
 1330 88 l 1
 1345 97 1359 106 1373 116 c 1
 1526 269 l 1
980 -20 m 0
 614 -20 160 256 160 700 c 0
 160 1144 634 1420 980 1420 c 0
 1326 1420 1800 1144 1800 700 c 0
 1800 256 1346 -20 980 -20 c 0
980 1390 m 0
 702 1390 630 1264 630 700 c 0
 630 136 682 0 980 0 c 0
 1278 0 1330 136 1330 700 c 0
 1330 1264 1278 1390 980 1390 c 0
470 683 m 1
 470 688 470 693 470 698 c 1
 222 450 l 1
 224 447 225 443 227 440 c 1
 470 683 l 1
470 683 m 1
 470 678 470 673 470 668 c 1
 470 673 470 678 470 683 c 1
655 58 m 1
 666 69 l 1
 663 71 661 74 658 76 c 1
 644 62 l 1
 647 60 651 59 655 58 c 1
1149 12 m 1
 1145 10 1140 8 1136 7 c 1
 1140 8 1143 9 1147 10 c 1
 1149 12 l 1
EndSplineSet
EndChar

StartChar: one
Encoding: 49 49 32
GlifName: one
Width: 1496
VWidth: 2308
Flags: HMW
LayerCount: 2
Fore
SplineSet
643 1276 m 1
 609 1257 l 1
 580 1228 l 1
 580 1213 l 1
 643 1276 l 1
711 1314 m 1
 677 1295 l 1
 580 1198 l 1
 580 1183 l 1
 711 1314 l 1
779 1352 m 1
 745 1333 l 1
 580 1168 l 1
 580 1153 l 1
 779 1352 l 1
822 1365 m 1
 822 1376 l 1
 813 1371 l 1
 580 1138 l 1
 580 1123 l 1
 822 1365 l 1
580 1093 m 1
 822 1335 l 1
 822 1350 l 1
 580 1108 l 1
 580 1093 l 1
822 1305 m 1
 822 1320 l 1
 580 1078 l 1
 580 1063 l 1
 822 1305 l 1
822 1275 m 1
 822 1290 l 1
 580 1048 l 1
 580 1033 l 1
 822 1275 l 1
822 1245 m 1
 822 1260 l 1
 580 1018 l 1
 580 1003 l 1
 822 1245 l 1
822 1215 m 1
 822 1230 l 1
 580 988 l 1
 580 973 l 1
 822 1215 l 1
822 1185 m 1
 822 1200 l 1
 580 958 l 1
 580 943 l 1
 822 1185 l 1
822 1155 m 1
 822 1170 l 1
 580 928 l 1
 580 913 l 1
 822 1155 l 1
580 883 m 1
 822 1125 l 1
 822 1140 l 1
 580 898 l 1
 580 883 l 1
822 1095 m 1
 822 1110 l 1
 580 868 l 1
 580 853 l 1
 822 1095 l 1
822 1065 m 1
 822 1080 l 1
 580 838 l 1
 580 823 l 1
 822 1065 l 1
822 1035 m 1
 822 1050 l 1
 580 808 l 1
 580 793 l 1
 822 1035 l 1
822 1005 m 1
 822 1020 l 1
 580 778 l 1
 580 763 l 1
 822 1005 l 1
822 975 m 1
 822 990 l 1
 580 748 l 1
 580 733 l 1
 822 975 l 1
822 945 m 1
 822 960 l 1
 580 718 l 1
 580 703 l 1
 822 945 l 1
822 915 m 1
 822 930 l 1
 580 688 l 1
 580 673 l 1
 822 915 l 1
822 885 m 1
 822 900 l 1
 580 658 l 1
 580 643 l 1
 822 885 l 1
822 855 m 1
 822 870 l 1
 580 628 l 1
 580 613 l 1
 822 855 l 1
822 825 m 1
 822 840 l 1
 580 598 l 1
 580 583 l 1
 822 825 l 1
822 795 m 1
 822 810 l 1
 580 568 l 1
 580 553 l 1
 822 795 l 1
822 765 m 1
 822 780 l 1
 580 538 l 1
 580 523 l 1
 822 765 l 1
822 735 m 1
 822 750 l 1
 580 508 l 1
 580 493 l 1
 822 735 l 1
822 705 m 1
 822 720 l 1
 580 478 l 1
 580 463 l 1
 822 705 l 1
822 675 m 1
 822 690 l 1
 580 448 l 1
 580 433 l 1
 822 675 l 1
822 645 m 1
 822 660 l 1
 580 418 l 1
 580 403 l 1
 822 645 l 1
822 615 m 1
 822 630 l 1
 580 388 l 1
 580 373 l 1
 822 615 l 1
822 585 m 1
 822 600 l 1
 580 358 l 1
 580 343 l 1
 822 585 l 1
822 555 m 1
 822 570 l 1
 580 328 l 1
 580 313 l 1
 822 555 l 1
307 10 m 1
 317 20 l 1
 311 19 305 18 299 17 c 1
 292 10 l 1
 307 10 l 1
822 525 m 1
 822 540 l 1
 580 298 l 1
 580 283 l 1
 822 525 l 1
337 10 m 1
 355 28 l 1
 349 27 342 25 336 24 c 1
 322 10 l 1
 337 10 l 1
822 495 m 1
 822 510 l 1
 580 268 l 1
 580 253 l 1
 822 495 l 1
367 10 m 1
 396 39 l 1
 389 37 382 35 375 33 c 1
 352 10 l 1
 367 10 l 1
822 465 m 1
 822 480 l 1
 580 238 l 1
 580 223 l 1
 822 465 l 1
397 10 m 1
 442 55 l 1
 434 52 426 49 418 46 c 1
 382 10 l 1
 397 10 l 1
822 435 m 1
 822 450 l 1
 580 208 l 1
 580 193 l 1
 822 435 l 1
427 10 m 1
 492 75 l 1
 484 72 476 69 467 65 c 1
 412 10 l 1
 427 10 l 1
822 405 m 1
 822 420 l 1
 580 178 l 1
 580 175 l 2
 580 171 579 166 579 162 c 1
 822 405 l 1
457 10 m 1
 822 375 l 1
 822 390 l 1
 576 144 l 1
 569 120 552 105 521 89 c 1
 442 10 l 1
 457 10 l 1
487 10 m 1
 822 345 l 1
 822 360 l 1
 472 10 l 1
 487 10 l 1
517 10 m 1
 822 315 l 1
 822 330 l 1
 502 10 l 1
 517 10 l 1
547 10 m 1
 822 285 l 1
 822 300 l 1
 532 10 l 1
 547 10 l 1
577 10 m 1
 822 255 l 1
 822 270 l 1
 562 10 l 1
 577 10 l 1
607 10 m 1
 822 225 l 1
 822 240 l 1
 592 10 l 1
 607 10 l 1
637 10 m 1
 822 195 l 1
 822 210 l 1
 622 10 l 1
 637 10 l 1
667 10 m 1
 822 165 l 1
 822 168 822 172 822 175 c 2
 822 180 l 1
 652 10 l 1
 667 10 l 1
697 10 m 1
 828 141 l 1
 827 145 825 148 824 152 c 1
 682 10 l 1
 697 10 l 1
727 10 m 1
 838 121 l 1
 836 124 834 127 832 130 c 1
 712 10 l 1
 727 10 l 1
757 10 m 1
 852 105 l 1
 849 107 847 110 845 113 c 1
 742 10 l 1
 757 10 l 1
787 10 m 1
 869 92 l 1
 866 94 863 96 860 98 c 1
 772 10 l 1
 787 10 l 1
817 10 m 1
 888 81 l 1
 885 83 881 84 878 86 c 1
 802 10 l 1
 817 10 l 1
847 10 m 1
 908 71 l 1
 905 73 901 74 898 76 c 1
 832 10 l 1
 847 10 l 1
877 10 m 1
 929 62 l 1
 925 63 921 65 918 66 c 1
 862 10 l 1
 877 10 l 1
950 53 m 1
 946 54 944 57 940 58 c 1
 892 10 l 1
 907 10 l 1
 950 53 l 1
937 10 m 1
 972 45 l 1
 968 46 965 48 961 49 c 1
 922 10 l 1
 937 10 l 1
967 10 m 1
 994 37 l 1
 990 38 987 40 983 41 c 1
 952 10 l 1
 967 10 l 1
997 10 m 1
 1017 30 l 1
 1013 31 1010 33 1006 34 c 1
 982 10 l 1
 997 10 l 1
1027 10 m 1
 1039 22 l 1
 1035 23 1032 25 1028 26 c 1
 1012 10 l 1
 1027 10 l 1
1057 10 m 1
 1062 15 l 1
 1058 16 1054 17 1050 18 c 1
 1042 10 l 1
 1057 10 l 1
266 13 m 1
 266 10 l 1
 277 10 l 1
 282 15 l 1
 277 14 271 14 266 13 c 1
200 1080 m 1
 972 1490 l 1
 972 175 l 2
 972 120 1000 104 1100 65 c 0
 1165 39 1215 29 1296 20 c 1
 1296 0 l 1
 246 0 l 1
 246 20 l 1
 327 29 377 39 442 65 c 0
 542 104 570 120 570 175 c 2
 570 1237 l 1
 200 1044 l 1
 200 1080 l 1
EndSplineSet
EndChar

StartChar: two
Encoding: 50 50 33
GlifName: two
Width: 1848
VWidth: 2308
Flags: HMW
LayerCount: 2
Fore
SplineSet
160 -20 m 1
 160 293 410 508 680 582 c 0
 1033 678 1168 766 1168 1030 c 0
 1168 1283 1032 1387 800 1387 c 0
 553 1387 327 1292 327 1224 c 0
 327 1215 330 1209 337 1209 c 0
 363 1209 390 1224 448 1224 c 0
 567 1224 675 1152 675 1022 c 0
 675 882 560 804 430 804 c 0
 300 804 177 890 177 1054 c 0
 177 1258 451 1420 810 1420 c 0
 1272 1420 1638 1261 1638 1001 c 0
 1638 710 1090 661 692 553 c 0
 463 491 260 336 205 106 c 1
 276 285 497 424 798 424 c 0
 1115 424 1230 240 1491 240 c 0
 1629 240 1678 312 1688 456 c 1
 1708 456 l 1
 1708 158 1591 -50 1221 -50 c 0
 758 -50 737 224 448 224 c 0
 326 224 210 160 200 -20 c 1
 160 -20 l 1
1146 159 m 1
 1149 157 1153 156 1156 154 c 1
 991 -11 l 1
 987 -10 984 -8 980 -7 c 1
 1146 159 l 1
1090 193 m 1
 1093 191 1096 189 1099 187 c 1
 925 13 l 1
 929 12 932 10 936 9 c 1
 1108 181 l 1
 1092 190 1078 201 1063 211 c 1
 884 32 l 1
 894 27 903 22 914 17 c 1
 1090 193 l 1
1072 205 m 1
 1075 203 1078 201 1081 199 c 1
 904 22 l 1
 901 24 897 25 894 27 c 1
 1072 205 l 1
925 298 m 1
 928 296 931 294 934 292 c 1
 754 112 l 1
 763 106 772 100 781 94 c 1
 963 276 l 1
 960 278 957 280 954 282 c 1
 772 100 l 1
 769 102 766 104 763 106 c 1
 944 287 l 1
 934 292 925 298 915 303 c 1
 737 125 l 1
 740 123 742 120 745 118 c 1
 925 298 l 1
940 643 m 1
 945 648 l 1
 939 645 934 642 928 639 c 1
 932 640 936 642 940 643 c 1
583 346 m 1
 589 347 595 348 601 349 c 1
 485 233 l 1
 490 233 494 232 498 231 c 1
 618 351 l 1
 586 348 556 342 527 335 c 1
 425 233 l 1
 430 233 436 234 441 234 c 1
 547 340 l 1
 553 341 559 342 565 343 c 1
 456 234 l 1
 461 234 465 233 470 233 c 1
 583 346 l 1
1171 934 m 1
 1421 1184 l 1
 1419 1187 1416 1189 1414 1192 c 1
 1173 951 l 1
 1172 945 1172 940 1171 934 c 1
1175 1088 m 1
 1345 1258 l 1
 1342 1260 1340 1263 1337 1265 c 1
 1174 1102 l 1
 1175 1098 1175 1093 1175 1088 c 1
1127 1250 m 1
 1209 1332 l 1
 1205 1333 1202 1335 1198 1336 c 1
 1121 1259 l 1
 1127 1250 1133 1241 1138 1231 c 1
 1230 1323 l 1
 1226 1324 1223 1326 1219 1327 c 1
 1133 1241 l 1
 1131 1244 1129 1247 1127 1250 c 1
1102 1285 m 1
 1164 1347 l 1
 1168 1346 1171 1344 1175 1343 c 1
 1109 1277 l 1
 1111 1274 1113 1271 1115 1268 c 1
 1187 1340 l 1
 1176 1344 1164 1348 1153 1351 c 1
 1095 1293 l 1
 1097 1290 1100 1288 1102 1285 c 1
1055 1328 m 1
 1093 1366 l 1
 1089 1367 1085 1368 1081 1369 c 1
 1047 1335 l 1
 1050 1333 1052 1330 1055 1328 c 1
1019 1352 m 1
 1043 1376 l 1
 1039 1377 1034 1377 1030 1378 c 1
 1009 1357 l 1
 1012 1355 1016 1354 1019 1352 c 1
978 1371 m 1
 990 1383 l 1
 985 1384 981 1384 976 1384 c 1
 967 1375 l 1
 971 1374 974 1372 978 1371 c 1
956 1379 m 1
 963 1386 l 1
 958 1386 954 1387 949 1387 c 1
 945 1383 l 1
 941 1384 937 1385 933 1386 c 1
 935 1388 l 1
 933 1388 930 1388 928 1388 c 1
 938 1385 947 1382 956 1379 c 1
373 886 m 1
 549 1062 l 1
 549 1067 548 1071 547 1075 c 1
 359 887 l 1
 364 887 368 886 373 886 c 1
320 893 m 1
 538 1111 l 1
 537 1115 536 1119 534 1122 c 1
 308 896 l 1
 312 895 316 894 320 893 c 1
296 899 m 1
 529 1132 l 1
 527 1135 525 1138 523 1141 c 1
 285 903 l 1
 289 902 292 900 296 899 c 1
237 930 m 1
 482 1175 l 1
 485 1173 489 1172 492 1170 c 1
 246 924 l 1
 255 917 264 912 274 907 c 1
 516 1149 l 1
 514 1152 511 1154 508 1156 c 1
 264 912 l 1
 261 914 258 916 255 918 c 1
 500 1163 l 1
 491 1170 482 1176 472 1180 c 1
 229 937 l 1
 232 934 234 932 237 930 c 1
222 945 m 1
 461 1184 l 1
 457 1185 454 1187 450 1188 c 1
 216 954 l 1
 218 951 220 948 222 945 c 1
189 1062 m 1
 318 1191 l 1
 321 1189 325 1188 329 1187 c 1
 189 1047 l 1
 189 1042 190 1038 190 1033 c 1
 344 1187 l 1
 329 1186 316 1189 311 1199 c 1
 191 1079 l 1
 192 1085 192 1090 193 1096 c 1
 308 1211 l 1
 308 1216 308 1221 309 1227 c 1
 198 1116 l 1
 200 1124 203 1132 206 1139 c 1
 313 1246 l 1
 315 1254 317 1262 320 1268 c 1
 221 1169 l 1
 204 1139 191 1104 189 1062 c 1
1602 103 m 1
 1586 84 1569 68 1550 53 c 1
 1569 68 1586 84 1602 103 c 1
1505 23 m 1
 1560 54 1608 102 1639 157 c 1
 1505 23 l 1
1429 -10 m 1
 1445 -5 1460 1 1475 8 c 1
 1654 187 l 1
 1658 195 1662 204 1665 213 c 1
 1449 -3 l 1
 1442 -6 1436 -8 1429 -10 c 1
1426 -11 m 1
 1606 169 l 1
 1593 159 1578 149 1563 141 c 1
 1404 -18 l 1
 1411 -16 1419 -13 1426 -11 c 1
1650 213 m 1
 1663 226 1672 234 1678 256 c 1
 1675 253 l 1
 1668 239 1660 226 1650 213 c 1
1648 211 m 1
 1649 212 1649 212 1650 213 c 1
 1649 212 1649 212 1648 211 c 1
1678 257 m 1
 1678 259 1680 260 1680 262 c 1
 1680 260 1678 259 1678 257 c 1
1677 256 m 2
 1678 259 1679 261 1680 264 c 2
 1677 256 l 2
1362 -27 m 1
 1369 -26 1377 -25 1384 -23 c 1
 1534 127 l 1
 1526 124 1519 122 1511 119 c 1
 1365 -27 l 2
 1364 -27 1363 -27 1362 -27 c 1
1347 -30 m 1
 1489 112 l 1
 1483 110 1477 109 1470 108 c 1
 1329 -33 l 1
 1335 -32 1341 -31 1347 -30 c 1
1312 -35 m 1
 1451 104 l 1
 1445 103 1440 103 1434 102 c 1
 1295 -37 l 1
 1301 -36 1306 -36 1312 -35 c 1
1279 -38 m 1
 1418 101 l 1
 1413 101 1407 100 1402 100 c 1
 1263 -39 l 1
 1268 -39 1274 -38 1279 -38 c 1
1247 -40 m 1
 1387 100 l 1
 1382 100 1377 100 1372 100 c 1
 1232 -40 l 1
 1237 -40 1242 -40 1247 -40 c 1
1217 -40 m 1
 1358 101 l 1
 1353 101 1349 102 1344 102 c 1
 1202 -40 l 1
 1207 -40 1212 -40 1217 -40 c 1
1217 -40 m 1
 1218 -40 1220 -40 1221 -40 c 1
 1220 -40 1218 -40 1217 -40 c 1
1221 -40 m 1
 1224 -40 1226 -40 1229 -40 c 1
 1226 -40 1224 -40 1221 -40 c 1
1173 -39 m 1
 1178 -39 1183 -39 1188 -39 c 1
 1330 103 l 1
 1325 103 1321 104 1317 105 c 1
 1173 -39 l 1
1159 -38 m 1
 1304 107 l 1
 1300 108 1295 108 1291 109 c 1
 1145 -37 l 1
 1150 -37 1154 -38 1159 -38 c 1
1170 -39 m 1
 1167 -39 1163 -38 1160 -38 c 1
 1163 -38 1167 -39 1170 -39 c 1
1117 -35 m 1
 1121 -35 1126 -36 1131 -36 c 1
 1278 111 l 1
 1274 112 1270 113 1266 114 c 1
 1117 -35 l 1
1104 -33 m 1
 1254 117 l 1
 1250 118 1246 119 1242 120 c 1
 1091 -31 l 1
 1095 -32 1100 -32 1104 -33 c 1
1065 -27 m 1
 1069 -28 1073 -29 1077 -30 c 1
 1231 124 l 1
 1227 125 1223 126 1219 127 c 1
 1065 -27 l 1
1052 -25 m 1
 1208 131 l 1
 1204 132 1202 135 1198 136 c 1
 1039 -23 l 1
 1043 -24 1048 -24 1052 -25 c 1
1027 -20 m 1
 1187 140 l 1
 1183 141 1180 143 1177 145 c 1
 1015 -17 l 1
 1019 -18 1023 -19 1027 -20 c 1
1038 -22 m 1
 1037 -22 1036 -21 1035 -21 c 1
 1036 -21 1037 -22 1038 -22 c 1
1195 137 m 1
 1194 137 1193 138 1192 138 c 1
 1193 138 1194 137 1195 137 c 1
1003 -14 m 1
 1166 149 l 1
 1156 154 1147 160 1137 165 c 1
 969 -3 l 1
 980 -7 991 -11 1003 -14 c 1
1172 147 m 1
 1171 147 1171 148 1170 148 c 1
 1171 148 1171 147 1172 147 c 1
957 0 m 1
 1127 170 l 1
 1124 172 1121 174 1118 176 c 1
 946 4 l 1
 950 3 953 1 957 0 c 1
941 6 m 1
 940 7 938 7 937 8 c 1
 938 7 940 7 941 6 c 1
1054 217 m 1
 1051 219 1048 221 1045 223 c 1
 864 42 l 1
 867 40 871 39 874 37 c 1
 1054 217 l 1
1036 229 m 1
 1033 231 1030 233 1027 235 c 1
 845 53 l 1
 848 51 851 49 854 47 c 1
 1036 229 l 1
835 58 m 1
 1018 241 l 1
 1015 243 1012 245 1009 247 c 1
 826 64 l 1
 829 62 832 60 835 58 c 1
1024 237 m 1
 1023 238 1021 238 1020 239 c 1
 1021 238 1023 238 1024 237 c 1
817 70 m 1
 1000 253 l 1
 997 255 994 257 991 259 c 1
 808 76 l 1
 811 74 814 72 817 70 c 1
825 65 m 1
 823 66 821 67 819 68 c 1
 821 67 823 66 825 65 c 1
799 82 m 1
 982 265 l 1
 979 267 975 268 972 270 c 1
 790 88 l 1
 793 86 796 84 799 82 c 1
728 131 m 1
 905 308 l 1
 902 310 897 310 894 312 c 1
 719 137 l 1
 722 135 725 133 728 131 c 1
710 143 m 1
 884 317 l 1
 880 318 877 320 873 321 c 1
 701 149 l 1
 704 147 707 145 710 143 c 1
1356 789 m 1
 1442 875 l 1
 1448 885 1453 895 1458 906 c 1
 1319 767 l 1
 1332 774 1344 781 1356 789 c 1
1366 796 m 1
 1397 818 1422 843 1441 874 c 1
 1422 843 1397 818 1366 796 c 1
862 325 m 1
 858 326 855 328 851 329 c 1
 683 161 l 1
 686 159 689 157 692 155 c 1
 862 325 l 1
1289 752 m 1
 1467 930 l 1
 1469 937 1471 943 1472 950 c 1
 1262 740 l 1
 1271 744 1280 748 1289 752 c 1
1459 909 m 1
 1461 913 1462 918 1464 922 c 1
 1462 918 1461 913 1459 909 c 1
840 333 m 1
 836 334 832 335 828 336 c 1
 664 172 l 1
 667 170 671 169 674 167 c 1
 840 333 l 1
849 330 m 1
 847 331 844 331 842 332 c 1
 844 331 847 331 849 330 c 1
1238 731 m 1
 1475 968 l 1
 1476 974 1477 979 1477 985 c 1
 1214 722 l 1
 1222 725 1230 728 1238 731 c 1
1244 733 m 1
 1250 735 1255 738 1260 740 c 1
 1255 738 1250 735 1244 733 c 1
816 339 m 1
 812 340 808 341 804 342 c 1
 645 183 l 1
 648 181 652 180 655 178 c 1
 816 339 l 1
1191 714 m 1
 1478 1001 l 1
 1478 1004 1478 1007 1478 1010 c 0
 1478 1012 1478 1014 1478 1016 c 1
 1169 707 l 1
 1162 705 1155 703 1148 701 c 1
 1477 1030 l 1
 1477 1035 1477 1039 1476 1044 c 1
 1127 695 l 1
 1149 701 1170 707 1191 714 c 1
636 189 m 1
 792 345 l 1
 788 346 783 346 779 347 c 1
 626 194 l 1
 629 192 633 191 636 189 c 1
601 205 m 1
 606 203 610 200 615 198 c 1
 766 349 l 1
 762 350 756 349 752 350 c 1
 605 203 l 1
 604 204 602 204 601 205 c 1
1474 1057 m 1
 1473 1061 1473 1066 1472 1070 c 1
 1085 683 l 1
 1092 685 1099 687 1106 689 c 1
 1474 1057 l 1
584 212 m 1
 588 211 590 208 594 207 c 1
 739 352 l 1
 734 352 730 353 725 353 c 1
 584 212 l 1
1044 672 m 1
 1051 674 1057 675 1064 677 c 1
 1469 1082 l 1
 1468 1086 1467 1090 1466 1094 c 1
 1044 672 l 1
711 354 m 1
 706 354 701 354 696 354 c 1
 561 219 l 1
 565 218 568 216 572 215 c 1
 711 354 l 1
584 212 m 1
 584 212 l 2
 584 212 l 1
1003 661 m 1
 1010 663 1016 664 1023 666 c 1
 1463 1106 l 1
 1462 1110 1460 1113 1459 1117 c 1
 1003 661 l 1
1463 1103 m 1
 1464 1101 1464 1100 1465 1098 c 1
 1464 1100 1464 1101 1463 1103 c 1
549 222 m 1
 681 354 l 1
 676 354 671 354 666 354 c 1
 537 225 l 1
 541 224 545 223 549 222 c 1
681 354 m 1
 683 354 686 354 688 354 c 1
 686 354 683 354 681 354 c 1
1454 1127 m 1
 1452 1130 1451 1134 1449 1137 c 1
 1135 823 l 1
 1128 809 1120 796 1111 784 c 1
 1454 1127 l 1
1028 701 m 1
 1013 690 999 680 982 670 c 1
 961 649 l 1
 993 658 1007 680 1028 701 c 1
524 227 m 1
 650 353 l 1
 645 353 639 352 634 352 c 1
 511 229 l 1
 515 228 520 228 524 227 c 1
1137 827 m 1
 1139 831 1141 836 1143 840 c 1
 1141 836 1139 831 1137 827 c 1
1444 1147 m 1
 1442 1150 1441 1154 1439 1157 c 1
 1156 874 l 1
 1158 881 1161 889 1163 896 c 1
 1433 1166 l 1
 1431 1169 1429 1172 1427 1175 c 1
 1167 915 l 1
 1162 892 1156 871 1148 851 c 1
 1444 1147 l 1
622 351 m 1
 625 351 627 352 630 352 c 1
 627 352 625 351 622 351 c 1
1177 985 m 1
 1177 979 1176 973 1175 968 c 1
 1408 1201 l 1
 1406 1204 1403 1206 1401 1209 c 1
 1177 985 l 1
409 232 m 1
 506 329 l 1
 498 327 491 325 484 322 c 1
 391 229 l 1
 397 230 403 231 409 232 c 1
1393 1216 m 1
 1391 1219 1389 1222 1386 1224 c 1
 1178 1016 l 1
 1178 1011 1177 1005 1177 1000 c 1
 1393 1216 l 1
373 226 m 1
 460 313 l 1
 406 291 386 233 331 214 c 1
 399 282 l 1
 381 271 364 259 348 246 c 1
 307 205 l 1
 331 214 353 221 373 226 c 1
374 226 m 1
 378 227 382 228 386 229 c 1
 382 228 378 227 374 226 c 1
465 315 m 1
 471 317 477 320 483 322 c 1
 477 320 471 317 465 315 c 1
1378 1231 m 1
 1375 1233 1373 1236 1370 1238 c 1
 1178 1046 l 1
 1178 1041 1178 1036 1178 1031 c 1
 1378 1231 l 1
430 299 m 1
 431 299 431 300 432 300 c 1
 431 300 431 299 430 299 c 1
1362 1245 m 1
 1359 1247 1357 1250 1354 1252 c 1
 1177 1075 l 1
 1177 1070 1177 1065 1177 1060 c 1
 1362 1245 l 1
345 244 m 1
 330 232 317 218 304 204 c 1
 317 218 330 232 345 244 c 1
306 205 m 1
 305 205 305 204 304 204 c 1
 305 204 305 205 306 205 c 1
1173 1112 m 1
 1173 1110 1174 1107 1174 1105 c 1
 1174 1107 1173 1110 1173 1112 c 1
1328 1271 m 1
 1325 1273 1322 1275 1319 1277 c 1
 1170 1128 l 1
 1169 1132 1169 1137 1168 1141 c 1
 1310 1283 l 1
 1301 1289 1291 1294 1281 1299 c 1
 1159 1177 l 1
 1160 1173 1161 1169 1162 1165 c 1
 1291 1294 l 1
 1294 1292 1297 1290 1300 1288 c 1
 1165 1153 l 1
 1168 1141 1170 1128 1172 1115 c 1
 1328 1271 l 1
1271 1304 m 1
 1268 1306 1264 1307 1261 1309 c 1
 1151 1199 l 1
 1152 1195 1154 1192 1155 1188 c 1
 1271 1304 l 1
1251 1314 m 1
 1248 1316 1244 1317 1241 1319 c 1
 1143 1221 l 1
 1145 1218 1146 1214 1147 1210 c 1
 1251 1314 l 1
1115 1268 m 1
 1116 1267 1117 1265 1118 1264 c 1
 1117 1265 1116 1267 1115 1268 c 1
1141 1354 m 1
 1137 1355 1133 1356 1129 1357 c 1
 1080 1308 l 1
 1083 1306 1086 1304 1088 1301 c 1
 1141 1354 l 1
1117 1360 m 1
 1113 1361 1109 1362 1105 1363 c 1
 1064 1322 l 1
 1067 1320 1069 1317 1072 1315 c 1
 1117 1360 l 1
1068 1371 m 1
 1064 1372 1059 1372 1055 1373 c 1
 1028 1346 l 1
 1031 1344 1035 1343 1038 1341 c 1
 1068 1371 l 1
984 1369 m 1
 989 1367 994 1364 999 1362 c 1
 1017 1380 l 1
 1013 1381 1007 1380 1003 1381 c 1
 989 1367 l 1
 987 1368 986 1368 984 1369 c 1
542 995 m 1
 544 1001 545 1007 546 1014 c 1
 420 888 l 1
 475 895 514 926 534 972 c 1
 460 898 l 1
 453 895 446 893 438 891 c 1
 542 995 l 1
538 982 m 1
 539 986 541 989 542 993 c 1
 541 989 539 986 538 982 c 1
403 886 m 1
 548 1031 l 1
 548 1036 549 1042 549 1047 c 1
 388 886 l 1
 390 886 393 886 395 886 c 0
 398 886 400 886 403 886 c 1
411 887 m 1
 414 887 416 888 419 888 c 1
 416 888 414 887 411 887 c 1
547 1017 m 1
 548 1021 548 1026 548 1030 c 1
 548 1026 548 1021 547 1017 c 1
545 1088 m 1
 544 1092 543 1096 542 1100 c 1
 333 891 l 1
 337 890 342 890 346 889 c 1
 545 1088 l 1
438 1191 m 1
 434 1192 429 1192 425 1193 c 1
 205 973 l 1
 207 970 208 966 210 963 c 1
 438 1191 l 1
411 1194 m 1
 408 1194 406 1194 403 1194 c 0
 401 1194 399 1194 396 1194 c 1
 196 994 l 1
 197 990 199 987 200 983 c 1
 411 1194 l 1
378 1191 m 1
 372 1190 366 1189 360 1188 c 1
 191 1019 l 1
 192 1015 192 1010 193 1006 c 1
 378 1191 l 1
309 1228 m 1
 310 1233 311 1238 312 1243 c 1
 311 1238 310 1233 309 1228 c 1
EndSplineSet
EndChar

StartChar: four
Encoding: 52 52 34
GlifName: four
Width: 1665
VWidth: 2308
Flags: HMW
LayerCount: 2
Fore
SplineSet
143 596 m 1
 90 553 l 1
 90 543 l 1
 143 596 l 1
206 629 m 1
 206 644 l 1
 90 528 l 1
 90 513 l 1
 206 629 l 1
206 599 m 1
 206 614 l 1
 90 498 l 1
 90 483 l 1
 206 599 l 1
206 569 m 1
 206 584 l 1
 90 468 l 1
 90 453 l 1
 206 569 l 1
115 448 m 1
 206 539 l 1
 206 554 l 1
 100 448 l 1
 115 448 l 1
145 448 m 1
 206 509 l 1
 206 524 l 1
 130 448 l 1
 145 448 l 1
942 1245 m 1
 849 1167 l 1
 824 1142 l 1
 824 1127 l 1
 942 1245 l 1
175 448 m 1
 206 479 l 1
 206 494 l 1
 160 448 l 1
 175 448 l 1
1066 1339 m 1
 1066 1349 l 1
 981 1275 905 1190 824 1112 c 1
 824 1097 l 1
 1066 1339 l 1
205 448 m 1
 206 449 l 1
 206 464 l 1
 190 448 l 1
 205 448 l 1
1066 1309 m 1
 1066 1324 l 1
 824 1082 l 1
 824 1067 l 1
 1066 1309 l 1
1066 1279 m 1
 1066 1294 l 1
 824 1052 l 1
 824 1037 l 1
 1066 1279 l 1
824 1007 m 1
 1066 1249 l 1
 1066 1264 l 1
 824 1022 l 1
 824 1007 l 1
1066 1219 m 1
 1066 1234 l 1
 824 992 l 1
 824 977 l 1
 1066 1219 l 1
1066 1189 m 1
 1066 1204 l 1
 824 962 l 1
 824 947 l 1
 1066 1189 l 1
1066 1159 m 1
 1066 1174 l 1
 824 932 l 1
 824 917 l 1
 1066 1159 l 1
1066 1129 m 1
 1066 1144 l 1
 824 902 l 1
 824 887 l 1
 1066 1129 l 1
1066 1099 m 1
 1066 1114 l 1
 824 872 l 1
 824 857 l 1
 1066 1099 l 1
1066 1069 m 1
 1066 1084 l 1
 824 842 l 1
 824 827 l 1
 1066 1069 l 1
824 797 m 1
 1066 1039 l 1
 1066 1054 l 1
 824 812 l 1
 824 797 l 1
1066 1009 m 1
 1066 1024 l 1
 824 782 l 1
 824 767 l 1
 1066 1009 l 1
1066 979 m 1
 1066 994 l 1
 824 752 l 1
 824 737 l 1
 1066 979 l 1
1066 949 m 1
 1066 964 l 1
 824 722 l 1
 824 707 l 1
 1066 949 l 1
1066 919 m 1
 1066 934 l 1
 824 692 l 1
 824 677 l 1
 1066 919 l 1
1066 889 m 1
 1066 904 l 1
 824 662 l 1
 824 647 l 1
 1066 889 l 1
1066 859 m 1
 1066 874 l 1
 824 632 l 1
 824 617 l 1
 1066 859 l 1
1066 829 m 1
 1066 844 l 1
 824 602 l 1
 824 587 l 1
 1066 829 l 1
1066 799 m 1
 1066 814 l 1
 824 572 l 1
 824 557 l 1
 1066 799 l 1
1066 769 m 1
 1066 784 l 1
 824 542 l 1
 824 527 l 1
 1066 769 l 1
1066 739 m 1
 1066 754 l 1
 824 512 l 1
 824 497 l 1
 1066 739 l 1
1066 709 m 1
 1066 724 l 1
 824 482 l 1
 824 467 l 1
 1066 709 l 1
1066 679 m 1
 1066 694 l 1
 824 452 l 1
 824 437 l 1
 1066 679 l 1
1066 649 m 1
 1066 664 l 1
 824 422 l 1
 824 407 l 1
 1066 649 l 1
1066 619 m 1
 1066 634 l 1
 824 392 l 1
 824 377 l 1
 1066 619 l 1
1066 589 m 1
 1066 604 l 1
 824 362 l 1
 824 347 l 1
 1066 589 l 1
1066 559 m 1
 1066 574 l 1
 824 332 l 1
 824 317 l 1
 1066 559 l 1
547 10 m 1
 556 19 l 1
 550 18 545 18 539 17 c 1
 532 10 l 1
 547 10 l 1
1066 529 m 1
 1066 544 l 1
 824 302 l 1
 824 287 l 1
 1066 529 l 1
577 10 m 1
 593 26 l 1
 587 25 581 24 575 23 c 1
 562 10 l 1
 577 10 l 1
1066 499 m 1
 1066 514 l 1
 824 272 l 1
 824 257 l 1
 1066 499 l 1
607 10 m 1
 634 37 l 1
 627 35 620 33 613 31 c 1
 592 10 l 1
 607 10 l 1
1066 469 m 1
 1066 484 l 1
 824 242 l 1
 824 227 l 1
 1066 469 l 1
637 10 m 1
 679 52 l 1
 671 49 664 47 656 44 c 1
 622 10 l 1
 637 10 l 1
1066 439 m 1
 1066 454 l 1
 824 212 l 1
 824 197 l 1
 1066 439 l 1
667 10 m 1
 729 72 l 1
 721 69 713 66 704 62 c 1
 652 10 l 1
 667 10 l 1
1066 409 m 1
 1066 424 l 1
 824 182 l 1
 824 175 l 2
 824 172 824 170 824 167 c 1
 1066 409 l 1
1066 379 m 1
 1066 394 l 1
 822 150 l 1
 820 140 815 130 809 122 c 1
 1066 379 l 1
697 10 m 1
 793 106 l 1
 783 98 772 92 757 85 c 1
 682 10 l 1
 697 10 l 1
727 10 m 1
 1066 349 l 1
 1066 364 l 1
 712 10 l 1
 727 10 l 1
757 10 m 1
 1066 319 l 1
 1066 334 l 1
 742 10 l 1
 757 10 l 1
787 10 m 1
 1066 289 l 1
 1066 304 l 1
 772 10 l 1
 787 10 l 1
817 10 m 1
 1066 259 l 1
 1066 274 l 1
 802 10 l 1
 817 10 l 1
847 10 m 1
 1066 229 l 1
 1066 244 l 1
 832 10 l 1
 847 10 l 1
877 10 m 1
 1066 199 l 1
 1066 214 l 1
 862 10 l 1
 877 10 l 1
907 10 m 1
 1066 169 l 1
 1066 171 1066 173 1066 175 c 2
 1066 184 l 1
 892 10 l 1
 907 10 l 1
937 10 m 1
 1071 144 l 1
 1070 148 1069 152 1068 156 c 1
 922 10 l 1
 937 10 l 1
967 10 m 1
 1080 123 l 1
 1078 126 1077 130 1075 133 c 1
 952 10 l 1
 967 10 l 1
997 10 m 1
 1094 107 l 1
 1091 109 1089 112 1087 115 c 1
 982 10 l 1
 997 10 l 1
1027 10 m 1
 1111 94 l 1
 1108 96 1105 98 1102 100 c 1
 1012 10 l 1
 1027 10 l 1
1057 10 m 1
 1129 82 l 1
 1126 84 1123 86 1120 88 c 1
 1042 10 l 1
 1057 10 l 1
1087 10 m 1
 1149 72 l 1
 1146 74 1142 75 1139 77 c 1
 1072 10 l 1
 1087 10 l 1
1117 10 m 1
 1170 63 l 1
 1166 64 1163 67 1160 68 c 1
 1102 10 l 1
 1117 10 l 1
1192 55 m 1
 1188 56 1185 58 1181 59 c 1
 1132 10 l 1
 1147 10 l 1
 1192 55 l 1
1177 10 m 1
 1213 46 l 1
 1209 47 1206 49 1202 50 c 1
 1162 10 l 1
 1177 10 l 1
1207 10 m 1
 1235 38 l 1
 1231 39 1228 41 1224 42 c 1
 1192 10 l 1
 1207 10 l 1
1237 10 m 1
 1258 31 l 1
 1254 32 1251 34 1247 35 c 1
 1222 10 l 1
 1237 10 l 1
1267 10 m 1
 1280 23 l 1
 1276 24 1273 26 1269 27 c 1
 1252 10 l 1
 1267 10 l 1
1297 10 m 1
 1303 16 l 1
 1299 17 1295 18 1291 19 c 1
 1282 10 l 1
 1297 10 l 1
1420 433 m 1
 1460 422 1477 418 1515 336 c 1
 1515 531 l 1
 1471 439 1450 438 1420 433 c 1
510 13 m 1
 510 10 l 1
 517 10 l 1
 521 14 l 1
 517 14 514 13 510 13 c 1
814 448 m 1
 814 1138 l 1
 286 708 l 1
 286 448 l 1
 814 448 l 1
1540 20 m 1
 1540 0 l 1
 490 0 l 1
 490 20 l 1
 571 29 621 39 686 65 c 0
 786 104 814 120 814 175 c 2
 814 418 l 1
 80 418 l 1
 80 576 l 1
 1216 1500 l 1
 1216 448 l 1
 1420 448 l 2
 1456 448 1477 467 1500 516 c 0
 1526 571 1538 591 1545 622 c 1
 1565 622 l 1
 1565 244 l 1
 1545 244 l 1
 1538 275 1526 295 1500 350 c 0
 1477 399 1456 418 1420 418 c 2
 1216 418 l 1
 1216 175 l 2
 1216 120 1244 104 1344 65 c 0
 1409 39 1459 29 1540 20 c 1
EndSplineSet
EndChar

StartChar: slash
Encoding: 47 47 35
GlifName: slash
Width: 1330
VWidth: 0
Flags: HMW
LayerCount: 2
Fore
SplineSet
1220 1400 m 257
 150 0 l 261
 110 0 l 257
 1180 1400 l 257
 1220 1400 l 257
EndSplineSet
EndChar

StartChar: backslash
Encoding: 92 92 36
GlifName: backslash
Width: 1330
VWidth: 0
Flags: HMW
LayerCount: 2
Fore
SplineSet
110 1400 m 1
 150 1400 l 1
 1220 0 l 1
 1180 0 l 1
 110 1400 l 1
EndSplineSet
EndChar

StartChar: eight
Encoding: 56 56 37
GlifName: eight
Width: 1863
Flags: HMW
LayerCount: 2
Fore
SplineSet
950 2 m 0
 1222 2 1465 72 1465 220 c 0
 1465 334 1315 380 885 485 c 0
 736 521 614 554 517 588 c 1
 401 542 320 466 320 352 c 0
 320 104 640 2 950 2 c 0
1272 837 m 1
 1374 876 1444 946 1444 1070 c 0
 1444 1298 1234 1390 914 1390 c 0
 582 1390 445 1308 445 1210 c 0
 445 1108 549 983 1001 900 c 0
 1105 881 1195 860 1272 837 c 1
914 1420 m 0
 1256 1420 1584 1290 1584 1070 c 0
 1584 949 1482 867 1332 818 c 1
 1609 724 1693 598 1693 430 c 0
 1693 110 1362 -28 950 -28 c 0
 568 -28 170 82 170 352 c 0
 170 469 286 559 451 613 c 1
 252 695 175 796 175 990 c 0
 175 1270 482 1420 914 1420 c 0
1639 442 m 1
 1640 438 1642 435 1643 431 c 1
 1470 258 l 1
 1471 254 1472 250 1473 246 c 1
 1646 419 l 1
 1641 438 1634 456 1624 472 c 1
 1448 296 l 1
 1450 293 1452 290 1454 287 c 1
 1630 463 l 1
 1632 460 1633 456 1635 453 c 1
 1460 278 l 1
 1462 275 1463 271 1465 268 c 1
 1639 442 l 1
1521 564 m 1
 1524 562 1527 560 1530 558 c 1
 1338 366 l 1
 1342 365 1345 362 1348 361 c 1
 1540 553 l 1
 1531 559 1521 564 1511 569 c 1
 1316 374 l 1
 1320 373 1323 371 1327 370 c 1
 1521 564 l 1
1351 634 m 1
 1355 633 1358 631 1362 630 c 1
 1156 424 l 1
 1160 423 1164 422 1168 421 c 1
 1373 626 l 1
 1362 630 1351 633 1339 637 c 1
 1133 431 l 1
 1137 430 1140 428 1144 427 c 1
 1351 634 l 1
1118 701 m 1
 1122 700 1126 699 1130 698 c 1
 918 486 l 1
 922 485 926 484 930 483 c 1
 1142 695 l 1
 1130 698 1118 701 1106 704 c 1
 895 493 l 1
 899 492 902 490 906 489 c 1
 1118 701 l 1
1071 714 m 1
 1075 713 1079 712 1083 711 c 1
 871 499 l 1
 875 498 879 497 883 496 c 1
 1094 707 l 1
 1067 714 1041 722 1012 730 c 1
 799 517 l 1
 803 516 807 515 811 514 c 1
 1024 727 l 1
 1028 726 1031 724 1035 723 c 1
 823 511 l 1
 835 508 847 505 859 502 c 1
 1071 714 l 1
1047 720 m 1
 1051 719 1055 718 1059 717 c 1
 847 505 l 1
 843 506 839 507 835 508 c 1
 1047 720 l 1
698 821 m 1
 702 820 706 819 710 818 c 1
 498 606 l 1
 502 605 505 603 509 602 c 1
 721 814 l 1
 709 818 698 821 687 825 c 1
 477 615 l 1
 481 614 483 611 487 610 c 1
 698 821 l 1
654 837 m 1
 658 836 661 834 665 833 c 1
 455 623 l 1
 459 622 462 620 466 619 c 1
 676 829 l 1
 665 833 654 837 643 841 c 1
 434 632 l 1
 437 630 440 628 444 627 c 1
 654 837 l 1
547 880 m 1
 550 878 554 877 557 875 c 1
 355 673 l 1
 352 675 348 676 345 678 c 1
 547 880 l 1
366 1209 m 1
 362 1201 360 1193 357 1185 c 1
 186 1014 l 1
 186 1009 185 1003 185 998 c 1
 351 1164 l 1
 357 1191 368 1218 386 1244 c 1
 190 1048 l 1
 189 1042 188 1036 187 1030 c 1
 366 1209 l 1
1449 87 m 1
 1460 92 1470 97 1480 103 c 1
 1629 252 l 1
 1633 260 1636 268 1639 277 c 1
 1449 87 l 1
1498 114 m 1
 1506 119 1514 124 1521 129 c 1
 1514 124 1506 119 1498 114 c 1
1521 129 m 1
 1556 154 1586 183 1609 217 c 1
 1580 188 1550 158 1521 129 c 1
1397 65 m 1
 1405 68 1414 72 1422 75 c 1
 1646 299 l 1
 1648 305 1649 312 1650 318 c 1
 1397 65 l 1
1341 48 m 1
 1352 51 1364 54 1375 58 c 1
 1652 335 l 1
 1653 340 1653 346 1653 351 c 1
 1465 163 l 1
 1449 128 1417 97 1375 73 c 1
 1353 51 l 1
 1349 50 1345 49 1341 48 c 1
1300 39 m 1
 1311 41 1322 43 1333 46 c 1
 1344 57 l 1
 1336 53 1327 50 1318 46 c 1
 1314 42 l 1
 1309 41 1305 40 1300 39 c 1
1653 366 m 1
 1653 371 1652 375 1652 380 c 1
 1475 203 l 1
 1474 197 1474 192 1473 186 c 1
 1653 366 l 1
1653 366 m 1
 1653 364 1653 362 1653 360 c 1
 1653 362 1653 364 1653 366 c 1
1651 394 m 1
 1650 398 1650 403 1649 407 c 1
 1475 233 l 1
 1476 228 1476 224 1476 219 c 1
 1651 394 l 1
1467 265 m 1
 1468 263 1468 261 1469 259 c 1
 1468 261 1468 263 1467 265 c 1
1618 481 m 1
 1616 484 1614 487 1612 490 c 1
 1433 311 l 1
 1436 309 1439 306 1441 304 c 1
 1618 481 l 1
1425 318 m 1
 1605 498 l 1
 1603 501 1600 503 1598 506 c 1
 1416 324 l 1
 1413 326 1411 329 1408 331 c 1
 1591 514 l 1
 1588 516 1586 519 1583 521 c 1
 1398 336 l 1
 1408 330 1417 324 1425 318 c 1
1389 342 m 1
 1575 528 l 1
 1572 530 1570 533 1567 535 c 1
 1379 347 l 1
 1376 349 1372 350 1369 352 c 1
 1558 541 l 1
 1555 543 1552 545 1549 547 c 1
 1359 357 l 1
 1370 352 1380 347 1389 342 c 1
1305 378 m 1
 1501 574 l 1
 1498 576 1494 577 1491 579 c 1
 1294 382 l 1
 1298 381 1301 379 1305 378 c 1
1508 571 m 1
 1507 572 1505 572 1504 573 c 1
 1505 572 1507 572 1508 571 c 1
1481 584 m 1
 1478 586 1474 587 1471 589 c 1
 1272 390 l 1
 1276 389 1279 387 1283 386 c 1
 1481 584 l 1
1460 593 m 1
 1457 594 1454 597 1450 598 c 1
 1249 397 l 1
 1253 396 1257 395 1261 394 c 1
 1460 593 l 1
1465 591 m 1
 1463 592 l 1
 1465 591 l 1
1238 401 m 1
 1439 602 l 1
 1435 603 1432 605 1428 606 c 1
 1226 404 l 1
 1230 403 1234 402 1238 401 c 1
1247 398 m 1
 1245 399 1244 398 1242 399 c 1
 1244 398 1245 399 1247 398 c 1
1215 408 m 1
 1417 610 l 1
 1413 611 1410 613 1406 614 c 1
 1203 411 l 1
 1207 410 1211 409 1215 408 c 1
1191 414 m 1
 1395 618 l 1
 1391 619 1388 621 1384 622 c 1
 1180 418 l 1
 1184 417 1187 415 1191 414 c 1
1403 616 m 1
 1401 617 1399 617 1397 618 c 1
 1399 617 1401 617 1403 616 c 1
1380 624 m 1
 1379 624 1377 625 1376 625 c 1
 1377 625 1379 624 1380 624 c 1
1121 434 m 1
 1328 641 l 1
 1324 642 1320 643 1316 644 c 1
 1109 437 l 1
 1113 436 1117 435 1121 434 c 1
1061 449 m 1
 1073 446 1085 443 1097 440 c 1
 1305 648 l 1
 1301 649 1298 651 1294 652 c 1
 1085 443 l 1
 1081 444 1077 445 1073 446 c 1
 1282 655 l 1
 1278 656 1274 657 1270 658 c 1
 1061 449 l 1
1026 459 m 1
 1034 457 1042 455 1050 453 c 1
 1259 662 l 1
 1255 663 1251 664 1247 665 c 1
 1038 456 l 1
 1034 457 1030 458 1026 459 c 1
1026 459 m 1
 1235 668 l 1
 1231 669 1228 671 1224 672 c 1
 1014 462 l 1
 1018 461 1022 460 1026 459 c 1
1002 465 m 1
 1212 675 l 1
 1208 676 1204 677 1200 678 c 1
 990 468 l 1
 994 467 998 466 1002 465 c 1
978 471 m 1
 1189 682 l 1
 1185 683 1181 684 1177 685 c 1
 966 474 l 1
 962 475 958 476 954 477 c 1
 1165 688 l 1
 1161 689 1157 690 1153 691 c 1
 942 480 l 1
 954 477 966 474 978 471 c 1
787 520 m 1
 1000 733 l 1
 996 734 992 735 988 736 c 1
 776 524 l 1
 780 523 783 521 787 520 c 1
1011 730 m 1
 1011 730 l 1
 1011 730 l 1
764 527 m 1
 976 739 l 1
 972 740 969 742 965 743 c 1
 752 530 l 1
 756 529 760 528 764 527 c 1
773 524 m 1
 772 524 771 525 770 525 c 1
 771 525 772 524 773 524 c 1
985 737 m 1
 983 738 980 738 978 739 c 1
 980 738 983 738 985 737 c 1
740 533 m 1
 953 746 l 1
 949 747 945 748 941 749 c 1
 728 536 l 1
 732 535 736 534 740 533 c 1
716 539 m 1
 929 752 l 1
 925 753 922 755 918 756 c 1
 704 543 l 1
 708 542 712 540 716 539 c 1
693 546 m 1
 906 759 l 1
 902 760 898 761 894 762 c 1
 681 549 l 1
 685 548 689 547 693 546 c 1
696 545 m 1
 695 545 l 1
 696 545 l 1
669 552 m 1
 882 765 l 1
 878 766 875 768 871 769 c 1
 658 556 l 1
 662 555 665 553 669 552 c 1
678 550 m 1
 676 551 674 551 672 552 c 1
 674 551 676 551 678 550 c 1
646 559 m 1
 859 772 l 1
 855 773 851 774 847 775 c 1
 634 562 l 1
 638 561 642 560 646 559 c 1
655 557 m 1
 654 557 654 557 653 557 c 1
 654 557 654 557 655 557 c 1
836 779 m 1
 832 780 828 781 824 782 c 1
 611 569 l 1
 607 570 604 572 600 573 c 1
 813 786 l 1
 809 787 805 788 801 789 c 1
 588 576 l 1
 599 573 611 569 623 566 c 1
 836 779 l 1
841 777 m 1
 840 777 838 779 837 779 c 1
 838 779 840 777 841 777 c 1
790 793 m 1
 786 794 782 795 778 796 c 1
 565 583 l 1
 561 584 558 586 554 587 c 1
 767 800 l 1
 763 801 759 802 755 803 c 1
 543 591 l 1
 554 587 565 584 577 580 c 1
 790 793 l 1
775 797 m 1
 772 798 770 799 767 800 c 1
 770 799 772 798 775 797 c 1
744 807 m 1
 740 808 736 809 732 810 c 1
 520 598 l 1
 524 597 528 596 532 595 c 1
 744 807 l 1
494 608 m 1
 492 609 490 609 488 610 c 1
 490 609 492 609 494 608 c 1
413 641 m 1
 416 639 421 639 424 637 c 1
 632 845 l 1
 628 846 625 848 621 849 c 1
 413 641 l 1
403 646 m 1
 610 853 l 1
 606 854 603 856 599 857 c 1
 393 651 l 1
 390 653 386 654 383 656 c 1
 589 862 l 1
 585 863 581 865 578 866 c 1
 374 662 l 1
 384 657 393 651 403 646 c 1
568 871 m 1
 557 876 546 879 536 884 c 1
 336 684 l 1
 333 686 330 688 327 690 c 1
 526 889 l 1
 523 891 519 892 516 894 c 1
 319 697 l 1
 333 687 348 676 364 667 c 1
 568 871 l 1
302 710 m 1
 305 708 307 705 310 703 c 1
 506 899 l 1
 503 901 500 903 497 905 c 1
 302 710 l 1
271 739 m 1
 278 731 286 724 294 717 c 1
 487 910 l 1
 484 912 481 914 478 916 c 1
 286 724 l 1
 283 726 280 729 278 731 c 1
 468 921 l 1
 465 923 462 925 459 927 c 1
 271 739 l 1
473 919 m 1
 472 919 471 920 470 920 c 1
 471 920 472 919 473 919 c 1
450 933 m 1
 447 935 444 937 441 939 c 1
 257 755 l 1
 259 752 261 749 263 746 c 1
 450 933 l 1
250 763 m 1
 433 946 l 1
 430 948 428 951 425 953 c 1
 244 772 l 1
 246 769 248 766 250 763 c 1
238 781 m 1
 417 960 l 1
 414 962 412 965 409 967 c 1
 232 790 l 1
 234 787 236 784 238 781 c 1
401 974 m 1
 399 977 396 979 394 982 c 1
 221 809 l 1
 223 806 224 802 226 799 c 1
 401 974 l 1
407 968 m 1
 406 969 405 970 404 971 c 1
 405 970 406 969 407 968 c 1
216 819 m 1
 387 990 l 1
 385 993 383 996 381 999 c 1
 212 830 l 1
 211 834 209 837 208 841 c 1
 375 1008 l 1
 373 1011 371 1014 369 1017 c 1
 204 852 l 1
 208 841 211 829 216 819 c 1
219 814 m 1
 220 813 l 1
 219 814 l 1
375 1007 m 1
 376 1005 377 1004 378 1002 c 1
 377 1004 376 1005 375 1007 c 1
201 864 m 1
 364 1027 l 1
 362 1030 360 1034 359 1037 c 1
 197 875 l 1
 196 879 196 884 195 888 c 1
 355 1048 l 1
 354 1052 352 1055 351 1059 c 1
 192 900 l 1
 194 887 198 876 201 864 c 1
203 856 m 1
 203 855 l 1
 203 856 l 1
355 1046 m 1
 355 1045 356 1045 356 1044 c 1
 356 1045 355 1045 355 1046 c 1
190 913 m 1
 349 1072 l 1
 348 1076 348 1081 347 1085 c 1
 188 926 l 1
 189 922 189 917 190 913 c 1
191 909 m 1
 191 908 191 906 191 905 c 1
 191 906 191 908 191 909 c 1
187 940 m 1
 345 1098 l 1
 345 1102 345 1106 345 1110 c 0
 345 1111 345 1112 345 1113 c 2
 186 954 l 1
 186 949 187 945 187 940 c 1
346 1129 m 1
 346 1135 346 1139 347 1145 c 1
 185 983 l 1
 185 978 185 973 185 968 c 1
 346 1129 l 1
349 1153 m 1
 349 1155 349 1158 350 1160 c 1
 349 1158 349 1155 349 1153 c 1
402 1266 m 1
 419 1287 441 1307 468 1327 c 1
 441 1307 419 1287 402 1266 c 1
476 1334 m 2
 471 1329 l 2
 474 1331 478 1334 481 1336 c 1
 479 1335 478 1335 476 1334 c 2
453 1326 m 1
 444 1323 436 1320 428 1316 c 1
 199 1087 l 1
 197 1080 195 1073 193 1066 c 1
 453 1326 l 1
202 1096 m 1
 203 1100 205 1104 206 1108 c 1
 205 1104 203 1100 202 1096 c 1
400 1303 m 1
 389 1298 378 1291 367 1285 c 1
 219 1137 l 1
 214 1128 211 1119 207 1110 c 1
 400 1303 l 1
330 1261 m 1
 328 1259 325 1258 323 1256 c 1
 325 1258 328 1259 330 1261 c 1
323 1256 m 1
 292 1233 265 1207 243 1176 c 1
 270 1203 296 1229 323 1256 c 1
EndSplineSet
EndChar

StartChar: nine
Encoding: 57 57 38
GlifName: nine
Width: 1860
VWidth: 2308
Flags: HMW
LayerCount: 2
Fore
SplineSet
1270 753 m 1
 1209 629 1018 570 858 570 c 0
 566 570 150 630 150 970 c 0
 150 1290 510 1420 882 1420 c 0
 1284 1420 1720 1210 1720 730 c 0
 1720 284 1416 -20 812 -20 c 0
 443 -20 269 102 269 256 c 0
 269 400 382 466 512 466 c 0
 642 466 757 388 757 248 c 0
 757 83 589 99 589 56 c 0
 589 28 665 10 792 10 c 0
 1115 10 1264 170 1270 753 c 1
550 1000 m 0
 550 666 680 600 858 600 c 0
 1024 600 1260 664 1260 840 c 0
 1260 1284 1120 1395 882 1395 c 0
 684 1395 550 1294 550 1000 c 0
1570 523 m 1
 1568 516 1567 510 1565 503 c 1
 1110 48 l 1
 1117 50 1124 52 1131 54 c 1
 1559 482 l 1
 1565 502 1571 523 1575 543 c 1
 1068 36 l 1
 1062 34 1056 33 1049 32 c 1
 1578 561 l 1
 1579 567 1580 573 1581 579 c 1
 1171 169 l 1
 1139 117 1099 78 1052 50 c 1
 1030 28 l 1
 1050 32 1070 37 1089 42 c 1
 1570 523 l 1
1191 204 m 1
 1583 596 l 1
 1582 591 1583 587 1582 583 c 1
 1583 593 1584 603 1585 613 c 1
 1205 233 l 1
 1201 223 1196 213 1191 204 c 1
995 23 m 1
 993 21 l 1
 999 22 1005 23 1011 24 c 1
 1021 34 l 1
 1013 30 1004 26 995 23 c 1
1243 346 m 1
 1590 693 l 1
 1590 695 1590 698 1590 700 c 0
 1590 713 1589 725 1589 737 c 1
 1256 404 l 1
 1255 398 1253 391 1252 385 c 1
 1590 723 l 1
 1590 718 1590 713 1590 708 c 1
 1248 366 l 1
 1243 345 1238 325 1232 305 c 1
 1589 662 l 1
 1589 667 1590 673 1590 678 c 1
 1238 326 l 1
 1240 333 1241 339 1243 346 c 1
1545 978 m 1
 1541 989 1536 999 1532 1010 c 1
 1280 758 l 1
 1280 753 1280 748 1280 743 c 1
 1537 1000 l 1
 1538 996 1540 993 1541 989 c 1
 1280 728 l 1
 1280 723 1280 718 1280 713 c 1
 1545 978 l 1
1277 860 m 1
 1498 1081 l 1
 1496 1084 1495 1088 1493 1091 c 1
 1276 874 l 1
 1277 860 1278 846 1278 831 c 1
 1509 1062 l 1
 1507 1065 1506 1069 1504 1072 c 1
 1278 846 l 1
 1278 851 1277 855 1277 860 c 1
432 75 m 1
 434 72 437 70 439 67 c 1
 429 57 l 1
 432 55 436 54 439 52 c 1
 445 58 l 1
 437 69 431 77 426 84 c 1
 410 68 l 1
 407 70 403 71 400 73 c 1
 420 93 l 1
 418 97 416 100 415 103 c 1
 391 79 l 1
 400 73 410 67 419 62 c 1
 432 75 l 1
1272 945 m 1
 1464 1137 l 1
 1462 1140 1459 1142 1457 1145 c 1
 1271 959 l 1
 1271 954 1272 950 1272 945 c 1
364 97 m 1
 633 366 l 1
 632 370 630 373 629 377 c 1
 356 104 l 1
 353 106 351 109 348 111 c 1
 625 388 l 1
 623 391 621 394 619 397 c 1
 340 118 l 1
 348 111 356 103 364 97 c 1
1215 1218 m 1
 1295 1298 l 1
 1292 1300 1289 1302 1286 1304 c 1
 1210 1228 l 1
 1215 1218 1220 1208 1224 1197 c 1
 1313 1286 l 1
 1316 1284 1319 1282 1322 1280 c 1
 1228 1186 l 1
 1229 1182 1230 1178 1231 1174 c 1
 1331 1274 l 1
 1322 1280 1313 1286 1304 1292 c 1
 1219 1207 l 1
 1218 1211 1217 1215 1215 1218 c 1
1195 1258 m 1
 1258 1321 l 1
 1261 1319 1264 1317 1267 1315 c 1
 1200 1248 l 1
 1202 1245 1203 1241 1205 1238 c 1
 1277 1310 l 1
 1268 1316 1258 1321 1248 1326 c 1
 1189 1267 l 1
 1191 1264 1193 1261 1195 1258 c 1
523 676 m 1
 526 674 528 671 531 669 c 1
 484 622 l 1
 488 621 492 620 496 619 c 1
 539 662 l 1
 531 669 523 676 516 684 c 1
 461 629 l 1
 465 628 468 626 472 625 c 1
 523 676 l 1
1050 1383 m 1
 1056 1389 l 1
 1060 1388 1064 1387 1068 1386 c 1
 1060 1378 l 1
 1063 1376 1068 1376 1071 1374 c 1
 1081 1384 l 1
 1068 1387 1056 1389 1043 1391 c 1
 1039 1387 l 1
 1043 1386 1046 1384 1050 1383 c 1
438 801 m 1
 440 798 441 794 443 791 c 1
 334 682 l 1
 337 680 341 679 344 677 c 1
 448 781 l 1
 440 798 432 816 426 834 c 1
 297 705 l 1
 300 703 303 701 306 699 c 1
 430 823 l 1
 431 819 433 816 434 812 c 1
 315 693 l 1
 318 691 321 689 324 687 c 1
 438 801 l 1
597 1380 m 1
 603 1381 609 1382 615 1383 c 1
 566 1334 l 1
 578 1342 590 1349 603 1356 c 1
 633 1386 l 1
 614 1383 596 1380 578 1376 c 1
 160 958 l 2
 160 958 l 1
 160 953 161 949 161 944 c 1
 597 1380 l 1
162 1005 m 1
 519 1362 l 1
 526 1364 532 1365 539 1367 c 1
 160 988 l 1
 160 993 161 1000 162 1005 c 1
1483 316 m 1
 1491 328 1498 340 1505 353 c 1
 1265 113 l 1
 1278 121 1291 129 1304 137 c 1
 1483 316 l 1
1362 180 m 1
 1390 204 1417 230 1440 258 c 1
 1362 180 l 1
1442 260 m 1
 1456 278 1470 296 1482 315 c 1
 1470 296 1456 278 1442 260 c 1
1522 385 m 1
 1526 394 1530 403 1534 412 c 1
 1205 83 l 1
 1196 79 1188 76 1179 72 c 1
 1544 437 l 1
 1547 445 1549 452 1552 460 c 1
 1154 62 l 1
 1181 72 1208 83 1233 96 c 1
 1522 385 l 1
1509 360 m 1
 1511 364 1514 369 1516 373 c 1
 1514 369 1511 364 1509 360 c 1
1554 465 m 1
 1555 467 1555 469 1556 471 c 1
 1555 469 1555 467 1554 465 c 1
1210 246 m 1
 1210 247 1212 248 1212 249 c 1
 1212 248 1210 247 1210 246 c 1
1587 630 m 1
 1587 635 1588 641 1588 646 c 1
 1224 282 l 1
 1221 274 1219 267 1216 259 c 1
 1587 630 l 1
1225 283 m 1
 1227 289 1229 296 1231 302 c 1
 1229 296 1227 289 1225 283 c 1
1589 752 m 1
 1589 757 1588 761 1588 766 c 1
 1262 440 l 1
 1261 434 1260 428 1259 422 c 1
 1589 752 l 1
1587 780 m 1
 1587 785 1585 788 1585 793 c 1
 1267 475 l 1
 1266 469 1266 464 1265 458 c 1
 1587 780 l 1
1584 807 m 1
 1583 811 1583 816 1582 820 c 1
 1271 509 l 1
 1270 503 1270 498 1269 492 c 1
 1584 807 l 1
1580 833 m 1
 1579 837 1579 842 1578 846 c 1
 1274 542 l 1
 1274 536 1273 531 1273 526 c 1
 1580 833 l 1
1278 615 m 1
 1277 596 1276 576 1275 558 c 1
 1576 859 l 1
 1575 863 1575 868 1574 872 c 1
 1276 574 l 1
 1276 579 1277 585 1277 590 c 1
 1571 884 l 1
 1570 888 1569 892 1568 896 c 1
 1278 606 l 1
 1278 609 1278 612 1278 615 c 1
1565 908 m 1
 1564 912 1563 916 1562 920 c 1
 1279 637 l 1
 1279 632 1279 627 1279 622 c 1
 1565 908 l 1
1559 932 m 1
 1558 936 1557 940 1556 944 c 1
 1280 668 l 1
 1280 673 1280 678 1280 683 c 1
 1280 673 1280 663 1280 653 c 1
 1559 932 l 1
1552 955 m 1
 1551 959 1550 963 1549 967 c 1
 1280 698 l 1
 1280 693 1280 688 1280 683 c 1
 1552 955 l 1
1279 788 m 1
 1279 783 1279 777 1279 772 c 1
 1528 1021 l 1
 1526 1024 1525 1028 1523 1031 c 1
 1279 787 l 2
 1279 788 l 1
1519 1042 m 1
 1517 1045 1516 1049 1514 1052 c 1
 1279 817 l 1
 1279 812 1279 807 1279 802 c 1
 1519 1042 l 1
1509 1061 m 1
 1510 1059 1511 1057 1512 1055 c 1
 1511 1057 1510 1059 1509 1061 c 1
1487 1100 m 1
 1485 1103 1484 1107 1482 1110 c 1
 1275 903 l 1
 1275 898 1276 894 1276 889 c 1
 1487 1100 l 1
448 46 m 2
 449 46 450 45 451 45 c 2
 453 47 l 2
 452 48 452 48 451 49 c 2
 448 46 l 2
555 168 m 1
 629 242 l 1
 631 248 633 255 634 262 c 1
 537 165 l 1
 543 166 549 166 555 168 c 1
579 177 m 1
 595 185 608 197 619 217 c 1
 579 177 l 1
1273 933 m 1
 1273 928 1274 923 1274 917 c 1
 1476 1119 l 1
 1474 1122 1472 1125 1470 1128 c 1
 1273 931 l 2
 1273 932 1273 932 1273 933 c 1
637 280 m 1
 638 285 638 290 638 296 c 1
 505 163 l 1
 510 163 515 163 520 163 c 1
 637 280 l 1
635 267 m 1
 635 268 636 270 636 272 c 1
 636 270 635 268 635 267 c 1
490 163 m 1
 639 312 l 1
 639 314 639 316 639 318 c 0
 639 321 639 324 639 327 c 1
 474 162 l 1
 468 162 462 161 457 160 c 1
 638 341 l 1
 638 346 637 350 636 354 c 1
 438 156 l 1
 450 159 467 162 490 163 c 1
493 163 m 1
 496 163 500 163 503 163 c 1
 500 163 496 163 493 163 c 1
503 163 m 1
 504 163 504 163 505 163 c 1
 504 163 504 163 503 163 c 1
1270 966 m 1
 1270 964 1271 962 1271 960 c 1
 1271 962 1270 964 1270 966 c 1
1451 1154 m 1
 1449 1157 1447 1160 1445 1163 c 1
 1268 986 l 1
 1268 981 1270 978 1270 973 c 1
 1451 1154 l 1
371 92 m 1
 375 89 378 87 382 85 c 1
 411 114 l 1
 410 118 410 122 410 126 c 0
 410 127 410 127 410 128 c 2
 373 91 l 2
 372 91 372 92 371 92 c 1
1265 1013 m 1
 1266 1009 1266 1005 1267 1000 c 1
 1438 1171 l 1
 1431 1179 1424 1187 1417 1195 c 1
 1262 1040 l 1
 1263 1036 1262 1030 1263 1026 c 1
 1424 1187 l 1
 1426 1184 1429 1182 1431 1179 c 1
 1265 1013 l 1
1253 1091 m 1
 1255 1079 1258 1066 1260 1053 c 1
 1410 1203 l 1
 1408 1206 1405 1208 1403 1211 c 1
 1258 1066 l 1
 1257 1070 1256 1074 1255 1078 c 1
 1395 1218 l 1
 1392 1220 1391 1224 1388 1226 c 1
 1253 1091 l 1
325 133 m 1
 327 130 330 128 332 125 c 1
 613 406 l 1
 611 409 608 411 606 414 c 1
 325 133 l 1
1398 1215 m 1
 1399 1214 1400 1213 1401 1212 c 1
 1400 1213 1399 1214 1398 1215 c 1
312 150 m 1
 314 147 316 144 318 141 c 1
 599 422 l 1
 596 424 593 426 590 428 c 1
 312 150 l 1
1252 1096 m 1
 1252 1095 1252 1095 1252 1094 c 1
 1252 1095 1252 1095 1252 1096 c 1
1380 1233 m 1
 1372 1240 1364 1247 1356 1254 c 1
 1242 1140 l 1
 1243 1136 1244 1132 1245 1128 c 1
 1364 1247 l 1
 1367 1245 1369 1242 1372 1240 c 1
 1248 1116 l 1
 1249 1112 1249 1107 1250 1103 c 1
 1380 1233 l 1
585 431 m 1
 584 432 l 1
 585 431 l 1
581 434 m 1
 578 436 574 437 571 439 c 1
 300 168 l 1
 302 165 304 162 306 159 c 1
 581 434 l 1
296 176 m 1
 296 175 297 174 298 173 c 1
 297 174 296 175 296 176 c 1
560 443 m 1
 556 444 553 446 549 447 c 1
 291 189 l 1
 292 185 293 181 295 178 c 1
 560 443 l 1
1348 1261 m 1
 1345 1263 1342 1265 1339 1267 c 1
 1235 1163 l 1
 1236 1159 1237 1155 1238 1151 c 1
 1348 1261 l 1
288 199 m 1
 288 197 288 195 289 194 c 1
 288 195 288 197 288 199 c 1
536 449 m 1
 523 452 510 454 496 454 c 1
 280 238 l 1
 280 233 280 228 281 224 c 1
 510 453 l 1
 515 453 520 453 524 452 c 1
 284 212 l 1
 285 208 286 204 287 200 c 1
 536 449 l 1
632 591 m 1
 637 590 641 590 646 589 c 1
 650 593 l 1
 646 594 644 596 640 598 c 1
 633 591 l 2
 632 591 l 1
659 587 m 1
 663 587 667 586 671 586 c 1
 668 587 664 588 661 589 c 1
 659 587 l 1
607 595 m 1
 611 594 616 594 620 593 c 1
 630 603 l 1
 627 605 622 605 619 607 c 1
 607 595 l 1
481 454 m 1
 476 454 470 454 465 453 c 1
 279 267 l 1
 279 263 279 260 279 256 c 0
 279 255 279 253 279 252 c 2
 481 454 l 1
581 599 m 1
 585 598 590 598 594 597 c 1
 610 613 l 1
 607 615 603 616 600 618 c 1
 581 599 l 1
448 451 m 1
 442 450 435 449 429 447 c 1
 283 301 l 1
 282 295 282 290 281 284 c 1
 448 451 l 1
569 602 m 1
 591 624 l 1
 588 626 584 627 581 629 c 1
 556 604 l 1
 560 603 565 603 569 602 c 1
574 601 m 1
 572 601 571 602 569 602 c 1
 571 602 572 601 574 601 c 1
284 302 m 1
 285 305 284 307 285 310 c 1
 284 307 285 305 284 302 c 1
417 443 m 1
 421 444 424 446 428 447 c 1
 424 446 421 444 417 443 c 1
407 440 m 1
 398 437 389 433 380 428 c 1
 299 347 l 1
 295 339 292 331 289 322 c 1
 407 440 l 1
532 610 m 1
 536 609 540 608 544 607 c 1
 572 635 l 1
 569 637 567 640 564 642 c 1
 532 610 l 1
1186 1271 m 1
 1187 1270 1187 1269 1188 1268 c 1
 1187 1269 1187 1270 1186 1271 c 1
1238 1331 m 1
 1235 1333 1231 1334 1228 1336 c 1
 1177 1285 l 1
 1179 1282 1181 1279 1183 1276 c 1
 1238 1331 l 1
555 648 m 1
 552 650 550 653 547 655 c 1
 508 616 l 1
 512 615 516 614 520 613 c 1
 555 648 l 1
561 644 m 1
 560 644 560 645 559 645 c 1
 560 645 560 644 561 644 c 1
1217 1340 m 1
 1214 1342 1211 1344 1207 1345 c 1
 1163 1301 l 1
 1165 1298 1168 1296 1170 1293 c 1
 1217 1340 l 1
1196 1349 m 1
 1192 1350 1189 1352 1185 1353 c 1
 1149 1317 l 1
 1151 1314 1154 1312 1156 1309 c 1
 1196 1349 l 1
1134 1332 m 1
 1137 1330 1139 1327 1142 1325 c 1
 1175 1358 l 1
 1171 1359 1167 1360 1163 1361 c 1
 1134 1332 l 1
449 632 m 1
 509 692 l 1
 507 695 504 697 502 700 c 1
 438 636 l 1
 442 635 445 633 449 632 c 1
1152 1365 m 1
 1148 1366 1145 1368 1141 1369 c 1
 1117 1345 l 1
 1120 1343 1123 1341 1126 1339 c 1
 1152 1365 l 1
427 640 m 1
 495 708 l 1
 493 711 490 713 488 716 c 1
 416 644 l 1
 420 643 423 641 427 640 c 1
1129 1372 m 1
 1125 1373 1121 1374 1117 1375 c 1
 1099 1357 l 1
 1096 1359 1093 1361 1090 1363 c 1
 1105 1378 l 1
 1101 1379 1097 1380 1093 1381 c 1
 1080 1368 l 1
 1090 1363 1099 1357 1108 1351 c 1
 1129 1372 l 1
405 648 m 1
 482 725 l 1
 480 728 478 731 476 734 c 1
 394 652 l 1
 390 653 387 655 384 657 c 1
 470 743 l 1
 468 746 466 749 464 752 c 1
 374 662 l 1
 384 657 394 652 405 648 c 1
411 646 m 1
 410 646 408 646 407 647 c 1
 408 646 410 646 411 646 c 1
1076 1371 m 1
 1075 1372 1073 1372 1072 1373 c 1
 1073 1372 1075 1372 1076 1371 c 1
1090 1382 m 1
 1088 1382 1086 1383 1084 1383 c 1
 1086 1383 1088 1382 1090 1382 c 1
363 666 m 1
 458 761 l 1
 456 764 455 768 453 771 c 1
 353 671 l 1
 356 669 360 668 363 666 c 1
1020 1394 m 1
 1023 1393 1025 1392 1028 1391 c 1
 1030 1393 l 1
 1027 1393 1023 1394 1020 1394 c 1
332 683 m 1
 331 684 329 684 328 685 c 1
 329 684 331 684 332 683 c 1
280 718 m 1
 283 716 285 713 288 711 c 1
 422 845 l 1
 421 849 420 853 419 857 c 1
 280 718 l 1
259 736 m 1
 263 732 268 729 272 725 c 1
 415 868 l 1
 414 872 414 877 413 881 c 1
 264 732 l 1
 262 733 261 735 259 736 c 1
256 739 m 1
 410 893 l 1
 409 897 409 902 408 906 c 1
 248 746 l 1
 245 749 243 751 241 754 c 1
 406 919 l 1
 405 923 404 928 404 932 c 1
 234 762 l 1
 232 765 229 767 227 770 c 1
 403 946 l 1
 403 951 402 955 402 960 c 1
 220 778 l 1
 230 764 243 751 256 739 c 1
410 892 m 1
 411 889 411 886 412 883 c 1
 411 886 411 889 410 892 c 1
403 941 m 1
 403 939 404 936 404 934 c 1
 404 936 403 939 403 941 c 1
214 787 m 1
 401 974 l 1
 401 979 401 983 401 988 c 0
 401 989 l 2
 208 796 l 1
 210 793 212 790 214 787 c 1
401 1004 m 1
 401 1009 402 1015 402 1020 c 1
 197 815 l 1
 199 812 200 808 202 805 c 1
 401 1004 l 1
401 991 m 1
 401 994 401 998 401 1001 c 1
 401 998 401 994 401 991 c 1
192 825 m 1
 403 1036 l 1
 403 1042 404 1048 405 1053 c 1
 187 835 l 1
 189 832 190 828 192 825 c 1
194 820 m 1
 195 819 195 817 196 816 c 1
 195 817 195 819 194 820 c 1
182 845 m 1
 407 1070 l 1
 408 1076 409 1082 410 1088 c 1
 178 856 l 1
 177 860 176 864 175 868 c 1
 414 1107 l 1
 416 1114 417 1120 419 1127 c 1
 171 879 l 1
 174 867 178 856 182 845 c 1
184 843 m 1
 185 841 185 838 186 836 c 1
 185 838 185 841 184 843 c 1
679 1387 m 1
 684 1388 697 1390 700 1393 c 1
 695 1393 689 1392 684 1392 c 1
 679 1387 l 1
168 891 m 1
 426 1149 l 1
 429 1157 432 1165 435 1173 c 1
 166 904 l 1
 167 900 167 895 168 891 c 1
656 1379 m 1
 667 1390 l 1
 661 1389 656 1389 650 1388 c 1
 632 1370 l 1
 640 1373 648 1376 656 1379 c 1
663 1382 m 1
 664 1382 664 1383 665 1383 c 1
 664 1383 664 1382 663 1382 c 1
164 917 m 1
 448 1201 l 1
 455 1214 461 1225 469 1237 c 1
 162 930 l 1
 162 926 163 921 164 917 c 1
164 913 m 1
 164 911 165 908 165 906 c 1
 165 908 164 911 164 913 c 1
436 1177 m 1
 438 1182 440 1186 442 1190 c 1
 440 1186 438 1182 436 1177 c 1
160 973 m 1
 160 972 160 971 160 970 c 1
 160 971 160 972 160 973 c 1
559 1372 m 1
 538 1367 517 1361 497 1355 c 1
 164 1022 l 1
 162 1006 160 990 160 973 c 1
 559 1372 l 1
475 1348 m 1
 467 1345 459 1342 451 1339 c 1
 171 1059 l 1
 169 1053 168 1047 167 1040 c 1
 475 1348 l 1
186 1104 m 1
 183 1096 180 1088 177 1080 c 1
 426 1329 l 1
 416 1325 406 1320 397 1315 c 1
 186 1104 l 1
435 1333 m 1
 439 1335 444 1336 448 1338 c 1
 444 1336 439 1335 435 1333 c 1
197 1128 m 1
 198 1130 199 1131 200 1133 c 1
 199 1131 198 1130 197 1128 c 1
365 1298 m 1
 350 1289 336 1280 322 1270 c 1
 223 1171 l 1
 214 1159 207 1146 200 1133 c 1
 255 1188 310 1243 365 1298 c 1
229 1179 m 1
 246 1202 266 1224 289 1244 c 1
 266 1224 246 1202 229 1179 c 1
EndSplineSet
EndChar

StartChar: three
Encoding: 51 51 39
GlifName: three
Width: 1852
VWidth: 2308
Flags: HMW
LayerCount: 2
Fore
SplineSet
726 734 m 1
 726 744 726 754 726 764 c 1
 944 764 1210 824 1210 1072 c 0
 1210 1310 980 1383 762 1383 c 0
 515 1383 319 1300 319 1266 c 0
 319 1259 322 1255 329 1255 c 0
 345 1255 362 1270 410 1270 c 0
 529 1270 627 1198 627 1068 c 0
 627 928 522 860 392 860 c 0
 262 860 139 946 139 1090 c 0
 139 1324 473 1418 842 1418 c 0
 1315 1418 1642 1293 1642 1072 c 0
 1642 870 1368 769 920 748 c 1
 1392 719 1692 582 1692 360 c 0
 1692 70 1164 -20 832 -20 c 0
 448 -20 100 103 100 338 c 0
 100 470 200 556 350 556 c 0
 461 556 597 477 597 345 c 0
 597 211 483 150 384 150 c 0
 316 150 306 173 288 173 c 0
 284 173 281 171 281 167 c 0
 281 117 480 20 752 20 c 0
 1020 20 1260 142 1260 360 c 0
 1260 588 1194 734 726 734 c 1
1223 56 m 1
 1541 374 l 1
 1541 379 1540 383 1540 388 c 1
 1203 51 l 1
 1210 53 1216 54 1223 56 c 1
1041 24 m 1
 1119 102 l 1
 1164 130 1204 167 1231 214 c 1
 1510 493 l 1
 1512 490 1513 486 1515 483 c 1
 1058 26 l 1
 1064 27 1069 27 1075 28 c 1
 1520 473 l 1
 1516 483 1511 493 1505 503 c 1
 1246 244 l 1
 1249 252 1252 260 1255 268 c 1
 1499 512 l 1
 1497 515 1495 518 1493 521 c 1
 1261 289 l 1
 1237 188 1165 124 1084 82 c 1
 1025 23 l 1
 1031 24 1035 23 1041 24 c 1
1459 562 m 1
 1461 559 1465 558 1467 555 c 1
 1270 358 l 1
 1270 353 1269 347 1269 342 c 1
 1474 547 l 1
 1476 544 1478 541 1480 538 c 1
 1268 326 l 1
 1267 320 1266 314 1265 308 c 1
 1487 530 l 1
 1477 544 1465 557 1452 570 c 1
 1270 388 l 1
 1270 383 1270 378 1270 373 c 1
 1459 562 l 1
883 15 m 1
 885 18 l 1
 880 17 875 16 870 15 c 1
 874 15 879 15 883 15 c 1
1260 483 m 1
 1393 616 l 1
 1390 618 1386 619 1383 621 c 1
 1257 495 l 1
 1258 491 1259 487 1260 483 c 1
1202 965 m 1
 1448 1211 l 1
 1446 1214 1443 1216 1441 1219 c 1
 1209 987 l 1
 1207 979 1205 972 1202 965 c 1
962 725 m 1
 964 727 l 1
 965 727 967 727 968 727 c 1
 962 727 956 728 950 728 c 1
 949 727 l 1
 953 726 958 726 962 725 c 1
1403 1256 m 1
 1406 1254 1408 1251 1411 1249 c 1
 1220 1058 l 1
 1220 1053 1219 1047 1219 1042 c 1
 1419 1242 l 1
 1422 1240 1424 1236 1426 1234 c 1
 1217 1025 l 1
 1216 1019 1215 1013 1214 1007 c 1
 1434 1227 l 1
 1422 1240 1409 1251 1394 1262 c 1
 1220 1088 l 1
 1220 1083 1220 1078 1220 1073 c 1
 1403 1256 l 1
270 243 m 1
 466 439 l 1
 465 443 464 447 463 451 c 1
 254 242 l 1
 265 243 278 244 294 244 c 0
 314 244 342 245 370 253 c 1
 464 347 l 1
 465 353 467 359 468 366 c 1
 350 248 l 1
 344 247 339 247 333 246 c 1
 469 382 l 1
 469 387 470 393 470 398 c 1
 317 245 l 1
 312 245 306 244 301 244 c 1
 470 413 l 1
 470 418 469 422 468 426 c 1
 286 244 l 1
 280 244 275 243 270 243 c 1
1185 1218 m 1
 1286 1319 l 1
 1290 1318 1293 1316 1297 1315 c 1
 1190 1208 l 1
 1188 1211 1187 1215 1185 1218 c 1
138 231 m 1
 420 513 l 1
 417 515 414 517 411 519 c 1
 132 240 l 1
 134 237 136 234 138 231 c 1
1146 1269 m 1
 1219 1342 l 1
 1215 1343 1211 1344 1207 1345 c 1
 1139 1277 l 1
 1147 1270 1153 1261 1160 1253 c 1
 1242 1335 l 1
 1238 1336 1234 1337 1230 1338 c 1
 1154 1262 l 1
 1152 1265 1148 1266 1146 1269 c 1
1115 1298 m 1
 1171 1354 l 1
 1159 1357 1147 1360 1134 1362 c 1
 1088 1316 l 1
 1085 1318 1082 1320 1079 1322 c 1
 1121 1364 l 1
 1117 1365 1112 1365 1108 1366 c 1
 1069 1327 l 1
 1079 1322 1088 1316 1097 1310 c 1
 1146 1359 l 1
 1150 1358 1155 1358 1159 1357 c 1
 1106 1304 l 1
 1109 1302 1112 1300 1115 1298 c 1
111 354 m 1
 298 541 l 1
 292 540 286 539 280 538 c 1
 112 370 l 1
 113 376 115 383 116 389 c 1
 261 534 l 1
 253 532 246 529 238 526 c 1
 122 410 l 1
 116 393 112 375 111 354 c 1
1018 1351 m 1
 1043 1376 l 1
 1047 1375 1052 1375 1056 1374 c 1
 1029 1347 l 1
 1033 1346 1036 1344 1039 1342 c 1
 1070 1373 l 1
 1057 1375 1043 1376 1030 1378 c 1
 1007 1355 l 1
 1011 1354 1014 1352 1018 1351 c 1
926 1379 m 1
 934 1387 l 1
 929 1387 925 1388 920 1388 c 1
 914 1382 l 1
 926 1379 938 1376 950 1373 c 1
 962 1385 l 1
 957 1385 953 1386 948 1386 c 1
 938 1376 l 1
 934 1377 930 1378 926 1379 c 1
505 1048 m 1
 504 1041 502 1034 500 1028 c 1
 405 933 l 1
 414 936 422 939 430 943 c 1
 490 1003 l 1
 500 1021 506 1043 508 1066 c 1
 368 926 l 1
 374 926 380 927 385 928 c 1
 505 1048 l 1
297 930 m 1
 503 1136 l 1
 504 1132 505 1128 506 1124 c 1
 310 928 l 1
 325 926 340 926 353 926 c 1
 509 1082 l 1
 509 1084 509 1087 509 1089 c 0
 509 1092 509 1094 509 1097 c 1
 338 926 l 1
 333 926 329 927 324 927 c 1
 508 1111 l 1
 507 1125 504 1137 500 1148 c 1
 284 932 l 1
 288 931 293 931 297 930 c 1
209 962 m 1
 455 1208 l 1
 452 1210 448 1211 445 1213 c 1
 200 968 l 1
 209 961 217 955 227 950 c 1
 471 1194 l 1
 468 1197 466 1199 463 1201 c 1
 218 956 l 1
 215 958 212 960 209 962 c 1
150 1113 m 1
 290 1253 l 1
 290 1248 291 1244 293 1241 c 1
 149 1097 l 1
 149 1095 149 1092 149 1090 c 0
 149 1087 149 1085 149 1082 c 1
 302 1235 l 1
 295 1238 290 1243 290 1254 c 0
 290 1261 290 1263 299 1277 c 1
 153 1131 l 1
 152 1125 151 1119 150 1113 c 1
1364 107 m 1
 1523 266 l 1
 1526 273 1529 281 1531 289 c 1
 1336 94 l 1
 1346 98 1355 102 1364 107 c 1
1398 126 m 1
 1446 155 1485 192 1510 238 c 1
 1398 126 l 1
1536 309 m 1
 1537 315 1538 321 1539 327 c 1
 1287 75 l 1
 1295 78 1303 81 1311 84 c 1
 1536 309 l 1
1533 296 m 1
 1534 299 1534 302 1535 305 c 1
 1534 302 1534 299 1533 296 c 1
1540 343 m 1
 1540 348 1541 354 1541 359 c 1
 1243 61 l 1
 1250 63 1258 66 1265 68 c 1
 1540 343 l 1
1539 328 m 1
 1539 332 1540 336 1540 340 c 1
 1540 336 1539 332 1539 328 c 1
1539 402 m 1
 1538 406 1538 411 1537 415 c 1
 1165 43 l 1
 1159 42 1152 40 1146 39 c 1
 1534 427 l 1
 1531 439 1528 451 1524 462 c 1
 1093 31 l 1
 1099 32 1104 32 1110 33 c 1
 1528 451 l 1
 1529 447 1530 443 1531 439 c 1
 1128 36 l 1
 1147 39 1165 42 1183 46 c 1
 1539 402 l 1
1118 34 m 1
 1120 34 1122 35 1124 35 c 1
 1122 35 1120 34 1118 34 c 1
992 20 m 1
 997 20 1003 21 1008 21 c 1
 1024 37 1040 53 1056 69 c 1
 1047 65 1039 61 1030 58 c 1
 992 20 l 1
1488 529 m 1
 1489 527 1490 526 1491 524 c 1
 1490 526 1489 527 1488 529 c 1
983 19 m 1
 984 19 986 20 987 20 c 1
 986 20 984 19 983 19 c 1
1006 49 m 1
 999 46 991 44 984 42 c 1
 960 18 l 1
 965 18 971 19 976 19 c 1
 1006 49 l 1
928 16 m 1
 933 16 939 17 944 17 c 1
 963 36 l 1
 956 34 949 32 942 30 c 1
 928 16 l 1
1270 358 m 1
 1270 360 1270 363 1270 366 c 1
 1270 363 1270 360 1270 358 c 1
923 26 m 1
 916 25 909 22 903 21 c 1
 897 15 l 1
 902 15 908 16 913 16 c 1
 923 26 l 1
1269 401 m 1
 1269 398 1270 395 1270 392 c 1
 1270 395 1269 398 1269 401 c 1
1444 577 m 1
 1441 579 1439 582 1436 584 c 1
 1268 416 l 1
 1268 411 1269 407 1269 402 c 1
 1444 577 l 1
1260 480 m 1
 1263 464 1265 448 1267 430 c 1
 1428 591 l 1
 1425 593 1422 595 1419 597 c 1
 1266 444 l 1
 1265 448 1265 453 1264 457 c 1
 1410 603 l 1
 1407 605 1405 608 1402 610 c 1
 1262 470 l 1
 1261 473 1261 477 1260 480 c 1
1255 503 m 1
 1256 501 1255 499 1256 497 c 1
 1255 499 1256 501 1255 503 c 1
1374 627 m 1
 1371 629 1367 630 1364 632 c 1
 1251 519 l 1
 1252 515 1253 511 1254 507 c 1
 1374 627 l 1
1242 542 m 1
 1244 538 1246 534 1247 530 c 1
 1355 638 l 1
 1352 640 1348 641 1345 643 c 1
 1243 541 l 2
 1242 542 l 1
1334 647 m 1
 1331 649 1327 650 1324 652 c 1
 1234 562 l 1
 1236 559 1237 556 1239 552 c 1
 1334 647 l 1
1320 654 m 1
 1318 655 1316 655 1314 656 c 1
 1316 655 1318 655 1320 654 c 1
1314 657 m 1
 1310 658 1307 660 1303 661 c 1
 1223 581 l 1
 1221 584 1220 588 1218 591 c 1
 1292 665 l 1
 1288 666 1285 668 1281 669 c 1
 1212 600 l 1
 1218 591 1224 582 1229 572 c 1
 1314 657 l 1
1270 673 m 1
 1266 674 1263 676 1259 677 c 1
 1198 616 l 1
 1200 613 1203 611 1205 608 c 1
 1270 673 l 1
1248 681 m 1
 1244 682 1240 683 1236 684 c 1
 1184 632 l 1
 1187 630 1189 627 1191 624 c 1
 1248 681 l 1
1225 688 m 1
 1221 689 1217 690 1213 691 c 1
 1168 646 l 1
 1171 644 1173 641 1176 639 c 1
 1225 688 l 1
1201 694 m 1
 1197 695 1193 696 1189 697 c 1
 1151 659 l 1
 1154 657 1156 654 1159 652 c 1
 1201 694 l 1
1330 853 m 1
 1478 1001 l 1
 1480 1008 1482 1015 1484 1022 c 1
 1303 841 l 1
 1312 845 1321 849 1330 853 c 1
1362 870 m 1
 1363 871 l 1
 1362 870 l 1
1363 871 m 1
 1408 898 1444 931 1466 974 c 1
 1431 939 1398 906 1363 871 c 1
1177 700 m 1
 1173 701 1168 701 1164 702 c 1
 1132 670 l 1
 1135 668 1139 667 1142 665 c 1
 1177 700 l 1
1278 831 m 1
 1488 1041 l 1
 1489 1047 1490 1052 1490 1058 c 1
 1255 823 l 1
 1263 826 1270 828 1278 831 c 1
1130 671 m 1
 1129 672 1127 672 1126 673 c 1
 1127 672 1129 672 1130 671 c 1
1152 705 m 1
 1148 706 1143 706 1139 707 c 1
 1112 680 l 1
 1115 678 1119 677 1122 675 c 1
 1152 705 l 1
1173 801 m 1
 1193 805 1214 811 1234 817 c 1
 1491 1074 l 1
 1491 1076 1491 1078 1491 1080 c 0
 1491 1083 1491 1086 1491 1089 c 1
 1213 811 l 1
 1206 809 1200 808 1193 806 c 1
 1490 1103 l 1
 1490 1108 1489 1112 1488 1116 c 1
 1173 801 l 1
1126 709 m 1
 1122 710 1118 711 1114 712 c 1
 1092 690 l 1
 1096 689 1099 687 1102 685 c 1
 1126 709 l 1
1101 714 m 1
 1097 715 1092 715 1088 716 c 1
 1070 698 l 1
 1074 697 1077 695 1081 694 c 1
 1101 714 l 1
1161 799 m 1
 1162 799 l 1
 1161 799 l 1
1486 1129 m 1
 1485 1133 1484 1137 1483 1141 c 1
 1136 794 l 1
 1142 795 1148 796 1154 797 c 1
 1486 1129 l 1
1068 698 m 1
 1067 698 1066 700 1065 700 c 1
 1066 700 1067 698 1068 698 c 1
1074 717 m 1
 1070 718 1065 718 1061 719 c 1
 1047 705 l 1
 1051 704 1055 703 1059 702 c 1
 1074 717 l 1
1100 788 m 1
 1106 789 1112 790 1118 791 c 1
 1479 1152 l 1
 1478 1156 1476 1159 1475 1163 c 1
 1100 788 l 1
1046 706 m 1
 1044 707 1042 706 1040 707 c 1
 1042 706 1044 707 1046 706 c 1
1047 720 m 1
 1042 720 1039 722 1034 722 c 1
 1024 712 l 1
 1028 711 1031 709 1035 708 c 1
 1047 720 l 1
1065 783 m 1
 1071 784 1076 784 1082 785 c 1
 1470 1173 l 1
 1468 1176 1467 1180 1465 1183 c 1
 1065 783 l 1
1020 723 m 1
 1015 723 1011 724 1006 724 c 1
 999 717 l 1
 1003 716 1008 716 1012 715 c 1
 1020 723 l 1
1018 778 m 1
 1028 779 1038 780 1048 781 c 1
 1130 863 l 1
 1114 849 1096 837 1078 826 c 1
 1031 779 l 1
 1027 779 1022 778 1018 778 c 1
1460 1193 m 1
 1458 1196 1456 1199 1454 1202 c 1
 1189 937 l 1
 1180 919 1169 903 1156 889 c 1
 1460 1193 l 1
1002 725 m 1
 1000 725 998 725 996 725 c 1
 998 725 1000 725 1002 725 c 1
992 725 m 1
 987 725 983 726 978 726 c 1
 974 722 l 1
 978 721 983 721 987 720 c 1
 992 725 l 1
1046 809 m 1
 1037 805 1029 801 1020 798 c 1
 998 776 l 1
 1003 776 1008 776 1014 777 c 1
 1046 809 l 1
944 727 m 1
 943 727 941 728 940 728 c 1
 941 728 943 727 944 727 c 1
996 789 m 1
 989 786 981 784 974 782 c 1
 965 773 l 1
 970 773 976 774 981 774 c 1
 996 789 l 1
1218 1031 m 1
 1218 1032 1218 1032 1218 1033 c 1
 1218 1032 1218 1032 1218 1031 c 1
957 777 m 1
 960 778 962 779 965 780 c 1
 962 779 960 778 957 777 c 1
954 777 m 1
 948 776 936 774 933 771 c 0
 933 771 l 1
 938 771 944 772 949 772 c 1
 954 777 l 1
933 772 m 1
 932 772 931 771 930 771 c 1
 931 771 932 772 933 772 c 1
1385 1268 m 1
 1382 1270 1379 1272 1376 1274 c 1
 1217 1115 l 1
 1218 1111 1219 1107 1219 1102 c 1
 1385 1268 l 1
244 127 m 1
 242 130 239 132 237 135 c 1
 233 131 l 1
 236 129 238 126 241 124 c 1
 244 127 l 1
244 126 m 1
 244 126 l 1
 244 126 l 1
393 261 m 1
 419 273 442 292 456 324 c 1
 393 261 l 1
457 327 m 1
 459 331 461 336 462 341 c 1
 461 336 459 331 457 327 c 1
1372 1278 m 1
 1371 1279 1370 1279 1369 1279 c 1
 1370 1279 1371 1279 1372 1278 c 1
1367 1280 m 1
 1364 1282 1361 1284 1358 1286 c 1
 1213 1141 l 1
 1214 1137 1214 1132 1215 1128 c 1
 1367 1280 l 1
225 138 m 1
 231 144 l 1
 229 147 227 150 225 153 c 1
 216 144 l 1
 213 146 211 149 208 151 c 1
 219 162 l 1
 217 165 215 168 213 171 c 1
 200 158 l 1
 208 151 217 144 225 138 c 1
468 369 m 1
 469 373 469 377 469 381 c 1
 469 377 469 373 468 369 c 1
1206 1169 m 1
 1208 1164 1209 1158 1210 1153 c 1
 1348 1291 l 1
 1345 1293 1341 1294 1338 1296 c 1
 1207 1165 l 1
 1207 1166 1206 1168 1206 1169 c 1
1199 1187 m 1
 1200 1183 1202 1180 1203 1176 c 1
 1328 1301 l 1
 1325 1303 1321 1304 1318 1306 c 1
 1199 1187 l 1
192 165 m 1
 207 180 l 1
 205 184 204 188 203 191 c 1
 184 172 l 1
 187 170 189 167 192 165 c 1
1164 1249 m 1
 1176 1234 1187 1217 1195 1198 c 1
 1308 1311 l 1
 1298 1316 1287 1320 1276 1324 c 1
 1179 1227 l 1
 1177 1230 1175 1233 1173 1236 c 1
 1265 1328 l 1
 1261 1329 1257 1330 1253 1331 c 1
 1167 1245 l 1
 1166 1246 1165 1248 1164 1249 c 1
1316 1307 m 1
 1314 1308 1312 1309 1310 1310 c 1
 1312 1309 1314 1308 1316 1307 c 1
177 180 m 1
 201 204 l 2
 201 205 201 206 201 207 c 0
 201 220 206 232 236 239 c 1
 459 462 l 1
 458 466 457 470 455 473 c 1
 169 187 l 1
 171 184 175 183 177 180 c 1
460 460 m 1
 461 458 462 455 463 453 c 1
 462 455 461 458 460 460 c 1
155 204 m 1
 157 201 160 198 162 195 c 1
 449 482 l 1
 447 485 445 488 443 491 c 1
 156 204 l 2
 155 204 l 1
436 499 m 1
 434 502 432 505 429 507 c 1
 143 221 l 1
 145 218 147 215 149 212 c 1
 436 499 l 1
1250 1332 m 1
 1249 1332 1247 1334 1246 1334 c 1
 1247 1334 1249 1332 1250 1332 c 1
128 248 m 1
 129 246 130 245 131 243 c 1
 130 245 129 246 128 248 c 1
402 525 m 1
 399 527 395 528 391 529 c 1
 123 261 l 1
 122 265 120 268 119 272 c 1
 380 533 l 1
 376 534 372 535 368 536 c 1
 116 284 l 1
 119 272 122 260 127 250 c 1
 402 525 l 1
1121 1292 m 1
 1124 1289 1128 1287 1131 1284 c 1
 1195 1348 l 1
 1191 1349 1187 1350 1183 1351 c 1
 1123 1291 l 2
 1122 1291 1122 1292 1121 1292 c 1
366 537 m 1
 364 537 361 538 359 538 c 1
 361 538 364 537 366 537 c 1
356 539 m 1
 352 540 348 541 343 541 c 1
 112 310 l 1
 113 306 113 301 114 297 c 1
 356 539 l 1
329 542 m 1
 325 542 320 542 316 542 c 0
 315 542 315 542 314 542 c 2
 110 338 l 2
 110 337 l 0
 110 332 110 327 110 323 c 1
 329 542 l 1
1096 1369 m 1
 1092 1370 1087 1370 1083 1371 c 1
 1049 1337 l 1
 1052 1335 1056 1334 1059 1332 c 1
 1096 1369 l 1
267 535 m 1
 271 536 276 537 280 538 c 1
 276 537 271 536 267 535 c 1
208 511 m 1
 179 494 153 471 135 438 c 1
 208 511 l 1
1016 1379 m 1
 1011 1380 1007 1381 1003 1381 c 1
 985 1363 l 1
 989 1362 992 1360 996 1359 c 1
 1016 1379 l 1
960 1370 m 1
 964 1369 969 1367 973 1366 c 1
 989 1382 l 1
 984 1382 981 1384 976 1384 c 1
 962 1370 l 2
 961 1370 961 1370 960 1370 c 1
970 1384 m 1
 968 1384 967 1385 965 1385 c 1
 967 1385 968 1384 970 1384 c 1
878 1389 m 1
 885 1387 894 1387 902 1385 c 1
 906 1389 l 1
 901 1389 897 1390 892 1390 c 1
 889 1387 l 1
 885 1388 882 1388 878 1389 c 1
870 1391 m 1
 872 1391 875 1390 877 1390 c 1
 878 1391 l 1
 875 1391 873 1391 870 1391 c 1
471 975 m 1
 459 961 446 951 430 943 c 1
 446 951 459 961 471 975 c 1
355 926 m 1
 359 926 362 926 366 926 c 1
 362 926 359 926 355 926 c 1
495 1158 m 1
 493 1161 492 1165 490 1168 c 1
 260 938 l 1
 256 939 252 940 248 941 c 1
 485 1178 l 1
 483 1181 480 1183 478 1186 c 1
 238 946 l 1
 249 941 260 938 272 935 c 1
 495 1158 l 1
435 1218 m 1
 432 1220 429 1222 425 1223 c 1
 185 983 l 1
 187 980 189 977 192 975 c 1
 435 1218 l 1
414 1227 m 1
 410 1228 406 1229 402 1230 c 1
 172 1000 l 1
 174 997 176 994 178 991 c 1
 414 1227 l 1
389 1232 m 1
 384 1233 380 1234 376 1234 c 1
 162 1020 l 1
 163 1016 164 1012 166 1009 c 1
 389 1232 l 1
361 1234 m 1
 362 1234 362 1234 363 1234 c 1
 362 1234 362 1234 361 1234 c 1
361 1234 m 1
 356 1234 350 1233 345 1233 c 1
 154 1042 l 1
 155 1038 157 1035 158 1031 c 1
 361 1234 l 1
329 1232 m 1
 324 1232 319 1232 314 1232 c 1
 150 1068 l 1
 150 1063 151 1059 152 1055 c 1
 329 1232 l 1
150 1074 m 1
 150 1072 150 1070 150 1068 c 1
 150 1070 150 1072 150 1074 c 1
149 1100 m 1
 149 1102 150 1103 150 1105 c 1
 150 1103 149 1102 149 1100 c 1
315 1301 m 1
 318 1305 320 1310 323 1315 c 1
 320 1310 318 1305 315 1301 c 1
322 1316 m 1
 321 1317 l 1
 312 1313 304 1308 295 1303 c 1
 167 1175 l 1
 163 1167 161 1159 158 1151 c 1
 322 1316 l 1
182 1201 m 1
 184 1204 187 1209 189 1212 c 1
 187 1209 184 1204 182 1201 c 1
250 1273 m 1
 227 1256 206 1236 189 1212 c 1
 210 1233 229 1252 250 1273 c 1
EndSplineSet
EndChar

StartChar: five
Encoding: 53 53 40
GlifName: five
Width: 1772
VWidth: 2308
Flags: HMW
LayerCount: 2
Fore
SplineSet
297 1320 m 1
 307 1330 l 1
 297 1330 l 1
 297 1320 l 1
297 1290 m 1
 337 1330 l 1
 322 1330 l 1
 297 1305 l 1
 297 1290 l 1
297 1260 m 1
 367 1330 l 1
 352 1330 l 1
 297 1275 l 1
 297 1260 l 1
297 1230 m 1
 397 1330 l 1
 382 1330 l 1
 297 1245 l 1
 297 1230 l 1
297 1200 m 1
 427 1330 l 1
 412 1330 l 1
 297 1215 l 1
 297 1200 l 1
297 1170 m 1
 457 1330 l 1
 442 1330 l 1
 297 1185 l 1
 297 1170 l 1
297 1140 m 1
 487 1330 l 1
 472 1330 l 1
 297 1155 l 1
 297 1140 l 1
297 1110 m 1
 517 1330 l 1
 502 1330 l 1
 297 1125 l 1
 297 1110 l 1
297 1080 m 1
 547 1330 l 1
 532 1330 l 1
 297 1095 l 1
 297 1080 l 1
297 1050 m 1
 577 1330 l 1
 562 1330 l 1
 297 1065 l 1
 297 1050 l 1
317 1040 m 1
 607 1330 l 1
 592 1330 l 1
 302 1040 l 1
 317 1040 l 1
347 1040 m 1
 637 1330 l 1
 622 1330 l 1
 332 1040 l 1
 347 1040 l 1
377 1040 m 1
 667 1330 l 1
 652 1330 l 1
 362 1040 l 1
 377 1040 l 1
407 1040 m 1
 697 1330 l 1
 682 1330 l 1
 392 1040 l 1
 407 1040 l 1
437 1040 m 1
 727 1330 l 1
 712 1330 l 1
 422 1040 l 1
 437 1040 l 1
467 1040 m 1
 757 1330 l 1
 742 1330 l 1
 452 1040 l 1
 467 1040 l 1
497 1040 m 1
 787 1330 l 1
 772 1330 l 1
 482 1040 l 1
 497 1040 l 1
527 1040 m 1
 817 1330 l 1
 802 1330 l 1
 512 1040 l 1
 527 1040 l 1
557 1040 m 1
 847 1330 l 1
 832 1330 l 1
 542 1040 l 1
 557 1040 l 1
587 1040 m 1
 877 1330 l 1
 862 1330 l 1
 572 1040 l 1
 587 1040 l 1
617 1040 m 1
 907 1330 l 1
 892 1330 l 1
 602 1040 l 1
 617 1040 l 1
647 1040 m 1
 937 1330 l 1
 922 1330 l 1
 632 1040 l 1
 647 1040 l 1
677 1040 m 1
 967 1330 l 1
 952 1330 l 1
 662 1040 l 1
 677 1040 l 1
707 1040 m 1
 997 1330 l 1
 982 1330 l 1
 692 1040 l 1
 707 1040 l 1
737 1040 m 1
 1027 1330 l 1
 1012 1330 l 1
 722 1040 l 1
 737 1040 l 1
208 511 m 1
 179 494 153 471 135 438 c 1
 208 511 l 1
767 1040 m 1
 1057 1330 l 1
 1042 1330 l 1
 752 1040 l 1
 767 1040 l 1
267 535 m 1
 271 536 276 537 280 538 c 1
 276 537 271 536 267 535 c 1
797 1040 m 1
 1087 1330 l 1
 1072 1330 l 1
 782 1040 l 1
 797 1040 l 1
827 1040 m 1
 1117 1330 l 1
 1102 1330 l 1
 812 1040 l 1
 827 1040 l 1
329 542 m 1
 325 542 320 542 316 542 c 0
 315 542 315 542 314 542 c 2
 110 338 l 2
 110 337 l 0
 110 332 110 327 110 323 c 1
 329 542 l 1
857 1040 m 1
 1147 1330 l 1
 1132 1330 l 1
 842 1040 l 1
 857 1040 l 1
356 539 m 1
 352 540 348 541 343 541 c 1
 112 310 l 1
 113 306 113 301 114 297 c 1
 356 539 l 1
366 537 m 1
 364 537 361 538 359 538 c 1
 361 538 364 537 366 537 c 1
887 1040 m 1
 1177 1330 l 1
 1162 1330 l 1
 872 1040 l 1
 887 1040 l 1
917 1040 m 1
 1207 1330 l 1
 1192 1330 l 1
 902 1040 l 1
 917 1040 l 1
402 525 m 1
 399 527 395 528 391 529 c 1
 123 261 l 1
 122 265 120 268 119 272 c 1
 380 533 l 1
 376 534 372 535 368 536 c 1
 116 284 l 1
 119 272 122 260 127 250 c 1
 402 525 l 1
128 248 m 1
 129 246 130 245 131 243 c 1
 130 245 129 246 128 248 c 1
947 1040 m 1
 1237 1330 l 1
 1222 1330 l 1
 932 1040 l 1
 947 1040 l 1
977 1040 m 1
 1267 1330 l 1
 1252 1330 l 1
 962 1040 l 1
 977 1040 l 1
436 499 m 1
 434 502 432 505 429 507 c 1
 143 221 l 1
 145 218 147 215 149 212 c 1
 436 499 l 1
1007 1040 m 1
 1297 1330 l 1
 1282 1330 l 1
 992 1040 l 1
 1007 1040 l 1
155 204 m 1
 157 201 160 198 162 195 c 1
 449 482 l 1
 447 485 445 488 443 491 c 1
 156 204 l 2
 155 204 l 1
1037 1040 m 1
 1327 1330 l 1
 1312 1330 l 1
 1022 1040 l 1
 1037 1040 l 1
460 460 m 1
 461 458 462 455 463 453 c 1
 462 455 461 458 460 460 c 1
177 180 m 1
 201 204 l 2
 201 205 201 206 201 207 c 0
 201 220 206 232 236 239 c 1
 459 462 l 1
 458 466 457 470 455 473 c 1
 169 187 l 1
 171 184 175 183 177 180 c 1
192 165 m 1
 207 180 l 1
 205 184 204 188 203 191 c 1
 184 172 l 1
 187 170 189 167 192 165 c 1
1271 1184 m 1
 1286 1214 l 1
 1112 1040 l 1
 1127 1040 l 1
 1271 1184 l 1
468 369 m 1
 469 373 469 377 469 381 c 1
 469 377 469 373 468 369 c 1
225 138 m 1
 231 144 l 1
 229 147 227 150 225 153 c 1
 216 144 l 1
 213 146 211 149 208 151 c 1
 219 162 l 1
 217 165 215 168 213 171 c 1
 200 158 l 1
 208 151 217 144 225 138 c 1
1242 1125 m 1
 1256 1154 l 1
 1142 1040 l 1
 1157 1040 l 1
 1242 1125 l 1
457 327 m 1
 459 331 461 336 462 341 c 1
 461 336 459 331 457 327 c 1
393 261 m 1
 419 273 442 292 456 324 c 1
 393 261 l 1
244 126 m 1
 244 126 l 1
 244 126 l 1
244 127 m 1
 242 130 239 132 237 135 c 1
 233 131 l 1
 236 129 238 126 241 124 c 1
 244 127 l 1
937 805 m 1
 941 804 945 803 949 802 c 1
 956 809 l 1
 951 809 947 810 942 810 c 1
 937 805 l 1
1213 1066 m 1
 1227 1095 l 1
 1172 1040 l 1
 1187 1040 l 1
 1213 1066 l 1
1035 798 m 1
 1031 799 1026 799 1022 800 c 1
 1006 784 l 1
 1010 783 1013 782 1017 780 c 1
 1035 798 l 1
1047 796 m 1
 1045 796 1044 797 1042 797 c 1
 1044 797 1045 796 1047 796 c 1
1061 794 m 1
 1057 795 1052 795 1048 796 c 1
 1027 775 l 1
 1030 773 1034 772 1037 770 c 1
 1061 794 l 1
1043 767 m 1
 1041 768 1040 769 1038 770 c 1
 1040 769 1041 768 1043 767 c 1
1178 761 m 1
 1167 765 1156 769 1145 773 c 1
 1101 729 l 1
 1104 727 1106 724 1109 722 c 1
 1156 769 l 1
 1160 768 1163 766 1167 765 c 1
 1117 715 l 1
 1120 713 1122 710 1124 707 c 1
 1178 761 l 1
1200 753 m 1
 1196 754 1193 756 1189 757 c 1
 1132 700 l 1
 1134 697 1137 695 1139 692 c 1
 1200 753 l 1
1221 744 m 1
 1218 746 1215 748 1211 749 c 1
 1145 683 l 1
 1147 680 1150 678 1152 675 c 1
 1221 744 l 1
1242 735 m 1
 1239 737 1235 738 1232 740 c 1
 1158 666 l 1
 1160 663 1162 660 1164 657 c 1
 1242 735 l 1
1248 732 m 1
 1247 732 1246 734 1245 734 c 1
 1246 734 1247 732 1248 732 c 1
1217 526 m 1
 1218 523 1217 521 1218 518 c 1
 1217 521 1218 523 1217 526 c 1
1219 517 m 1
 1220 513 1220 508 1221 504 c 1
 1370 653 l 1
 1362 660 1354 666 1345 673 c 1
 1213 541 l 1
 1212 545 1211 549 1210 553 c 1
 1336 679 l 1
 1333 681 1331 684 1328 686 c 1
 1207 565 l 1
 1211 554 1213 541 1216 529 c 1
 1354 667 l 1
 1357 665 1359 662 1362 660 c 1
 1219 517 l 1
1416 607 m 1
 1418 605 1419 602 1421 600 c 1
 1419 602 1418 605 1416 607 c 1
839 2 m 1
 836 1 833 1 830 1 c 1
 833 1 835 1 838 1 c 1
 839 2 l 1
1428 591 m 1
 1426 594 1424 597 1422 600 c 1
 1230 408 l 1
 1230 413 1229 417 1229 422 c 1
 1415 608 l 1
 1413 611 1410 613 1408 616 c 1
 1229 437 l 1
 1230 423 1230 408 1230 393 c 1
 1428 591 l 1
1430 589 m 1
 1431 588 1432 587 1433 586 c 1
 1432 587 1431 588 1430 589 c 1
877 10 m 1
 871 9 864 7 858 6 c 1
 853 1 l 1
 858 1 864 2 869 2 c 1
 877 10 l 1
1441 574 m 1
 1439 577 1437 580 1435 583 c 1
 1230 378 l 1
 1230 373 1229 367 1229 362 c 1
 1441 574 l 1
1228 348 m 1
 1228 351 1229 354 1229 357 c 1
 1229 354 1228 351 1228 348 c 1
905 4 m 1
 908 4 910 4 913 4 c 1
 910 4 908 4 905 4 c 1
964 37 m 1
 941 28 919 21 897 15 c 1
 885 3 l 1
 890 3 895 3 900 3 c 1
 918 21 l 1
 925 23 933 25 940 28 c 1
 916 4 l 1
 921 4 928 6 933 6 c 1
 964 37 l 1
969 39 m 1
 975 42 982 44 988 47 c 1
 982 44 975 42 969 39 c 1
1020 63 m 1
 1010 58 1000 53 990 48 c 1
 949 7 l 1
 955 8 960 8 966 9 c 1
 1020 63 l 1
969 9 m 1
 971 9 972 9 974 9 c 1
 972 9 971 9 969 9 c 1
1474 517 m 1
 1472 520 1471 524 1469 527 c 1
 1209 267 l 1
 1206 258 1203 250 1199 242 c 1
 1474 517 l 1
1017 15 m 1
 1023 16 1029 17 1035 18 c 1
 1489 472 l 1
 1488 476 1487 480 1486 484 c 1
 1017 15 l 1
1495 448 m 1
 1494 452 1494 457 1493 461 c 1
 1053 21 l 1
 1059 22 1065 23 1071 24 c 1
 1495 448 l 1
1128 36 m 1
 1135 38 1141 39 1148 41 c 1
 1501 394 l 1
 1501 399 1500 403 1500 408 c 1
 1128 36 l 1
1166 46 m 1
 1174 48 1183 51 1191 54 c 1
 1500 363 l 1
 1500 368 1501 374 1501 379 c 1
 1169 47 l 2
 1168 47 1167 46 1166 46 c 1
1213 61 m 1
 1221 64 1229 67 1237 70 c 1
 1495 328 l 1
 1496 334 1497 340 1498 346 c 1
 1213 61 l 1
1322 110 m 1
 1389 148 1443 199 1473 261 c 1
 1322 110 l 1
1291 94 m 1
 1484 287 l 1
 1487 294 1489 302 1491 309 c 1
 1263 81 l 1
 1272 85 1282 90 1291 94 c 1
111 354 m 1
 298 541 l 1
 292 540 286 539 280 538 c 1
 112 370 l 1
 113 376 115 383 116 389 c 1
 261 534 l 1
 253 532 246 529 238 526 c 1
 122 410 l 1
 116 393 112 375 111 354 c 1
138 231 m 1
 420 513 l 1
 417 515 414 517 411 519 c 1
 132 240 l 1
 134 237 136 234 138 231 c 1
1329 1302 m 1
 1315 1273 l 1
 1082 1040 l 1
 1097 1040 l 1
 1300 1243 l 1
 1343 1330 l 1
 1342 1330 l 1
 1052 1040 l 1
 1067 1040 l 1
 1329 1302 l 1
270 243 m 1
 466 439 l 1
 465 443 464 447 463 451 c 1
 254 242 l 1
 265 243 278 244 294 244 c 0
 314 244 342 245 370 253 c 1
 464 347 l 1
 465 353 467 359 468 366 c 1
 350 248 l 1
 344 247 339 247 333 246 c 1
 469 382 l 1
 469 387 470 393 470 398 c 1
 317 245 l 1
 312 245 306 244 301 244 c 1
 470 413 l 1
 470 418 469 422 468 426 c 1
 286 244 l 1
 280 244 275 243 270 243 c 1
925 808 m 1
 928 811 l 1
 930 811 933 810 935 810 c 1
 928 810 920 811 913 811 c 1
 912 810 l 1
 916 809 921 809 925 808 c 1
973 796 m 1
 983 806 l 1
 979 807 974 807 969 807 c 1
 961 799 l 1
 965 798 969 797 973 796 c 1
1093 736 m 1
 1133 776 l 1
 1121 779 1110 783 1098 786 c 1
 1066 754 l 1
 1063 756 1060 758 1057 760 c 1
 1085 788 l 1
 1081 789 1077 790 1073 791 c 1
 1047 765 l 1
 1057 760 1066 754 1075 748 c 1
 1110 783 l 1
 1114 782 1117 780 1121 779 c 1
 1084 742 l 1
 1087 740 1090 738 1093 736 c 1
1195 598 m 1
 1301 704 l 1
 1298 706 1294 707 1291 709 c 1
 1190 608 l 1
 1188 611 1188 616 1186 619 c 1
 1282 715 l 1
 1272 720 1262 725 1252 730 c 1
 1170 648 l 1
 1172 645 1174 642 1176 639 c 1
 1262 725 l 1
 1265 723 1269 722 1272 720 c 1
 1181 629 l 1
 1189 613 1197 595 1203 576 c 1
 1319 692 l 1
 1316 694 1313 696 1310 698 c 1
 1199 587 l 1
 1198 591 1196 594 1195 598 c 1
1225 478 m 1
 1386 639 l 1
 1389 637 1391 633 1393 631 c 1
 1226 464 l 1
 1226 459 1228 456 1228 451 c 1
 1401 624 l 1
 1394 632 1386 639 1378 646 c 1
 1223 491 l 1
 1224 487 1224 482 1225 478 c 1
1225 328 m 1
 1453 556 l 1
 1451 559 1449 562 1447 565 c 1
 1227 345 l 1
 1225 325 1221 307 1216 289 c 1
 1464 537 l 1
 1462 540 1461 544 1459 547 c 1
 1221 309 l 1
 1222 315 1224 322 1225 328 c 1
1000 13 m 1
 1482 495 l 1
 1481 499 1479 502 1478 506 c 1
 1182 210 l 1
 1150 157 1106 116 1056 84 c 1
 982 10 l 1
 988 11 994 12 1000 13 c 1
1452 225 m 1
 1429 192 1399 162 1364 137 c 1
 1452 225 l 1
315 674 m 1
 299 674 283 674 267 674 c 1
 267 1390 l 1
 1577 1390 l 1
 1400 1030 l 1
 297 1030 l 1
 297 694 l 1
 379 772 604 849 864 849 c 0
 1226 849 1652 690 1652 390 c 0
 1652 100 1164 -20 832 -20 c 0
 448 -20 100 103 100 338 c 0
 100 470 200 556 350 556 c 0
 461 556 597 477 597 345 c 0
 597 211 483 150 384 150 c 0
 316 150 306 173 288 173 c 0
 284 173 281 171 281 167 c 0
 281 107 480 15 752 15 c 0
 1020 15 1220 172 1220 390 c 0
 1220 659 1092 808 794 808 c 0
 589 808 404 750 315 674 c 1
900 812 m 1
 901 812 l 1
 900 812 l 1
900 812 m 1
 903 812 905 812 908 812 c 1
 905 812 903 812 900 812 c 1
995 788 m 1
 1009 802 l 1
 1005 803 1000 803 996 804 c 1
 984 792 l 1
 988 791 991 789 995 788 c 1
1497 435 m 1
 1090 28 l 1
 1096 29 1103 31 1109 32 c 1
 1499 422 l 1
 1499 426 1498 431 1497 435 c 1
EndSplineSet
EndChar

StartChar: six
Encoding: 54 54 41
GlifName: six
Width: 1860
VWidth: 2308
Flags: HMW
LayerCount: 2
Fore
SplineSet
620 647 m 1
 681 771 872 830 1032 830 c 0
 1324 830 1740 770 1740 430 c 0
 1740 110 1380 -20 1008 -20 c 0
 606 -20 170 190 170 670 c 0
 170 1116 474 1420 1078 1420 c 0
 1447 1420 1621 1298 1621 1144 c 0
 1621 1000 1508 934 1378 934 c 0
 1248 934 1133 1012 1133 1152 c 0
 1133 1317 1301 1301 1301 1344 c 0
 1301 1372 1225 1390 1098 1390 c 0
 775 1390 626 1230 620 647 c 1
1340 400 m 0
 1340 734 1210 800 1032 800 c 0
 866 800 630 736 630 560 c 0
 630 116 770 5 1008 5 c 0
 1206 5 1340 106 1340 400 c 0
1380 63 m 1
 1554 237 l 1
 1558 245 1562 254 1565 263 c 1
 1352 50 l 1
 1362 54 1371 58 1380 63 c 1
1415 83 m 1
 1467 115 1508 156 1538 206 c 1
 1415 83 l 1
1327 40 m 1
 1573 286 l 1
 1575 293 1576 299 1578 306 c 1
 1304 32 l 1
 1312 35 1319 37 1327 40 c 1
1283 26 m 1
 1582 325 l 1
 1583 331 1585 338 1586 344 c 1
 1262 20 l 1
 1269 22 1276 24 1283 26 c 1
1242 15 m 1
 1588 361 l 1
 1589 366 1589 371 1589 377 c 1
 1223 11 l 1
 1229 12 1236 14 1242 15 c 1
1205 8 m 1
 1590 393 l 1
 1590 398 1591 404 1591 409 c 1
 1187 5 l 1
 1193 6 1199 7 1205 8 c 1
1591 424 m 1
 1591 429 1591 434 1591 439 c 1
 1304 152 l 1
 1297 138 1289 126 1281 114 c 1
 1591 424 l 1
1222 55 m 1
 1210 47 1198 40 1185 33 c 1
 1153 1 l 1
 1159 2 1164 2 1170 3 c 1
 1222 55 l 1
1590 453 m 1
 1590 458 1589 462 1589 467 c 1
 1324 202 l 1
 1321 194 1319 186 1316 179 c 1
 1590 453 l 1
1136 -1 m 1
 1158 21 l 1
 1150 18 1143 15 1135 13 c 1
 1120 -2 l 1
 1125 -2 1131 -1 1136 -1 c 1
1587 480 m 1
 1586 484 1586 489 1585 493 c 1
 1335 243 l 1
 1334 236 1332 229 1330 223 c 1
 1587 480 l 1
1120 -2 m 1
 1115 -2 1109 -3 1104 -3 c 1
 1109 -3 1115 -2 1120 -2 c 1
1114 7 m 1
 1108 5 1102 4 1095 3 c 1
 1088 -4 l 1
 1093 -4 1099 -3 1104 -3 c 1
 1114 7 l 1
1583 506 m 1
 1582 510 1581 514 1580 518 c 1
 1342 280 l 1
 1341 274 1340 268 1339 262 c 1
 1583 506 l 1
1076 -1 m 1
 1070 -2 1064 -3 1058 -4 c 1
 1057 -5 l 1
 1062 -5 1067 -5 1072 -5 c 1
 1076 -1 l 1
1057 -5 m 1
 1055 -5 1052 -5 1050 -5 c 1
 1052 -5 1055 -5 1057 -5 c 1
1577 530 m 1
 1576 534 1575 538 1574 542 c 1
 1346 314 l 1
 1345 308 1345 303 1344 297 c 1
 1577 530 l 1
1570 553 m 1
 1569 557 1567 560 1566 564 c 1
 1349 347 l 1
 1349 342 1347 335 1347 330 c 1
 1570 553 l 1
1561 574 m 1
 1560 577 1559 582 1557 585 c 1
 1350 378 l 1
 1350 383 1350 388 1350 393 c 1
 1350 383 1349 372 1349 362 c 1
 1561 574 l 1
1552 595 m 1
 1550 598 1549 602 1547 605 c 1
 1350 408 l 1
 1350 405 1350 403 1350 400 c 0
 1350 398 1350 395 1350 393 c 1
 1552 595 l 1
1541 614 m 1
 1539 617 1537 620 1535 623 c 1
 1349 437 l 1
 1349 432 1350 428 1350 423 c 1
 1541 614 l 1
1529 632 m 1
 1527 635 1525 638 1523 641 c 1
 1348 466 l 1
 1348 461 1349 457 1349 452 c 1
 1529 632 l 1
1516 649 m 1
 1514 652 1511 654 1509 657 c 1
 1346 494 l 1
 1346 489 1347 485 1347 480 c 1
 1516 649 l 1
1502 665 m 1
 1500 668 1498 670 1495 673 c 1
 1344 522 l 1
 1345 518 1345 513 1345 508 c 1
 1502 665 l 1
1487 680 m 1
 1484 682 1483 686 1480 688 c 1
 1340 548 l 1
 1341 544 1341 539 1342 535 c 1
 1487 680 l 1
1472 695 m 1
 1469 697 1466 699 1463 701 c 1
 1335 573 l 1
 1336 569 1337 565 1338 561 c 1
 1472 695 l 1
1455 708 m 1
 1452 710 1449 712 1446 714 c 1
 1330 598 l 1
 1331 594 1332 590 1333 586 c 1
 1455 708 l 1
1437 720 m 1
 1434 722 1431 724 1428 726 c 1
 1323 621 l 1
 1324 617 1326 614 1327 610 c 1
 1437 720 l 1
714 27 m 1
 716 29 l 1
 713 31 709 32 706 34 c 1
 703 31 l 1
 707 30 710 28 714 27 c 1
716 29 m 1
 717 28 718 27 720 26 c 1
 718 27 717 28 716 29 c 1
1418 731 m 1
 1415 733 1412 735 1409 737 c 1
 1316 644 l 1
 1317 640 1319 637 1320 633 c 1
 1418 731 l 1
691 34 m 1
 697 40 l 1
 694 42 692 45 689 47 c 1
 680 38 l 1
 684 37 687 35 691 34 c 1
1399 742 m 1
 1396 744 1392 745 1389 747 c 1
 1307 665 l 1
 1309 662 1311 659 1312 655 c 1
 1399 742 l 1
680 38 m 1
 676 39 672 40 668 41 c 1
 672 40 676 39 680 38 c 1
668 41 m 1
 681 54 l 1
 678 56 676 59 673 61 c 1
 657 45 l 1
 661 44 664 42 668 41 c 1
1379 752 m 1
 1376 754 1372 754 1368 756 c 1
 1297 685 l 1
 1299 682 1300 678 1302 675 c 1
 1379 752 l 1
646 49 m 1
 665 68 l 1
 663 71 660 73 658 76 c 1
 635 53 l 1
 639 52 642 50 646 49 c 1
1358 761 m 1
 1354 762 1351 764 1347 765 c 1
 1286 704 l 1
 1288 701 1290 698 1292 695 c 1
 1358 761 l 1
624 57 m 1
 651 84 l 1
 649 87 646 89 644 92 c 1
 613 61 l 1
 617 60 620 58 624 57 c 1
1336 769 m 1
 1332 770 1329 772 1325 773 c 1
 1273 721 l 1
 1275 718 1278 716 1280 713 c 1
 1336 769 l 1
602 65 m 1
 638 101 l 1
 636 104 634 107 632 110 c 1
 592 70 l 1
 596 68 598 66 602 65 c 1
1313 776 m 1
 1309 777 1306 779 1302 780 c 1
 1260 738 l 1
 1262 735 1265 733 1267 730 c 1
 1313 776 l 1
582 75 m 1
 625 118 l 1
 623 121 621 124 619 127 c 1
 571 79 l 1
 574 77 579 77 582 75 c 1
1290 783 m 1
 1286 784 1282 785 1278 786 c 1
 1244 752 l 1
 1247 750 1249 747 1252 745 c 1
 1290 783 l 1
561 84 m 1
 614 137 l 1
 612 140 610 143 608 146 c 1
 551 89 l 1
 554 87 558 86 561 84 c 1
1266 789 m 1
 1262 790 1258 791 1254 792 c 1
 1227 765 l 1
 1230 763 1233 761 1236 759 c 1
 1266 789 l 1
551 89 m 1
 548 91 544 92 541 94 c 1
 544 92 548 91 551 89 c 1
541 94 m 1
 603 156 l 1
 601 159 599 162 597 165 c 1
 531 99 l 1
 534 97 538 96 541 94 c 1
1241 794 m 1
 1237 795 1233 796 1229 797 c 1
 1209 777 l 1
 1212 775 1215 773 1218 771 c 1
 1241 794 l 1
521 104 m 1
 592 175 l 1
 590 178 589 182 587 185 c 1
 512 110 l 1
 515 108 518 106 521 104 c 1
1408 991 m 1
 1490 1073 l 1
 1493 1080 1495 1087 1497 1095 c 1
 1386 984 l 1
 1393 986 1401 988 1408 991 c 1
1439 1007 m 1
 1452 1016 1464 1027 1474 1042 c 1
 1439 1007 l 1
1216 799 m 1
 1212 800 1207 800 1203 801 c 1
 1189 787 l 1
 1192 785 1196 784 1199 782 c 1
 1216 799 l 1
502 115 m 1
 582 195 l 1
 580 198 580 203 578 206 c 1
 493 121 l 1
 496 119 499 117 502 115 c 1
1368 981 m 1
 1500 1113 l 1
 1501 1118 1502 1124 1502 1130 c 1
 1351 979 l 1
 1357 979 1362 980 1368 981 c 1
1190 803 m 1
 1186 804 1181 804 1177 805 c 1
 1168 796 l 1
 1172 795 1174 792 1178 791 c 1
 1190 803 l 1
483 126 m 1
 573 216 l 1
 571 219 569 222 568 226 c 1
 474 132 l 1
 477 130 480 128 483 126 c 1
1336 979 m 1
 1337 979 l 1
 1336 979 l 1
1336 979 m 1
 1503 1146 l 1
 1503 1148 1503 1151 1503 1153 c 0
 1503 1156 1503 1158 1503 1161 c 1
 1321 979 l 1
 1326 979 1331 979 1336 979 c 1
1163 806 m 1
 1158 806 1155 808 1150 808 c 1
 1144 802 l 1
 1148 801 1152 800 1156 799 c 1
 1163 806 l 1
465 138 m 1
 564 237 l 1
 563 241 561 244 560 248 c 1
 456 144 l 1
 459 142 462 140 465 138 c 1
1307 980 m 1
 1502 1175 l 1
 1501 1179 1501 1184 1500 1188 c 1
 1294 982 l 1
 1298 981 1302 980 1307 980 c 1
1136 809 m 1
 1131 809 1127 810 1122 810 c 1
 1119 807 l 1
 1123 806 1128 806 1132 805 c 1
 1136 809 l 1
447 150 m 1
 556 259 l 1
 555 263 553 266 552 270 c 1
 438 156 l 1
 441 154 444 152 447 150 c 1
1281 984 m 1
 1497 1200 l 1
 1496 1204 1494 1207 1493 1211 c 1
 1269 987 l 1
 1273 986 1277 985 1281 984 c 1
1108 811 m 1
 1103 811 1098 811 1093 811 c 1
 1093 811 l 1
 1098 811 1102 810 1106 809 c 1
 1108 811 l 1
430 163 m 1
 548 281 l 1
 547 285 545 288 544 292 c 1
 421 169 l 1
 424 167 427 165 430 163 c 1
1257 990 m 1
 1489 1222 l 1
 1488 1226 1487 1230 1485 1233 c 1
 1246 994 l 1
 1250 993 1253 991 1257 990 c 1
413 176 m 1
 540 303 l 1
 539 307 538 311 537 315 c 1
 405 183 l 1
 408 181 410 178 413 176 c 1
1235 998 m 1
 1480 1243 l 1
 1478 1246 1477 1250 1475 1253 c 1
 1225 1003 l 1
 1228 1001 1232 1000 1235 998 c 1
396 189 m 1
 533 326 l 1
 532 330 531 334 530 338 c 1
 388 196 l 1
 391 194 393 191 396 189 c 1
1215 1008 m 1
 1469 1262 l 1
 1467 1265 1465 1268 1463 1271 c 1
 1206 1014 l 1
 1209 1012 1212 1010 1215 1008 c 1
380 203 m 1
 527 350 l 1
 526 354 524 357 523 361 c 1
 372 210 l 1
 375 208 377 205 380 203 c 1
1198 1021 m 1
 1456 1279 l 1
 1454 1282 1451 1284 1449 1287 c 1
 1190 1028 l 1
 1193 1026 1195 1023 1198 1021 c 1
365 218 m 1
 520 373 l 1
 519 377 518 381 517 385 c 1
 357 225 l 1
 360 223 362 220 365 218 c 1
1183 1036 m 1
 1442 1295 l 1
 1440 1298 1438 1301 1435 1303 c 1
 1176 1044 l 1
 1178 1041 1181 1039 1183 1036 c 1
350 233 m 1
 515 398 l 1
 514 402 513 406 512 410 c 1
 342 240 l 1
 344 237 348 236 350 233 c 1
1169 1052 m 1
 1427 1310 l 1
 1424 1312 1422 1315 1419 1317 c 1
 1164 1062 l 1
 1166 1059 1167 1055 1169 1052 c 1
335 248 m 1
 509 422 l 1
 508 426 508 431 507 435 c 1
 328 256 l 1
 330 253 333 251 335 248 c 1
1159 1072 m 1
 1411 1324 l 1
 1408 1326 1405 1328 1402 1330 c 1
 1154 1082 l 1
 1155 1078 1157 1075 1159 1072 c 1
321 264 m 1
 504 447 l 1
 503 451 503 456 502 460 c 1
 314 272 l 1
 316 269 319 267 321 264 c 1
1151 1094 m 1
 1393 1336 l 1
 1390 1338 1387 1340 1384 1342 c 1
 1148 1106 l 1
 1149 1102 1150 1098 1151 1094 c 1
308 281 m 1
 500 473 l 1
 499 477 498 481 497 485 c 1
 301 289 l 1
 303 286 306 284 308 281 c 1
1145 1118 m 1
 1375 1348 l 1
 1372 1350 1368 1351 1365 1353 c 1
 1144 1132 l 1
 1144 1127 1144 1122 1145 1118 c 1
295 298 m 1
 495 498 l 1
 494 502 495 508 494 512 c 1
 289 307 l 1
 291 304 293 301 295 298 c 1
1143 1146 m 1
 1355 1358 l 1
 1352 1360 1348 1361 1345 1363 c 1
 1143 1161 l 1
 1143 1158 1143 1155 1143 1152 c 0
 1143 1150 1143 1148 1143 1146 c 1
282 315 m 1
 492 525 l 1
 491 529 491 534 490 538 c 1
 276 324 l 1
 278 321 280 318 282 315 c 1
1334 1367 m 1
 1330 1368 1327 1370 1323 1371 c 1
 1307 1355 l 1
 1310 1351 1311 1347 1311 1344 c 1
 1334 1367 l 1
1277 1310 m 1
 1269 1307 1261 1304 1252 1300 c 1
 1148 1196 l 1
 1147 1190 1145 1183 1144 1177 c 1
 1277 1310 l 1
271 334 m 1
 488 551 l 1
 487 556 487 560 487 565 c 1
 265 343 l 1
 267 340 269 337 271 334 c 1
1312 1375 m 1
 1308 1376 1305 1378 1301 1379 c 1
 1292 1370 l 1
 1295 1368 1298 1365 1300 1363 c 1
 1312 1375 l 1
1225 1288 m 1
 1197 1274 1170 1254 1155 1218 c 1
 1225 1288 l 1
259 352 m 1
 486 579 l 1
 486 584 484 587 484 592 c 1
 254 362 l 1
 256 359 257 355 259 352 c 1
1289 1382 m 1
 1285 1383 1281 1384 1277 1385 c 1
 1272 1380 l 1
 1276 1378 1279 1377 1282 1375 c 1
 1289 1382 l 1
249 372 m 1
 483 606 l 1
 483 611 482 615 482 620 c 1
 244 382 l 1
 246 379 247 375 249 372 c 1
1265 1388 m 1
 1261 1389 1256 1389 1252 1390 c 1
 1250 1388 l 1
 1254 1387 1258 1385 1261 1384 c 1
 1265 1388 l 1
239 392 m 1
 482 635 l 1
 482 640 481 644 481 649 c 1
 234 402 l 1
 236 399 237 395 239 392 c 1
230 413 m 1
 481 664 l 1
 481 669 480 673 480 678 c 1
 225 423 l 1
 226 419 229 417 230 413 c 1
480 678 m 1
 480 685 480 693 480 700 c 0
 480 703 480 705 480 708 c 1
 217 445 l 1
 218 441 220 438 221 434 c 1
 480 693 l 1
 480 688 480 683 480 678 c 1
480 723 m 1
 480 728 481 734 481 739 c 1
 209 467 l 1
 210 463 212 460 213 456 c 1
 480 723 l 1
481 754 m 1
 481 759 482 765 482 770 c 1
 203 491 l 1
 204 487 205 483 206 479 c 1
 481 754 l 1
483 786 m 1
 483 791 484 797 484 802 c 1
 197 515 l 1
 198 511 199 507 200 503 c 1
 483 786 l 1
485 818 m 1
 485 824 485 829 486 834 c 1
 192 540 l 1
 193 536 193 531 194 527 c 1
 485 818 l 1
488 851 m 1
 489 857 489 862 490 868 c 1
 187 565 l 1
 188 561 188 556 189 552 c 1
 488 851 l 1
492 885 m 1
 493 891 494 897 495 903 c 1
 184 592 l 1
 184 587 185 583 186 579 c 1
 492 885 l 1
498 921 m 1
 499 927 500 933 501 939 c 1
 182 620 l 1
 182 615 183 611 183 606 c 1
 498 921 l 1
504 957 m 1
 505 963 507 970 508 976 c 1
 180 648 l 1
 180 643 181 639 181 634 c 1
 504 957 l 1
512 995 m 1
 513 1002 515 1009 517 1015 c 1
 180 678 l 1
 180 675 180 673 180 670 c 0
 180 668 180 665 180 663 c 1
 512 995 l 1
522 1035 m 1
 524 1042 525 1048 527 1055 c 1
 181 709 l 1
 181 704 180 698 180 693 c 1
 522 1035 l 1
534 1077 m 1
 536 1084 539 1092 541 1099 c 1
 183 741 l 1
 183 736 182 730 182 725 c 1
 534 1077 l 1
549 1122 m 1
 552 1130 556 1139 559 1147 c 1
 186 774 l 1
 185 768 185 763 184 757 c 1
 549 1122 l 1
570 1173 m 1
 574 1183 579 1193 584 1202 c 1
 192 810 l 1
 191 804 190 798 189 792 c 1
 570 1173 l 1
602 1235 m 1
 612 1252 624 1268 635 1283 c 1
 199 847 l 1
 198 841 196 834 195 828 c 1
 602 1235 l 1
693 1341 m 1
 702 1348 711 1354 720 1359 c 1
 716 1358 713 1358 709 1357 c 1
 693 1341 l 1
689 1352 m 1
 682 1350 675 1348 668 1346 c 1
 209 887 l 1
 207 880 205 873 203 866 c 1
 689 1352 l 1
647 1340 m 1
 639 1338 632 1335 624 1332 c 1
 223 931 l 1
 220 924 217 916 215 908 c 1
 647 1340 l 1
600 1323 m 1
 591 1319 583 1316 574 1312 c 1
 243 981 l 1
 239 972 235 964 232 955 c 1
 600 1323 l 1
545 1298 m 1
 534 1292 524 1287 513 1281 c 1
 274 1042 l 1
 268 1031 262 1020 256 1009 c 1
 545 1298 l 1
472 1255 m 1
 449 1239 426 1222 405 1203 c 1
 351 1149 l 1
 332 1128 315 1106 299 1082 c 1
 472 1255 l 1
EndSplineSet
EndChar

StartChar: seven
Encoding: 55 55 42
GlifName: seven
Width: 1635
VWidth: 2308
Flags: HMW
LayerCount: 2
Fore
SplineSet
561 292 m 0
 561 520 715 673 909 796 c 0
 1014 863 1477 1095 1554 1334 c 1
 1472 1181 1140 994 836 994 c 0
 613 994 532 1108 363 1108 c 0
 280 1108 211 1056 190 973 c 1
 190 804 l 1
 160 804 l 1
 160 1400 l 1
 190 1400 l 1
 190 1072 l 1
 263 1258 488 1418 773 1418 c 0
 1070 1418 1113 1254 1334 1254 c 0
 1462 1254 1533 1336 1553 1400 c 1
 1595 1400 l 1
 1595 1141 1218 961 1047 787 c 0
 943 681 895 562 895 444 c 0
 895 310 971 216 1171 246 c 1
 1171 112 1041 -20 863 -20 c 0
 683 -20 561 84 561 292 c 0
988 91 m 1
 994 101 999 111 1004 122 c 1
 908 26 l 1
 919 31 929 36 939 42 c 1
 988 91 l 1
885 18 m 1
 1012 145 l 1
 1014 151 1015 157 1016 164 c 1
 866 14 l 1
 873 15 879 16 885 18 c 1
848 11 m 1
 1019 182 l 1
 1020 187 1021 193 1021 199 c 1
 832 10 l 1
 837 10 843 10 848 11 c 1
817 10 m 1
 1021 214 l 2
 1021 215 1021 215 1021 216 c 0
 1017 216 1013 217 1009 217 c 1
 802 10 l 1
 807 10 812 10 817 10 c 1
788 11 m 1
 793 11 797 10 802 10 c 1
 797 10 793 11 788 11 c 1
788 11 m 1
 995 218 l 1
 990 218 985 219 981 219 c 1
 775 13 l 1
 779 12 783 11 788 11 c 1
762 15 m 1
 968 221 l 1
 964 222 959 222 955 223 c 1
 750 18 l 1
 754 17 758 16 762 15 c 1
738 21 m 1
 942 225 l 1
 938 226 933 226 929 227 c 1
 726 24 l 1
 730 23 734 22 738 21 c 1
726 24 m 1
 722 25 720 28 716 29 c 1
 720 28 722 25 726 24 c 1
716 29 m 1
 917 230 l 1
 913 231 909 232 905 233 c 1
 705 33 l 1
 708 31 712 30 716 29 c 1
705 33 m 1
 702 35 698 36 695 38 c 1
 698 36 702 35 705 33 c 1
695 38 m 1
 894 237 l 1
 890 238 887 240 883 241 c 1
 685 43 l 1
 688 41 692 40 695 38 c 1
685 43 m 1
 682 45 679 47 676 49 c 1
 679 47 682 45 685 43 c 1
676 49 m 1
 872 245 l 1
 868 246 864 247 861 249 c 1
 667 55 l 1
 670 53 673 51 676 49 c 1
659 62 m 1
 662 60 664 57 667 55 c 1
 664 57 662 60 659 62 c 1
659 62 m 1
 851 254 l 1
 848 256 845 258 842 260 c 1
 651 69 l 1
 654 67 656 64 659 62 c 1
643 76 m 1
 832 265 l 1
 829 267 826 269 823 271 c 1
 636 84 l 1
 638 81 641 79 643 76 c 1
629 92 m 1
 815 278 l 1
 812 280 810 283 807 285 c 1
 623 101 l 1
 625 98 627 95 629 92 c 1
617 110 m 1
 799 292 l 1
 797 295 794 297 792 300 c 1
 611 119 l 1
 613 116 615 113 617 110 c 1
606 129 m 1
 785 308 l 1
 783 311 781 314 779 317 c 1
 601 139 l 1
 603 136 604 132 606 129 c 1
596 149 m 1
 773 326 l 1
 771 329 770 333 768 336 c 1
 592 160 l 1
 593 156 595 153 596 149 c 1
588 171 m 1
 763 346 l 1
 761 350 760 353 759 357 c 1
 585 183 l 1
 586 179 587 175 588 171 c 1
582 195 m 1
 755 368 l 1
 754 372 753 376 752 380 c 1
 579 207 l 1
 580 203 581 199 582 195 c 1
577 220 m 1
 749 392 l 1
 748 396 748 401 747 405 c 1
 575 233 l 1
 576 229 576 224 577 220 c 1
573 246 m 1
 746 419 l 1
 746 424 745 428 745 433 c 1
 572 260 l 1
 572 255 573 251 573 246 c 1
571 274 m 1
 745 448 l 1
 745 453 746 459 746 464 c 1
 571 289 l 1
 571 284 571 279 571 274 c 1
747 480 m 1
 748 486 748 491 749 497 c 1
 572 320 l 1
 572 315 571 309 571 304 c 1
 747 480 l 1
752 515 m 1
 753 522 755 528 757 535 c 1
 575 353 l 1
 574 347 574 342 573 336 c 1
 752 515 l 1
763 556 m 1
 766 564 769 572 772 580 c 1
 582 390 l 1
 581 384 579 377 578 371 c 1
 763 556 l 1
1385 1178 m 1
 1515 1308 l 2
 1482 1276 1449 1257 1425 1233 c 2
 1343 1151 l 1
 1358 1160 1372 1169 1385 1178 c 1
784 607 m 1
 789 618 795 628 801 639 c 1
 593 431 l 1
 591 424 589 417 587 410 c 1
 784 607 l 1
1309 1132 m 1
 1389 1212 l 1
 1380 1207 1370 1203 1361 1199 c 1
 1277 1115 l 1
 1288 1120 1299 1126 1309 1132 c 1
829 682 m 1
 851 713 878 744 908 775 c 1
 907 775 l 1
 614 482 l 1
 610 473 606 464 602 455 c 1
 829 682 l 1
1249 1102 m 1
 1338 1191 l 1
 1331 1189 1324 1187 1317 1185 c 1
 1222 1090 l 1
 1231 1094 1240 1098 1249 1102 c 1
887 770 m 1
 869 758 853 746 836 734 c 1
 655 553 l 1
 646 540 638 527 630 513 c 1
 887 770 l 1
1196 1079 m 1
 1299 1182 l 1
 1293 1181 1287 1180 1281 1179 c 1
 1172 1070 l 1
 1180 1073 1188 1076 1196 1079 c 1
1148 1061 m 1
 1264 1177 l 1
 1259 1176 1254 1176 1248 1176 c 1
 1126 1054 l 1
 1134 1056 1141 1058 1148 1061 c 1
1104 1047 m 1
 1232 1175 l 1
 1227 1175 1221 1174 1216 1174 c 1
 1083 1041 l 1
 1090 1043 1097 1045 1104 1047 c 1
1062 1035 m 1
 1201 1174 l 1
 1196 1174 1192 1174 1187 1174 c 0
 1186 1174 l 2
 1042 1030 l 1
 1049 1032 1055 1033 1062 1035 c 1
1023 1026 m 1
 1171 1174 l 1
 1166 1174 1162 1175 1157 1175 c 1
 1004 1022 l 1
 1010 1023 1017 1025 1023 1026 c 1
985 1018 m 1
 1143 1176 l 1
 1139 1176 1134 1177 1130 1178 c 1
 967 1015 l 1
 973 1016 979 1017 985 1018 c 1
949 1012 m 1
 1117 1180 l 1
 1113 1181 1109 1182 1105 1183 c 1
 932 1010 l 1
 938 1011 943 1011 949 1012 c 1
915 1008 m 1
 1092 1185 l 1
 1088 1186 1084 1187 1080 1188 c 1
 899 1007 l 1
 904 1007 909 1007 915 1008 c 1
882 1005 m 1
 1069 1192 l 1
 1065 1193 1061 1194 1057 1195 c 1
 867 1005 l 1
 872 1005 877 1005 882 1005 c 1
851 1004 m 1
 1046 1199 l 1
 1042 1200 1038 1201 1034 1202 c 1
 836 1004 l 1
 841 1004 846 1004 851 1004 c 1
821 1004 m 1
 1023 1206 l 1
 1019 1207 1016 1209 1012 1210 c 1
 807 1005 l 1
 812 1005 816 1004 821 1004 c 1
792 1005 m 1
 1002 1215 l 1
 998 1216 995 1218 991 1219 c 1
 779 1007 l 1
 784 1007 787 1005 792 1005 c 1
765 1008 m 1
 980 1223 l 1
 976 1224 974 1227 970 1228 c 1
 752 1010 l 1
 756 1009 761 1009 765 1008 c 1
739 1012 m 1
 959 1232 l 1
 955 1233 952 1235 948 1236 c 1
 726 1014 l 1
 730 1013 735 1013 739 1012 c 1
714 1017 m 1
 938 1241 l 1
 934 1242 931 1244 927 1245 c 1
 702 1020 l 1
 706 1019 710 1018 714 1017 c 1
690 1023 m 1
 917 1250 l 1
 913 1251 910 1253 906 1254 c 1
 678 1026 l 1
 682 1025 686 1024 690 1023 c 1
666 1029 m 1
 896 1259 l 1
 892 1260 889 1262 885 1263 c 1
 655 1033 l 1
 659 1032 662 1030 666 1029 c 1
644 1037 m 1
 874 1267 l 1
 870 1268 867 1270 863 1271 c 1
 633 1041 l 1
 637 1040 640 1038 644 1037 c 1
622 1045 m 1
 852 1275 l 1
 848 1276 845 1278 841 1279 c 1
 611 1049 l 1
 615 1048 618 1046 622 1045 c 1
600 1053 m 1
 830 1283 l 1
 826 1284 823 1286 819 1287 c 1
 590 1058 l 1
 594 1057 596 1054 600 1053 c 1
579 1062 m 1
 807 1290 l 1
 803 1291 800 1293 796 1294 c 1
 569 1067 l 1
 573 1066 575 1063 579 1062 c 1
558 1071 m 1
 784 1297 l 1
 780 1298 776 1299 772 1300 c 1
 548 1076 l 1
 552 1075 554 1072 558 1071 c 1
537 1080 m 1
 760 1303 l 1
 756 1304 752 1305 748 1306 c 1
 526 1084 l 1
 530 1083 533 1081 537 1080 c 1
515 1088 m 1
 735 1308 l 1
 731 1309 726 1309 722 1310 c 1
 504 1092 l 1
 508 1091 511 1089 515 1088 c 1
493 1096 m 1
 709 1312 l 1
 705 1313 701 1314 696 1314 c 1
 482 1100 l 1
 486 1099 489 1097 493 1096 c 1
470 1103 m 1
 682 1315 l 1
 677 1315 673 1316 668 1316 c 1
 458 1106 l 1
 462 1105 466 1104 470 1103 c 1
446 1109 m 1
 654 1317 l 1
 649 1317 644 1317 639 1317 c 1
 434 1112 l 1
 438 1111 442 1110 446 1109 c 1
421 1114 m 1
 624 1317 l 1
 619 1317 613 1316 608 1316 c 1
 408 1116 l 1
 412 1115 417 1115 421 1114 c 1
394 1117 m 1
 591 1314 l 1
 585 1313 580 1313 574 1312 c 1
 380 1118 l 1
 385 1118 389 1117 394 1117 c 1
365 1118 m 2
 555 1308 l 1
 548 1307 543 1306 536 1304 c 1
 350 1118 l 1
 354 1118 359 1118 363 1118 c 0
 364 1118 364 1118 365 1118 c 2
333 1116 m 1
 515 1298 l 1
 507 1296 500 1293 492 1290 c 1
 315 1113 l 1
 321 1114 327 1115 333 1116 c 1
293 1106 m 1
 468 1281 l 1
 459 1277 449 1272 440 1268 c 1
 261 1089 l 1
 271 1096 282 1102 293 1106 c 1
195 1023 m 1
 193 1018 191 1012 189 1007 c 1
 195 1017 201 1026 207 1035 c 1
 195 1023 l 1
409 1252 m 1
 396 1245 383 1236 370 1228 c 1
 226 1084 l 1
 219 1073 212 1061 206 1049 c 1
 409 1252 l 1
295 1168 m 2
 291 1164 286 1159 282 1155 c 2
 295 1168 l 2
EndSplineSet
EndChar

StartChar: plus
Encoding: 43 43 43
GlifName: plus
Width: 1350
VWidth: 0
Flags: HMW
LayerCount: 2
Fore
SplineSet
570 1000 m 5
 770 1000 l 5
 770 600 l 5
 1170 600 l 5
 1170 420 l 5
 770 420 l 5
 770 20 l 5
 570 20 l 5
 570 420 l 5
 180 420 l 5
 180 600 l 5
 570 600 l 5
 570 1000 l 5
687 30 m 5
 690 33 l 5
 690 48 l 5
 672 30 l 5
 687 30 l 5
657 30 m 5
 690 63 l 5
 690 78 l 5
 642 30 l 5
 657 30 l 5
627 30 m 5
 690 93 l 5
 690 108 l 5
 612 30 l 5
 627 30 l 5
597 30 m 5
 690 123 l 5
 690 138 l 5
 582 30 l 5
 597 30 l 5
997 430 m 5
 1020 453 l 5
 1020 468 l 5
 982 430 l 5
 997 430 l 5
1012 430 m 5
 1020 430 l 5
 1020 438 l 5
 1012 430 l 5
580 43 m 5
 690 153 l 5
 690 168 l 5
 580 58 l 5
 580 43 l 5
967 430 m 5
 1020 483 l 5
 1020 498 l 5
 952 430 l 5
 967 430 l 5
580 73 m 5
 690 183 l 5
 690 198 l 5
 580 88 l 5
 580 73 l 5
937 430 m 5
 1020 513 l 5
 1020 528 l 5
 922 430 l 5
 937 430 l 5
580 103 m 5
 690 213 l 5
 690 228 l 5
 580 118 l 5
 580 103 l 5
907 430 m 5
 1020 543 l 5
 1020 558 l 5
 892 430 l 5
 907 430 l 5
580 133 m 5
 690 243 l 5
 690 258 l 5
 580 148 l 5
 580 133 l 5
877 430 m 5
 1020 573 l 5
 1020 588 l 5
 862 430 l 5
 877 430 l 5
580 163 m 5
 690 273 l 5
 690 288 l 5
 580 178 l 5
 580 163 l 5
847 430 m 5
 1007 590 l 5
 992 590 l 5
 832 430 l 5
 847 430 l 5
580 193 m 5
 690 303 l 5
 690 318 l 5
 580 208 l 5
 580 193 l 5
817 430 m 5
 977 590 l 5
 962 590 l 5
 802 430 l 5
 817 430 l 5
580 223 m 5
 690 333 l 5
 690 348 l 5
 580 238 l 5
 580 223 l 5
787 430 m 5
 947 590 l 5
 932 590 l 5
 772 430 l 5
 787 430 l 5
580 253 m 5
 690 363 l 5
 690 378 l 5
 580 268 l 5
 580 253 l 5
757 430 m 5
 917 590 l 5
 902 590 l 5
 742 430 l 5
 757 430 l 5
580 283 m 5
 690 393 l 5
 690 408 l 5
 580 298 l 5
 580 283 l 5
727 430 m 5
 887 590 l 5
 872 590 l 5
 712 430 l 5
 727 430 l 5
580 313 m 5
 690 423 l 5
 690 430 l 5
 697 430 l 5
 857 590 l 5
 842 590 l 5
 580 328 l 5
 580 313 l 5
580 343 m 5
 827 590 l 5
 812 590 l 5
 580 358 l 5
 580 343 l 5
580 373 m 5
 797 590 l 5
 782 590 l 5
 580 388 l 5
 580 373 l 5
580 403 m 5
 767 590 l 5
 752 590 l 5
 580 418 l 5
 580 403 l 5
577 430 m 5
 737 590 l 5
 722 590 l 5
 562 430 l 5
 577 430 l 5
547 430 m 5
 707 590 l 5
 692 590 l 5
 532 430 l 5
 547 430 l 5
517 430 m 5
 690 603 l 5
 690 618 l 5
 502 430 l 5
 517 430 l 5
487 430 m 5
 690 633 l 5
 690 648 l 5
 472 430 l 5
 487 430 l 5
457 430 m 5
 690 663 l 5
 690 678 l 5
 442 430 l 5
 457 430 l 5
427 430 m 5
 690 693 l 5
 690 708 l 5
 580 598 l 5
 580 590 l 5
 572 590 l 5
 412 430 l 5
 427 430 l 5
557 590 m 5
 542 590 l 5
 382 430 l 5
 397 430 l 5
 557 590 l 5
690 723 m 5
 690 738 l 5
 580 628 l 5
 580 613 l 5
 690 723 l 5
527 590 m 5
 512 590 l 5
 352 430 l 5
 367 430 l 5
 527 590 l 5
690 753 m 5
 690 768 l 5
 580 658 l 5
 580 643 l 5
 690 753 l 5
497 590 m 5
 482 590 l 5
 322 430 l 5
 337 430 l 5
 497 590 l 5
690 783 m 5
 690 798 l 5
 580 688 l 5
 580 673 l 5
 690 783 l 5
467 590 m 5
 452 590 l 5
 292 430 l 5
 307 430 l 5
 467 590 l 5
690 813 m 5
 690 828 l 5
 580 718 l 5
 580 703 l 5
 690 813 l 5
437 590 m 5
 422 590 l 5
 262 430 l 5
 277 430 l 5
 437 590 l 5
690 843 m 5
 690 858 l 5
 580 748 l 5
 580 733 l 5
 690 843 l 5
407 590 m 5
 392 590 l 5
 232 430 l 5
 247 430 l 5
 407 590 l 5
690 873 m 5
 690 888 l 5
 580 778 l 5
 580 763 l 5
 690 873 l 5
377 590 m 5
 362 590 l 5
 202 430 l 5
 217 430 l 5
 377 590 l 5
690 903 m 5
 690 918 l 5
 580 808 l 5
 580 793 l 5
 690 903 l 5
347 590 m 5
 332 590 l 5
 190 448 l 5
 190 433 l 5
 347 590 l 5
690 933 m 5
 690 948 l 5
 580 838 l 5
 580 823 l 5
 690 933 l 5
317 590 m 5
 302 590 l 5
 190 478 l 5
 190 463 l 5
 317 590 l 5
690 963 m 5
 690 978 l 5
 580 868 l 5
 580 853 l 5
 690 963 l 5
287 590 m 5
 272 590 l 5
 190 508 l 5
 190 493 l 5
 287 590 l 5
580 883 m 5
 687 990 l 5
 672 990 l 5
 580 898 l 5
 580 883 l 5
257 590 m 5
 242 590 l 5
 190 538 l 5
 190 523 l 5
 257 590 l 5
657 990 m 5
 642 990 l 5
 580 928 l 5
 580 913 l 5
 657 990 l 5
227 590 m 5
 212 590 l 5
 190 568 l 5
 190 553 l 5
 227 590 l 5
627 990 m 5
 612 990 l 5
 580 958 l 5
 580 943 l 5
 627 990 l 5
197 590 m 5
 190 590 l 5
 190 583 l 5
 197 590 l 5
597 990 m 5
 582 990 l 5
 580 988 l 5
 580 973 l 5
 597 990 l 5
EndSplineSet
EndChar

StartChar: equal
Encoding: 61 61 44
GlifName: equal
Width: 1230
VWidth: 0
Flags: HMW
LayerCount: 2
Fore
SplineSet
130 580 m 5
 130 780 l 5
 1100 780 l 5
 1100 580 l 5
 130 580 l 5
130 230 m 5
 130 430 l 5
 1100 430 l 5
 1100 230 l 5
 130 230 l 5
927 240 m 5
 950 263 l 5
 950 278 l 5
 912 240 l 5
 927 240 l 5
942 240 m 5
 950 240 l 5
 950 248 l 5
 942 240 l 5
897 240 m 5
 950 293 l 5
 950 308 l 5
 882 240 l 5
 897 240 l 5
867 240 m 5
 950 323 l 5
 950 338 l 5
 852 240 l 5
 867 240 l 5
837 240 m 5
 950 353 l 5
 950 368 l 5
 822 240 l 5
 837 240 l 5
807 240 m 5
 950 383 l 5
 950 398 l 5
 792 240 l 5
 807 240 l 5
777 240 m 5
 937 400 l 5
 922 400 l 5
 762 240 l 5
 777 240 l 5
747 240 m 5
 907 400 l 5
 892 400 l 5
 732 240 l 5
 747 240 l 5
717 240 m 5
 877 400 l 5
 862 400 l 5
 702 240 l 5
 717 240 l 5
687 240 m 5
 847 400 l 5
 832 400 l 5
 672 240 l 5
 687 240 l 5
657 240 m 5
 817 400 l 5
 802 400 l 5
 642 240 l 5
 657 240 l 5
627 240 m 5
 787 400 l 5
 772 400 l 5
 612 240 l 5
 627 240 l 5
947 590 m 5
 950 593 l 5
 950 608 l 5
 932 590 l 5
 947 590 l 5
597 240 m 5
 757 400 l 5
 742 400 l 5
 582 240 l 5
 597 240 l 5
917 590 m 5
 950 623 l 5
 950 638 l 5
 902 590 l 5
 917 590 l 5
567 240 m 5
 727 400 l 5
 712 400 l 5
 552 240 l 5
 567 240 l 5
887 590 m 5
 950 653 l 5
 950 668 l 5
 872 590 l 5
 887 590 l 5
537 240 m 5
 697 400 l 5
 682 400 l 5
 522 240 l 5
 537 240 l 5
857 590 m 5
 950 683 l 5
 950 698 l 5
 842 590 l 5
 857 590 l 5
507 240 m 5
 667 400 l 5
 652 400 l 5
 492 240 l 5
 507 240 l 5
827 590 m 5
 950 713 l 5
 950 728 l 5
 812 590 l 5
 827 590 l 5
477 240 m 5
 637 400 l 5
 622 400 l 5
 462 240 l 5
 477 240 l 5
797 590 m 5
 950 743 l 5
 950 750 l 5
 942 750 l 5
 782 590 l 5
 797 590 l 5
447 240 m 5
 607 400 l 5
 592 400 l 5
 432 240 l 5
 447 240 l 5
767 590 m 5
 927 750 l 5
 912 750 l 5
 752 590 l 5
 767 590 l 5
417 240 m 5
 577 400 l 5
 562 400 l 5
 402 240 l 5
 417 240 l 5
737 590 m 5
 897 750 l 5
 882 750 l 5
 722 590 l 5
 737 590 l 5
387 240 m 5
 547 400 l 5
 532 400 l 5
 372 240 l 5
 387 240 l 5
707 590 m 5
 867 750 l 5
 852 750 l 5
 692 590 l 5
 707 590 l 5
357 240 m 5
 517 400 l 5
 502 400 l 5
 342 240 l 5
 357 240 l 5
677 590 m 5
 837 750 l 5
 822 750 l 5
 662 590 l 5
 677 590 l 5
327 240 m 5
 487 400 l 5
 472 400 l 5
 312 240 l 5
 327 240 l 5
647 590 m 5
 807 750 l 5
 792 750 l 5
 632 590 l 5
 647 590 l 5
297 240 m 5
 457 400 l 5
 442 400 l 5
 282 240 l 5
 297 240 l 5
617 590 m 5
 777 750 l 5
 762 750 l 5
 602 590 l 5
 617 590 l 5
267 240 m 5
 427 400 l 5
 412 400 l 5
 252 240 l 5
 267 240 l 5
587 590 m 5
 747 750 l 5
 732 750 l 5
 572 590 l 5
 587 590 l 5
237 240 m 5
 397 400 l 5
 382 400 l 5
 222 240 l 5
 237 240 l 5
557 590 m 5
 717 750 l 5
 702 750 l 5
 542 590 l 5
 557 590 l 5
207 240 m 5
 367 400 l 5
 352 400 l 5
 192 240 l 5
 207 240 l 5
527 590 m 5
 687 750 l 5
 672 750 l 5
 512 590 l 5
 527 590 l 5
177 240 m 5
 337 400 l 5
 322 400 l 5
 162 240 l 5
 177 240 l 5
497 590 m 5
 657 750 l 5
 642 750 l 5
 482 590 l 5
 497 590 l 5
147 240 m 5
 307 400 l 5
 292 400 l 5
 140 248 l 5
 140 240 l 5
 147 240 l 5
467 590 m 5
 627 750 l 5
 612 750 l 5
 452 590 l 5
 467 590 l 5
140 263 m 5
 277 400 l 5
 262 400 l 5
 140 278 l 5
 140 263 l 5
437 590 m 5
 597 750 l 5
 582 750 l 5
 422 590 l 5
 437 590 l 5
247 400 m 5
 232 400 l 5
 140 308 l 5
 140 293 l 5
 247 400 l 5
407 590 m 5
 567 750 l 5
 552 750 l 5
 392 590 l 5
 407 590 l 5
217 400 m 5
 202 400 l 5
 140 338 l 5
 140 323 l 5
 217 400 l 5
377 590 m 5
 537 750 l 5
 522 750 l 5
 362 590 l 5
 377 590 l 5
187 400 m 5
 172 400 l 5
 140 368 l 5
 140 353 l 5
 187 400 l 5
347 590 m 5
 507 750 l 5
 492 750 l 5
 332 590 l 5
 347 590 l 5
157 400 m 5
 142 400 l 5
 140 398 l 5
 140 383 l 5
 157 400 l 5
317 590 m 5
 477 750 l 5
 462 750 l 5
 302 590 l 5
 317 590 l 5
287 590 m 5
 447 750 l 5
 432 750 l 5
 272 590 l 5
 287 590 l 5
257 590 m 5
 417 750 l 5
 402 750 l 5
 242 590 l 5
 257 590 l 5
227 590 m 5
 387 750 l 5
 372 750 l 5
 212 590 l 5
 227 590 l 5
197 590 m 5
 357 750 l 5
 342 750 l 5
 182 590 l 5
 197 590 l 5
167 590 m 5
 327 750 l 5
 312 750 l 5
 152 590 l 5
 167 590 l 5
297 750 m 5
 282 750 l 5
 140 608 l 5
 140 593 l 5
 297 750 l 5
267 750 m 5
 252 750 l 5
 140 638 l 5
 140 623 l 5
 267 750 l 5
237 750 m 5
 222 750 l 5
 140 668 l 5
 140 653 l 5
 237 750 l 5
207 750 m 5
 192 750 l 5
 140 698 l 5
 140 683 l 5
 207 750 l 5
177 750 m 5
 162 750 l 5
 140 728 l 5
 140 713 l 5
 177 750 l 5
147 750 m 5
 140 750 l 5
 140 743 l 5
 147 750 l 5
EndSplineSet
EndChar

StartChar: percent
Encoding: 37 37 45
GlifName: percent
Width: 1922
VWidth: 0
Flags: HMW
LayerCount: 2
Fore
SplineSet
352 1060 m 0
 352 888 366 720 456 720 c 0
 546 720 560 888 560 1060 c 0
 560 1232 546 1400 456 1400 c 0
 366 1400 352 1232 352 1060 c 0
20 1060 m 0
 20 1248 196 1420 456 1420 c 0
 716 1420 892 1248 892 1060 c 0
 892 872 716 700 456 700 c 0
 196 700 20 872 20 1060 c 0
1362 340 m 0
 1362 168 1376 0 1466 0 c 0
 1556 0 1570 168 1570 340 c 0
 1570 512 1556 680 1466 680 c 0
 1376 680 1362 512 1362 340 c 0
1030 340 m 0
 1030 528 1186 700 1466 700 c 0
 1726 700 1902 528 1902 340 c 0
 1902 152 1726 -20 1466 -20 c 0
 1186 -20 1030 152 1030 340 c 0
1516 1400 m 1
 446 0 l 1
 406 0 l 1
 1476 1400 l 1
 1516 1400 l 1
1580 353 m 1
 1744 517 l 1
 1742 520 1741 524 1739 527 c 1
 1580 368 l 1
 1580 365 1580 361 1580 358 c 2
 1580 353 l 1
1275 138 m 1
 1276 134 1278 131 1279 127 c 1
 1208 56 l 1
 1211 54 1214 52 1217 50 c 1
 1283 116 l 1
 1279 127 1275 138 1271 149 c 1
 1190 68 l 1
 1193 66 1196 64 1199 62 c 1
 1275 138 l 1
1251 234 m 1
 1252 230 1252 225 1253 221 c 1
 1140 108 l 1
 1153 96 1167 84 1181 74 c 1
 1267 160 l 1
 1266 164 1265 168 1264 172 c 1
 1172 80 l 1
 1169 82 1167 85 1164 87 c 1
 1261 184 l 1
 1260 188 1259 192 1258 196 c 1
 1156 94 l 1
 1153 96 1151 99 1148 101 c 1
 1255 208 l 1
 1252 220 1251 234 1249 247 c 1
 1125 123 l 1
 1127 120 1130 118 1132 115 c 1
 1251 234 l 1
1288 571 m 1
 1283 562 1278 552 1274 542 c 1
 1041 309 l 1
 1041 304 1042 300 1043 296 c 1
 1265 518 l 1
 1277 554 1294 585 1313 611 c 1
 1040 338 l 1
 1040 333 1040 328 1040 323 c 1
 1288 571 l 1
763 976 m 1
 762 969 761 963 759 957 c 1
 527 725 l 1
 535 727 543 730 550 733 c 1
 753 936 l 1
 759 954 763 973 766 994 c 1
 528 756 l 1
 518 739 506 725 490 715 c 1
 495 716 501 718 506 719 c 1
 763 976 l 1
565 898 m 1
 769 1102 l 1
 769 1097 770 1093 770 1088 c 1
 563 881 l 1
 562 875 562 870 561 864 c 1
 771 1074 l 1
 771 1088 770 1102 768 1116 c 1
 566 914 l 1
 566 908 565 903 565 898 c 1
567 930 m 1
 766 1129 l 1
 765 1133 765 1138 764 1142 c 1
 568 946 l 1
 568 941 567 935 567 930 c 1
570 1053 m 1
 740 1223 l 1
 742 1219 743 1216 744 1212 c 1
 570 1038 l 1
 570 1043 570 1048 570 1053 c 1
570 1083 m 1
 730 1243 l 1
 728 1246 727 1250 725 1253 c 1
 570 1098 l 1
 570 1093 570 1088 570 1083 c 1
239 962 m 1
 240 958 241 954 242 950 c 1
 127 835 l 1
 130 833 131 829 134 827 c 1
 244 937 l 1
 242 950 240 963 238 976 c 1
 112 850 l 1
 114 847 117 845 119 842 c 1
 239 962 l 1
557 1280 m 1
 631 1354 l 1
 628 1356 625 1358 622 1360 c 1
 554 1292 l 1
 553 1296 552 1300 551 1304 c 1
 612 1365 l 1
 603 1370 592 1375 582 1380 c 1
 540 1338 l 1
 541 1334 543 1331 544 1327 c 1
 593 1376 l 1
 596 1374 600 1373 603 1371 c 1
 548 1316 l 1
 554 1297 558 1277 561 1254 c 1
 648 1341 l 1
 651 1339 654 1337 657 1335 c 1
 563 1241 l 1
 564 1237 564 1232 564 1227 c 1
 665 1328 l 1
 657 1335 649 1342 640 1348 c 1
 559 1267 l 1
 558 1271 558 1276 557 1280 c 1
73 1216 m 1
 202 1345 l 1
 150 1313 104 1269 73 1216 c 1
1725 138 m 1
 1733 149 1740 161 1746 174 c 1
 1610 38 l 1
 1623 45 1636 53 1648 61 c 1
 1725 138 l 1
1581 24 m 1
 1757 200 l 1
 1760 207 1763 215 1765 223 c 1
 1557 15 l 1
 1565 18 1573 21 1581 24 c 1
1534 7 m 1
 1771 244 l 1
 1772 250 1773 256 1774 262 c 1
 1513 1 l 1
 1520 3 1527 5 1534 7 c 1
1777 280 m 1
 1778 286 1778 291 1779 297 c 1
 1556 74 l 1
 1553 65 1550 57 1546 49 c 1
 1777 280 l 1
1563 96 m 1
 1780 313 l 1
 1780 318 1781 324 1781 329 c 1
 1567 115 l 1
 1566 108 1565 102 1563 96 c 1
1557 75 m 1
 1559 80 1560 85 1561 91 c 1
 1560 85 1559 80 1557 75 c 1
1567 118 m 1
 1568 122 1568 125 1569 129 c 1
 1568 125 1568 122 1567 118 c 1
1781 344 m 1
 1781 349 1781 354 1781 359 c 1
 1572 150 l 1
 1571 144 1571 139 1570 133 c 1
 1781 344 l 1
1780 373 m 1
 1780 378 1779 382 1779 387 c 1
 1576 184 l 1
 1576 178 1575 172 1574 167 c 1
 1780 373 l 1
1578 216 m 1
 1578 211 1577 205 1577 200 c 1
 1777 400 l 1
 1776 404 1776 409 1775 413 c 1
 1578 216 l 1
1778 398 m 1
 1778 394 1779 391 1779 387 c 1
 1779 391 1778 394 1778 398 c 1
1347 -0 m 1
 1355 8 l 1
 1352 10 1350 12 1347 15 c 1
 1335 3 l 1
 1331 4 1327 5 1323 6 c 1
 1339 22 l 1
 1337 25 1334 27 1332 30 c 1
 1311 9 l 1
 1323 5 1335 3 1347 -0 c 1
1359 -3 m 1
 1363 -4 1367 -4 1371 -5 c 1
 1368 -3 1366 -1 1363 1 c 1
 1359 -3 l 1
1362 2 m 1
 1361 3 1360 3 1359 4 c 1
 1360 3 1361 3 1362 2 c 1
1579 250 m 1
 1579 244 1578 237 1578 231 c 1
 1773 426 l 1
 1772 430 1772 435 1771 439 c 1
 1579 247 l 2
 1579 248 1579 249 1579 250 c 1
1768 451 m 1
 1767 455 1766 459 1765 463 c 1
 1580 278 l 1
 1580 273 1579 267 1579 262 c 1
 1768 451 l 1
1300 13 m 1
 1326 39 l 1
 1324 42 1321 44 1319 47 c 1
 1289 17 l 1
 1293 16 1296 14 1300 13 c 1
1761 474 m 1
 1757 485 1754 496 1749 507 c 1
 1580 338 l 1
 1580 333 1580 328 1580 323 c 1
 1753 496 l 1
 1754 492 1756 489 1757 485 c 1
 1580 308 l 1
 1580 303 1580 298 1580 293 c 1
 1761 474 l 1
1313 56 m 1
 1311 59 1310 63 1308 66 c 1
 1267 25 l 1
 1271 24 1274 22 1278 21 c 1
 1313 56 l 1
1316 52 m 1
 1316 51 1317 52 1317 51 c 1
 1317 52 1316 51 1316 52 c 1
1257 30 m 1
 1302 75 l 1
 1300 78 1299 82 1297 85 c 1
 1247 35 l 1
 1250 33 1254 32 1257 30 c 1
1265 26 m 1
 1264 27 1262 27 1261 28 c 1
 1262 27 1264 27 1265 26 c 1
1304 71 m 1
 1305 69 1306 68 1307 66 c 1
 1306 68 1305 69 1304 71 c 1
1227 45 m 1
 1230 43 1234 42 1237 40 c 1
 1292 95 l 1
 1290 98 1289 102 1287 105 c 1
 1227 45 l 1
1580 383 m 1
 1734 537 l 1
 1732 540 1730 543 1728 546 c 1
 1580 398 l 1
 1580 393 1580 388 1580 383 c 1
1579 438 m 1
 1579 430 1580 422 1580 413 c 1
 1722 555 l 1
 1720 558 1718 561 1716 564 c 1
 1579 427 l 1
 1579 431 1579 434 1579 438 c 1
1710 573 m 1
 1703 581 1696 589 1689 597 c 1
 1576 484 l 1
 1576 479 1577 475 1577 470 c 1
 1696 589 l 1
 1698 586 1701 584 1703 581 c 1
 1578 456 l 2
 1578 456 l 1
 1578 451 1579 447 1579 442 c 1
 1710 573 l 1
1571 539 m 1
 1573 526 1574 512 1575 498 c 1
 1681 604 l 1
 1678 606 1677 610 1674 612 c 1
 1574 512 l 1
 1574 517 1574 522 1573 526 c 1
 1665 618 l 1
 1662 620 1660 623 1657 625 c 1
 1571 539 l 1
1567 565 m 1
 1568 561 1568 556 1569 552 c 1
 1648 631 l 1
 1645 633 1642 635 1639 637 c 1
 1567 565 l 1
1118 131 m 1
 1247 260 l 1
 1246 264 1245 268 1245 273 c 1
 1111 139 l 1
 1113 136 1116 134 1118 131 c 1
1630 643 m 1
 1621 649 1611 654 1601 659 c 1
 1554 612 l 1
 1555 608 1557 605 1558 601 c 1
 1611 654 l 1
 1614 652 1618 651 1621 649 c 1
 1561 589 l 1
 1562 585 1563 581 1564 577 c 1
 1630 643 l 1
1104 147 m 1
 1244 287 l 1
 1244 292 1243 296 1243 301 c 1
 1098 156 l 1
 1100 153 1102 150 1104 147 c 1
1106 145 m 1
 1107 144 1108 143 1109 142 c 1
 1108 143 1107 144 1106 145 c 1
1092 165 m 1
 1242 315 l 1
 1242 320 1241 324 1241 329 c 1
 1086 174 l 1
 1088 171 1090 168 1092 165 c 1
1242 312 m 1
 1242 309 1243 307 1243 304 c 1
 1243 307 1242 309 1242 312 c 1
1590 663 m 1
 1586 664 1584 667 1580 668 c 1
 1545 633 l 1
 1547 630 1549 627 1550 623 c 1
 1590 663 l 1
1081 184 m 1
 1241 344 l 1
 1241 349 1241 353 1241 358 c 2
 1241 359 l 1
 1075 193 l 1
 1077 190 1079 187 1081 184 c 1
1541 641 m 1
 1542 639 l 1
 1541 641 l 1
1579 668 m 1
 1576 669 1573 671 1569 672 c 1
 1573 671 1576 669 1579 668 c 1
1569 672 m 1
 1565 673 1561 674 1557 675 c 1
 1534 652 l 1
 1536 649 1538 646 1540 643 c 1
 1569 672 l 1
1057 235 m 1
 1061 224 1065 213 1070 203 c 1
 1241 374 l 1
 1241 379 1242 385 1242 390 c 1
 1066 214 l 1
 1064 218 1062 220 1061 224 c 1
 1243 406 l 1
 1243 412 1243 417 1244 422 c 1
 1057 235 l 1
1520 668 m 1
 1523 666 1526 664 1528 661 c 1
 1546 679 l 1
 1542 680 1538 681 1534 682 c 1
 1520 668 l 1
1521 684 m 1
 1517 685 1513 686 1509 687 c 1
 1503 681 l 1
 1506 679 1509 677 1512 675 c 1
 1521 684 l 1
1054 247 m 1
 1247 440 l 1
 1248 446 1249 452 1250 458 c 1
 1050 258 l 1
 1051 254 1053 251 1054 247 c 1
1481 691 m 1
 1485 690 1489 688 1493 686 c 1
 1496 689 l 1
 1492 690 1487 690 1483 691 c 1
 1482 690 l 2
 1481 691 l 1
1506 687 m 1
 1505 687 1503 688 1502 688 c 1
 1503 688 1505 687 1506 687 c 1
1047 270 m 1
 1254 477 l 1
 1256 484 1257 490 1259 497 c 1
 1045 283 l 1
 1046 279 1046 274 1047 270 c 1
1320 621 m 1
 1333 637 1347 650 1362 662 c 1
 1347 650 1333 637 1320 621 c 1
1370 668 m 1
 1380 675 1390 682 1401 687 c 1
 1396 687 1392 686 1387 685 c 1
 1370 668 l 1
1370 683 m 1
 1350 680 1331 675 1312 670 c 1
 1046 404 l 1
 1045 398 1044 392 1043 386 c 1
 1332 675 l 1
 1338 677 1344 678 1351 679 c 1
 1041 369 l 1
 1041 364 1040 358 1040 353 c 1
 1370 683 l 1
1290 663 m 1
 1282 660 1274 657 1266 654 c 1
 1058 446 l 1
 1056 439 1053 431 1051 424 c 1
 1290 663 l 1
1239 642 m 1
 1228 636 1217 630 1206 624 c 1
 1084 502 l 1
 1078 492 1073 482 1068 471 c 1
 1239 642 l 1
1144 577 m 2
 1139 572 1133 566 1128 561 c 2
 1144 577 l 2
605 758 m 1
 732 885 l 1
 737 894 741 903 745 913 c 1
 575 743 l 1
 585 748 595 753 605 758 c 1
624 769 m 1
 633 775 641 781 649 787 c 1
 641 781 633 775 624 769 c 1
649 787 m 1
 670 803 689 822 705 843 c 1
 686 824 668 806 649 787 c 1
718 862 m 1
 714 856 710 849 705 843 c 1
 710 849 714 856 718 862 c 1
746 915 m 1
 748 920 750 926 752 932 c 1
 750 926 748 920 746 915 c 1
542 785 m 1
 769 1012 l 1
 770 1017 770 1022 770 1028 c 1
 550 808 l 1
 548 800 545 792 542 785 c 1
559 850 m 1
 558 842 557 835 555 828 c 1
 771 1044 l 2
 771 1043 771 1042 771 1041 c 1
 771 1047 771 1053 771 1059 c 1
 559 847 l 2
 559 848 559 849 559 850 c 1
771 1059 m 1
 771 1060 l 1
 771 1059 l 1
354 717 m 1
 356 719 l 1
 353 721 350 723 347 725 c 1
 342 720 l 1
 346 719 350 718 354 717 c 1
358 716 m 1
 359 716 360 715 361 715 c 1
 360 715 359 716 358 716 c 1
330 723 m 1
 339 732 l 1
 336 734 334 737 332 740 c 1
 319 727 l 1
 323 726 326 724 330 723 c 1
762 1155 m 1
 761 1159 760 1163 759 1167 c 1
 569 977 l 1
 569 972 569 967 569 962 c 1
 762 1155 l 1
307 730 m 1
 325 748 l 1
 323 751 320 753 318 756 c 1
 296 734 l 1
 300 733 303 731 307 730 c 1
756 1179 m 1
 755 1183 753 1186 752 1190 c 1
 570 1008 l 1
 570 1003 570 998 570 993 c 1
 756 1179 l 1
285 738 m 1
 311 764 l 1
 309 767 307 770 305 773 c 1
 274 742 l 1
 278 741 281 739 285 738 c 1
294 735 m 1
 293 735 292 736 291 736 c 1
 292 736 293 735 294 735 c 1
570 1009 m 1
 570 1014 570 1018 570 1023 c 1
 570 1018 570 1014 570 1009 c 1
748 1201 m 1
 744 1212 740 1223 735 1233 c 1
 570 1068 l 1
 570 1053 570 1038 570 1023 c 1
 748 1201 l 1
299 782 m 1
 297 785 296 789 294 792 c 1
 253 751 l 1
 256 749 261 748 264 747 c 1
 299 782 l 1
243 756 m 1
 289 802 l 1
 287 805 286 809 284 812 c 1
 233 761 l 1
 236 759 240 758 243 756 c 1
248 753 m 1
 247 754 l 1
 248 753 l 1
223 766 m 1
 279 822 l 1
 277 825 275 828 274 832 c 1
 213 771 l 1
 210 773 207 775 204 777 c 1
 270 843 l 1
 269 847 267 850 266 854 c 1
 194 782 l 1
 203 776 213 771 223 766 c 1
719 1262 m 1
 717 1265 715 1268 713 1271 c 1
 570 1128 l 1
 570 1123 570 1118 570 1113 c 1
 719 1262 l 1
569 1138 m 1
 569 1135 570 1133 570 1130 c 1
 570 1133 569 1135 569 1138 c 1
707 1280 m 1
 705 1283 703 1286 701 1289 c 1
 569 1157 l 1
 569 1152 569 1147 569 1142 c 1
 707 1280 l 1
185 788 m 1
 262 865 l 1
 261 869 260 873 259 877 c 1
 176 794 l 1
 179 792 182 790 185 788 c 1
193 783 m 1
 190 785 188 786 186 788 c 1
 188 786 190 785 193 783 c 1
694 1297 m 1
 692 1300 689 1302 687 1305 c 1
 568 1186 l 1
 568 1181 568 1176 568 1171 c 1
 694 1297 l 1
255 888 m 1
 254 892 253 896 252 900 c 1
 159 807 l 1
 162 805 164 802 167 800 c 1
 255 888 l 1
681 1312 m 1
 683 1310 684 1309 686 1307 c 1
 684 1309 683 1310 681 1312 c 1
680 1313 m 1
 678 1316 675 1318 672 1320 c 1
 566 1214 l 1
 566 1209 567 1205 567 1200 c 1
 680 1313 l 1
150 813 m 1
 249 912 l 1
 248 916 247 920 246 924 c 1
 142 820 l 1
 145 818 147 815 150 813 c 1
565 1223 m 1
 565 1222 565 1221 565 1220 c 1
 565 1221 565 1222 565 1223 c 1
244 936 m 1
 244 934 245 931 245 929 c 1
 245 931 244 934 244 936 c 1
105 858 m 1
 236 989 l 1
 235 993 235 998 235 1003 c 1
 98 866 l 1
 100 863 103 861 105 858 c 1
91 874 m 1
 233 1016 l 1
 233 1021 232 1025 232 1030 c 1
 85 883 l 1
 87 880 89 877 91 874 c 1
79 892 m 1
 232 1045 l 1
 232 1050 231 1054 231 1059 c 1
 73 901 l 1
 75 898 77 895 79 892 c 1
539 1341 m 1
 539 1340 540 1340 540 1339 c 1
 540 1340 539 1340 539 1341 c 1
572 1385 m 1
 568 1386 565 1388 561 1389 c 1
 530 1358 l 1
 532 1355 534 1352 536 1349 c 1
 572 1385 l 1
68 911 m 1
 231 1074 l 2
 231 1075 231 1077 231 1078 c 0
 231 1082 231 1085 231 1089 c 1
 62 920 l 1
 60 923 60 928 58 931 c 1
 232 1105 l 1
 232 1110 232 1115 232 1120 c 1
 53 941 l 1
 52 945 50 948 49 952 c 1
 234 1137 l 1
 235 1143 235 1148 236 1154 c 1
 45 963 l 1
 51 945 59 927 68 911 c 1
69 908 m 1
 70 906 71 905 72 903 c 1
 71 905 70 906 69 908 c 1
231 1074 m 1
 231 1069 231 1065 231 1060 c 1
 231 1065 231 1069 231 1074 c 1
550 1393 m 1
 546 1394 543 1396 539 1397 c 1
 518 1376 l 1
 520 1373 523 1371 525 1368 c 1
 550 1393 l 1
527 1400 m 1
 523 1401 520 1403 516 1404 c 1
 504 1392 l 1
 507 1390 510 1388 512 1385 c 1
 527 1400 l 1
504 1407 m 1
 500 1408 495 1408 491 1409 c 1
 487 1405 l 1
 490 1403 493 1401 496 1399 c 1
 504 1407 l 1
41 974 m 1
 238 1171 l 1
 239 1177 241 1184 242 1190 c 1
 38 986 l 1
 39 982 40 978 41 974 c 1
479 1412 m 1
 476 1412 473 1413 470 1413 c 1
 472 1412 475 1411 477 1410 c 1
 479 1412 l 1
36 999 m 1
 246 1209 l 1
 248 1216 250 1223 252 1230 c 1
 34 1012 l 1
 35 1008 35 1003 36 999 c 1
37 991 m 1
 37 990 38 989 38 988 c 1
 38 989 37 990 37 991 c 1
260 1253 m 1
 263 1262 266 1270 270 1278 c 1
 31 1039 l 1
 31 1034 32 1030 32 1025 c 1
 260 1253 l 1
286 1309 m 1
 314 1357 350 1391 389 1412 c 1
 390 1413 l 1
 384 1412 378 1411 372 1410 c 1
 30 1068 l 1
 30 1065 30 1063 30 1060 c 0
 30 1058 30 1055 30 1053 c 1
 286 1309 l 1
279 1295 m 1
 281 1299 284 1304 286 1308 c 1
 284 1304 281 1299 279 1295 c 1
33 1101 m 1
 32 1095 31 1090 31 1084 c 1
 353 1406 l 1
 346 1404 340 1403 333 1401 c 1
 33 1101 l 1
33 1105 m 1
 33 1107 34 1108 34 1110 c 1
 34 1108 33 1107 33 1105 c 1
40 1138 m 1
 38 1132 37 1126 36 1119 c 1
 311 1394 l 1
 303 1392 296 1390 289 1387 c 1
 40 1138 l 1
313 1395 m 1
 319 1397 326 1398 332 1400 c 1
 326 1398 319 1397 313 1395 c 1
264 1377 m 1
 254 1373 245 1369 236 1364 c 1
 57 1185 l 1
 53 1177 50 1168 47 1160 c 1
 264 1377 l 1
142 1300 m 1
 142 1300 l 1
 142 1300 l 1
EndSplineSet
EndChar

StartChar: ampersand
Encoding: 38 38 46
GlifName: ampersand
Width: 2222
Flags: HMW
LayerCount: 2
Fore
SplineSet
704 781 m 1
 620 760 490 673 490 504 c 0
 490 278 610 67 842 67 c 0
 996 67 1106 164 1192 259 c 1
 704 781 l 1
1216 233 m 1
 1097 98 944 -20 652 -20 c 0
 256 -20 100 144 100 370 c 0
 100 627 430 768 676 812 c 1
 612 880 l 2
 554 942 495 996 495 1126 c 0
 495 1306 660 1420 992 1420 c 0
 1216 1420 1354 1314 1354 1174 c 0
 1354 1032 1267 948 1119 868 c 1
 1460 559 l 1
 1568 697 l 2
 1624 767 1436 841 1351 850 c 1
 1351 870 l 1
 1985 870 l 1
 1985 850 l 1
 1939 846 1897 832 1815 805 c 0
 1755 785 1654 751 1596 680 c 2
 1482 540 l 1
 1500 523 l 2
 1604 429 1745 385 1840 385 c 0
 1933 385 2028 422 2092 502 c 1
 2106 470 2122 405 2122 330 c 0
 2122 98 1892 -20 1721 -20 c 0
 1542 -20 1398 54 1278 167 c 1
 1216 233 l 1
1091 894 m 1
 1220 950 1324 1049 1324 1174 c 0
 1324 1292 1186 1390 992 1390 c 0
 848 1390 796 1332 796 1260 c 0
 796 1160 860 1103 952 1020 c 2
 1091 894 l 1
1939 52 m 1
 2078 191 l 1
 2083 200 2087 209 2091 219 c 1
 1907 35 l 1
 1918 40 1929 46 1939 52 c 1
1985 83 m 1
 2010 102 2032 124 2051 149 c 1
 1985 83 l 1
1880 23 m 1
 2099 242 l 1
 2101 249 2103 256 2105 263 c 1
 1856 14 l 1
 1864 17 1872 20 1880 23 c 1
1834 7 m 1
 2108 281 l 1
 2109 287 2109 292 2110 298 c 1
 1814 2 l 1
 1821 4 1827 5 1834 7 c 1
1814 2 m 1
 1808 0 1800 -2 1794 -3 c 1
 1800 -2 1808 0 1814 2 c 1
1794 -3 m 1
 2112 315 l 1
 2112 320 2112 325 2112 330 c 1
 1776 -6 l 1
 1782 -5 1788 -4 1794 -3 c 1
1759 -8 m 1
 2112 345 l 1
 2112 350 2111 354 2111 359 c 1
 1743 -9 l 1
 1748 -9 1753 -9 1759 -8 c 1
1727 -10 m 1
 2110 373 l 1
 2110 378 2109 382 2108 386 c 1
 1712 -10 l 1
 1715 -10 1718 -10 1721 -10 c 0
 1723 -10 1725 -10 1727 -10 c 1
1697 -10 m 1
 2106 399 l 1
 2105 403 2105 408 2104 412 c 1
 1683 -9 l 1
 1688 -9 1692 -10 1697 -10 c 1
1669 -8 m 1
 1674 -8 1678 -9 1683 -9 c 1
 1678 -9 1674 -8 1669 -8 c 1
1669 -8 m 1
 2101 424 l 1
 2100 428 2098 431 2097 435 c 1
 1655 -7 l 1
 1660 -7 1664 -8 1669 -8 c 1
1642 -5 m 1
 2093 446 l 1
 2092 450 2090 454 2089 457 c 1
 1629 -3 l 1
 1633 -4 1638 -4 1642 -5 c 1
1616 -1 m 1
 2084 467 l 1
 2083 469 2083 470 2082 472 c 1
 2057 441 2019 417 1987 385 c 2
 1603 1 l 1
 1607 0 1612 0 1616 -1 c 1
1591 4 m 1
 1595 3 1599 2 1603 1 c 1
 1599 2 1595 3 1591 4 c 1
1591 4 m 1
 1949 362 l 1
 1939 357 1930 352 1920 348 c 1
 1579 7 l 1
 1583 6 1587 5 1591 4 c 1
1567 10 m 1
 1894 337 l 1
 1887 334 1880 332 1872 330 c 1
 1555 13 l 1
 1559 12 1563 11 1567 10 c 1
1544 17 m 1
 1852 325 l 1
 1846 324 1839 322 1833 321 c 1
 1533 21 l 1
 1537 20 1540 18 1544 17 c 1
1522 25 m 1
 1815 318 l 1
 1809 317 1804 316 1798 316 c 1
 1511 29 l 1
 1515 28 1518 26 1522 25 c 1
1500 33 m 1
 1782 315 l 1
 1778 315 1774 315 1770 315 c 0
 1769 315 1768 315 1767 315 c 2
 1490 38 l 1
 1493 36 1496 34 1500 33 c 1
1479 42 m 1
 1752 315 l 1
 1747 315 1743 316 1738 316 c 1
 1469 47 l 1
 1472 45 1476 44 1479 42 c 1
1459 52 m 1
 1725 318 l 1
 1721 319 1716 319 1712 320 c 1
 1449 57 l 1
 1452 55 1456 54 1459 52 c 1
1440 63 m 1
 1699 322 l 1
 1695 323 1690 323 1686 324 c 1
 1430 68 l 1
 1433 66 1437 65 1440 63 c 1
1421 74 m 1
 1674 327 l 1
 1670 328 1666 329 1662 330 c 1
 1411 79 l 1
 1414 77 1418 76 1421 74 c 1
1402 85 m 1
 1650 333 l 1
 1646 334 1643 336 1639 337 c 1
 1393 91 l 1
 1396 89 1399 87 1402 85 c 1
1384 97 m 1
 1627 340 l 1
 1623 341 1620 343 1616 344 c 1
 1376 104 l 1
 1379 102 1381 99 1384 97 c 1
1367 110 m 1
 1605 348 l 1
 1601 349 1598 351 1594 352 c 1
 1358 116 l 1
 1361 114 1364 112 1367 110 c 1
1350 123 m 1
 1584 357 l 1
 1581 358 1576 359 1573 361 c 1
 1341 129 l 1
 1344 127 1347 125 1350 123 c 1
1333 136 m 1
 1563 366 l 1
 1560 368 1556 369 1553 371 c 1
 1325 143 l 1
 1328 141 1330 138 1333 136 c 1
1317 150 m 1
 1543 376 l 1
 1540 378 1536 379 1533 381 c 1
 1309 157 l 1
 1312 155 1314 152 1317 150 c 1
1301 164 m 1
 1523 386 l 1
 1520 388 1517 390 1514 392 c 1
 1293 171 l 1
 1296 169 1298 166 1301 164 c 1
1286 179 m 1
 1504 397 l 1
 1501 399 1498 401 1495 403 c 1
 1278 186 l 1
 1286 179 l 1
1271 194 m 1
 1486 409 l 1
 1483 411 1480 413 1477 415 c 1
 1264 202 l 1
 1271 194 l 1
1256 209 m 1
 1469 422 l 1
 1466 424 1463 426 1460 428 c 1
 1249 217 l 1
 1256 209 l 1
1242 225 m 1
 1452 435 l 1
 1449 437 1446 439 1443 441 c 1
 1235 233 l 1
 1242 225 l 1
1435 448 m 1
 1432 450 1430 453 1427 455 c 1
 1220 248 l 1
 1227 240 l 1
 1435 448 l 1
1213 256 m 1
 1420 463 l 1
 1412 470 l 1
 1206 264 l 1
 1213 256 l 1
1198 271 m 1
 1404 477 l 1
 1396 484 l 1
 1191 279 l 1
 1198 271 l 1
917 35 m 1
 931 41 942 45 950 53 c 1
 944 51 937 49 929 47 c 1
 917 35 l 1
1184 287 m 1
 1388 491 l 1
 1380 498 l 1
 1177 295 l 1
 1184 287 l 1
1677 780 m 1
 1758 861 l 1
 1743 861 l 1
 1595 713 l 1
 1594 711 1593 708 1592 706 c 1
 1612 722 1645 753 1677 780 c 1
1747 835 m 1
 1759 844 1771 853 1783 861 c 1
 1773 861 l 1
 1747 835 l 1
893 26 m 1
 911 44 l 1
 906 43 900 43 894 42 c 1
 871 19 l 1
 879 21 886 24 893 26 c 1
1169 302 m 1
 1372 505 l 1
 1364 512 l 1
 1162 310 l 1
 1169 302 l 1
1728 861 m 1
 1713 861 l 1
 1591 739 l 1
 1593 735 1594 731 1595 728 c 1
 1728 861 l 1
851 14 m 1
 877 40 l 1
 872 40 867 39 861 39 c 1
 831 9 l 1
 838 10 845 12 851 14 c 1
1155 318 m 1
 1357 520 l 1
 1349 527 l 1
 1148 326 l 1
 1155 318 l 1
1698 861 m 1
 1683 861 l 1
 1578 756 l 1
 1581 753 1583 751 1585 748 c 1
 1698 861 l 1
812 5 m 1
 845 38 l 1
 840 38 834 37 829 37 c 1
 794 2 l 1
 800 3 806 4 812 5 c 1
1140 333 m 1
 1341 534 l 1
 1333 541 l 1
 1133 341 l 1
 1140 333 l 1
1668 861 m 1
 1653 861 l 1
 1563 771 l 1
 1566 769 1569 766 1571 764 c 1
 1668 861 l 1
794 2 m 1
 788 1 782 0 776 -1 c 1
 782 0 788 1 794 2 c 1
776 -1 m 1
 814 37 l 1
 810 37 806 37 802 37 c 0
 801 37 800 37 799 37 c 2
 759 -3 l 1
 765 -2 770 -2 776 -1 c 1
814 37 m 1
 819 37 824 37 829 37 c 1
 824 37 819 37 814 37 c 1
1126 349 m 1
 1325 548 l 1
 1317 555 l 1
 1118 356 l 1
 1126 349 l 1
1638 861 m 1
 1623 861 l 1
 1547 785 l 1
 1550 783 1552 780 1555 778 c 1
 1638 861 l 1
742 -5 m 1
 784 37 l 1
 779 37 775 38 770 38 c 1
 725 -7 l 1
 731 -7 737 -6 742 -5 c 1
1111 364 m 1
 1309 562 l 1
 1302 570 l 1
 1104 372 l 1
 1111 364 l 1
1529 797 m 1
 1532 795 1535 793 1538 791 c 1
 1608 861 l 1
 1593 861 l 1
 1529 797 l 1
725 -7 m 1
 720 -7 714 -8 709 -8 c 1
 714 -8 720 -7 725 -7 c 1
709 -8 m 1
 755 38 l 1
 750 38 746 39 741 39 c 1
 693 -9 l 1
 698 -9 704 -8 709 -8 c 1
755 38 m 1
 760 38 765 38 770 38 c 1
 765 38 760 38 755 38 c 1
1097 380 m 1
 1294 577 l 1
 1286 584 l 1
 1089 387 l 1
 1097 380 l 1
1578 861 m 1
 1563 861 l 1
 1511 809 l 1
 1514 807 1517 805 1520 803 c 1
 1578 861 l 1
693 -9 m 1
 688 -9 682 -10 677 -10 c 1
 682 -10 688 -9 693 -9 c 1
677 -10 m 1
 728 41 l 1
 723 41 718 41 714 42 c 1
 662 -10 l 1
 667 -10 672 -10 677 -10 c 1
1082 395 m 1
 1278 591 l 1
 1270 598 l 1
 1075 403 l 1
 1082 395 l 1
1548 861 m 1
 1533 861 l 1
 1492 820 l 1
 1495 818 1499 817 1502 815 c 1
 1548 861 l 1
647 -10 m 1
 649 -10 650 -10 652 -10 c 1
 650 -10 649 -10 647 -10 c 1
647 -10 m 1
 701 44 l 1
 697 45 692 45 688 46 c 1
 632 -10 l 1
 637 -10 642 -10 647 -10 c 1
1068 411 m 1
 1262 605 l 1
 1254 612 l 1
 1060 418 l 1
 1068 411 l 1
1518 861 m 1
 1503 861 l 1
 1472 830 l 1
 1475 828 1479 827 1482 825 c 1
 1518 861 l 1
617 -10 m 1
 675 48 l 1
 671 49 667 50 663 51 c 1
 603 -9 l 1
 608 -9 612 -10 617 -10 c 1
1053 426 m 1
 1246 619 l 1
 1239 627 l 1
 1046 434 l 1
 1053 426 l 1
1488 861 m 1
 1473 861 l 1
 1451 839 l 1
 1455 838 1457 835 1461 834 c 1
 1488 861 l 1
589 -8 m 1
 651 54 l 1
 647 55 643 56 639 57 c 1
 574 -8 l 1
 579 -8 584 -8 589 -8 c 1
1039 442 m 1
 1231 634 l 1
 1223 641 l 1
 1031 449 l 1
 1039 442 l 1
1458 861 m 1
 1443 861 l 1
 1428 846 l 1
 1432 845 1436 844 1440 843 c 1
 1458 861 l 1
560 -7 m 1
 627 60 l 1
 623 61 619 62 615 63 c 1
 546 -6 l 1
 551 -6 555 -7 560 -7 c 1
1024 457 m 1
 1215 648 l 1
 1207 655 l 1
 1017 465 l 1
 1024 457 l 1
1428 861 m 1
 1413 861 l 1
 1405 853 l 1
 1409 852 1413 851 1417 850 c 1
 1428 861 l 1
533 -4 m 1
 538 -4 541 -6 546 -6 c 1
 541 -6 538 -4 533 -4 c 1
533 -4 m 1
 604 67 l 1
 600 68 597 70 593 71 c 1
 519 -3 l 1
 523 -4 528 -4 533 -4 c 1
1009 472 m 1
 1199 662 l 1
 1191 669 l 1
 1002 480 l 1
 1009 472 l 1
1398 861 m 1
 1383 861 l 1
 1381 859 l 1
 1385 858 1389 857 1393 856 c 1
 1398 861 l 1
519 -3 m 1
 515 -2 510 -2 506 -1 c 1
 510 -2 515 -2 519 -3 c 1
506 -1 m 1
 582 75 l 1
 578 76 575 78 571 79 c 1
 493 1 l 1
 497 0 502 0 506 -1 c 1
995 488 m 1
 1184 677 l 1
 1176 684 l 1
 988 496 l 1
 995 488 l 1
480 3 m 1
 484 2 489 2 493 1 c 1
 489 2 484 2 480 3 c 1
480 3 m 1
 561 84 l 1
 558 86 554 87 551 89 c 1
 467 5 l 1
 471 4 476 4 480 3 c 1
980 503 m 1
 1168 691 l 1
 1160 698 l 1
 973 511 l 1
 980 503 l 1
454 7 m 1
 541 94 l 1
 538 96 534 97 531 99 c 1
 442 10 l 1
 446 9 450 8 454 7 c 1
966 519 m 1
 1152 705 l 1
 1144 712 l 1
 959 527 l 1
 966 519 l 1
429 12 m 1
 433 11 438 11 442 10 c 1
 438 11 433 11 429 12 c 1
429 12 m 1
 521 104 l 1
 518 106 515 108 512 110 c 1
 417 15 l 1
 421 14 425 13 429 12 c 1
951 534 m 1
 1136 719 l 1
 1128 726 l 1
 944 542 l 1
 951 534 l 1
405 18 m 1
 503 116 l 1
 500 118 497 120 494 122 c 1
 394 22 l 1
 398 21 401 19 405 18 c 1
937 550 m 1
 1121 734 l 1
 1113 741 l 1
 930 558 l 1
 937 550 l 1
382 25 m 1
 486 129 l 1
 483 131 480 133 477 135 c 1
 371 29 l 1
 375 28 378 26 382 25 c 1
922 565 m 1
 1105 748 l 1
 1097 755 l 1
 915 573 l 1
 922 565 l 1
360 33 m 1
 469 142 l 1
 466 144 464 147 461 149 c 1
 349 37 l 1
 353 36 356 34 360 33 c 1
908 581 m 1
 1089 762 l 1
 1081 769 l 1
 900 588 l 1
 908 581 l 1
338 41 m 1
 453 156 l 1
 450 158 448 161 446 164 c 1
 327 45 l 1
 330 44 334 42 338 41 c 1
893 596 m 1
 1073 776 l 1
 1066 784 l 1
 886 604 l 1
 893 596 l 1
317 50 m 1
 438 171 l 1
 436 174 433 176 431 179 c 1
 307 55 l 1
 310 53 314 52 317 50 c 1
879 612 m 1
 1058 791 l 1
 1050 798 l 1
 871 619 l 1
 879 612 l 1
297 60 m 1
 424 187 l 1
 422 190 420 193 418 196 c 1
 287 65 l 1
 290 63 294 62 297 60 c 1
864 627 m 1
 1042 805 l 1
 1034 812 l 1
 857 635 l 1
 864 627 l 1
277 70 m 1
 411 204 l 1
 409 207 407 210 405 213 c 1
 268 76 l 1
 271 74 274 72 277 70 c 1
850 643 m 1
 1026 819 l 1
 1018 826 l 1
 842 650 l 1
 850 643 l 1
259 82 m 1
 399 222 l 1
 397 225 396 229 394 232 c 1
 250 88 l 1
 253 86 256 84 259 82 c 1
835 658 m 1
 1010 833 l 1
 1003 841 l 1
 828 666 l 1
 835 658 l 1
241 94 m 1
 388 241 l 1
 386 244 385 248 383 251 c 1
 233 101 l 1
 236 99 238 96 241 94 c 1
821 674 m 1
 995 848 l 1
 987 855 l 1
 813 681 l 1
 821 674 l 1
225 108 m 1
 378 261 l 1
 376 264 376 269 374 272 c 1
 217 115 l 1
 220 113 222 110 225 108 c 1
806 689 m 1
 979 862 l 1
 971 869 l 1
 799 697 l 1
 806 689 l 1
209 122 m 1
 369 282 l 1
 368 286 366 289 365 293 c 1
 201 129 l 1
 203 126 206 124 209 122 c 1
792 705 m 1
 963 876 l 1
 955 883 l 1
 784 712 l 1
 792 705 l 1
194 137 m 1
 361 304 l 1
 360 308 359 312 358 316 c 1
 187 145 l 1
 189 142 192 140 194 137 c 1
777 720 m 1
 948 891 l 1
 940 898 l 1
 770 728 l 1
 777 720 l 1
180 153 m 1
 354 327 l 1
 353 331 352 335 351 339 c 1
 174 162 l 1
 176 159 178 156 180 153 c 1
762 735 m 1
 932 905 l 1
 924 912 l 1
 755 743 l 1
 762 735 l 1
167 170 m 1
 349 352 l 1
 348 356 347 360 346 364 c 1
 161 179 l 1
 163 176 165 173 167 170 c 1
748 751 m 1
 916 919 l 1
 908 926 l 1
 741 759 l 1
 748 751 l 1
156 189 m 1
 344 377 l 1
 343 381 343 387 343 391 c 1
 150 198 l 1
 152 195 154 192 156 189 c 1
733 766 m 1
 900 933 l 1
 892 940 l 1
 726 774 l 1
 733 766 l 1
145 208 m 1
 342 405 l 1
 342 410 341 414 341 419 c 1
 140 218 l 1
 142 215 143 211 145 208 c 1
885 948 m 1
 882 950 880 953 877 955 c 1
 712 790 l 1
 719 782 l 1
 885 948 l 1
136 229 m 1
 340 433 l 1
 340 437 340 440 340 444 c 0
 340 445 340 447 340 448 c 2
 132 240 l 1
 133 236 135 233 136 229 c 1
704 797 m 1
 869 962 l 1
 866 964 864 967 861 969 c 1
 697 805 l 1
 704 797 l 1
128 251 m 1
 341 464 l 1
 341 470 341 475 342 480 c 1
 124 262 l 1
 125 258 127 255 128 251 c 1
690 813 m 1
 853 976 l 1
 850 978 848 981 845 983 c 1
 683 821 l 1
 690 813 l 1
121 274 m 1
 344 497 l 1
 345 503 347 510 348 516 c 1
 118 286 l 1
 119 282 120 278 121 274 c 1
675 828 m 1
 838 991 l 1
 835 993 833 996 830 998 c 1
 668 836 l 1
 675 828 l 1
116 299 m 1
 353 536 l 1
 355 544 358 552 361 559 c 1
 114 312 l 1
 115 308 115 303 116 299 c 1
661 844 m 1
 822 1005 l 1
 819 1007 817 1011 815 1013 c 1
 653 851 l 1
 661 844 l 1
112 325 m 1
 373 586 l 1
 380 599 387 611 395 623 c 1
 111 339 l 1
 111 334 112 330 112 325 c 1
561 774 m 1
 554 772 548 771 541 769 c 1
 505 733 l 1
 521 745 538 756 554 767 c 1
 561 774 l 1
646 859 m 1
 807 1020 l 1
 805 1023 802 1025 800 1028 c 1
 639 867 l 1
 646 859 l 1
520 763 m 1
 513 761 505 758 498 756 c 1
 110 368 l 2
 110 369 110 369 110 370 c 1
 110 369 110 369 110 368 c 0
 110 363 110 358 110 353 c 1
 520 763 l 1
632 875 m 1
 793 1036 l 1
 791 1039 788 1041 786 1044 c 1
 624 882 l 1
 632 875 l 1
476 749 m 1
 468 746 460 743 452 740 c 1
 112 400 l 1
 111 395 110 388 110 383 c 1
 476 749 l 1
617 890 m 1
 779 1052 l 1
 777 1055 774 1057 772 1060 c 1
 610 898 l 1
 612 895 615 893 617 890 c 1
427 730 m 1
 418 726 409 722 400 718 c 1
 119 437 l 1
 117 431 115 423 114 417 c 1
 427 730 l 1
603 906 m 1
 766 1069 l 1
 764 1072 762 1075 760 1078 c 1
 595 913 l 1
 597 910 601 909 603 906 c 1
370 703 m 1
 359 697 348 691 337 685 c 1
 135 483 l 1
 131 475 128 466 125 458 c 1
 370 703 l 1
588 921 m 1
 754 1087 l 1
 752 1090 751 1094 749 1097 c 1
 581 929 l 1
 583 926 586 924 588 921 c 1
298 661 m 1
 274 645 252 628 232 610 c 1
 195 573 l 1
 179 555 164 535 152 515 c 1
 298 661 l 1
574 937 m 1
 744 1107 l 1
 742 1110 740 1113 739 1117 c 1
 567 945 l 1
 569 942 572 940 574 937 c 1
560 953 m 1
 735 1128 l 1
 734 1132 733 1136 732 1140 c 1
 554 962 l 1
 556 959 558 956 560 953 c 1
548 971 m 1
 729 1152 l 1
 728 1156 728 1161 727 1165 c 1
 542 980 l 1
 544 977 546 974 548 971 c 1
536 989 m 1
 726 1179 l 1
 726 1183 726 1186 726 1190 c 0
 726 1191 726 1193 726 1194 c 2
 531 999 l 1
 533 996 534 992 536 989 c 1
526 1009 m 1
 727 1210 l 1
 727 1216 728 1221 729 1227 c 1
 522 1020 l 1
 523 1016 524 1012 526 1009 c 1
518 1031 m 1
 733 1246 l 1
 735 1253 736 1260 739 1267 c 1
 515 1043 l 1
 516 1039 517 1035 518 1031 c 1
512 1055 m 1
 751 1294 l 1
 758 1308 767 1322 778 1336 c 1
 510 1068 l 1
 511 1064 511 1059 512 1055 c 1
817 1390 m 1
 812 1390 806 1389 801 1389 c 1
 506 1094 l 1
 506 1089 507 1085 508 1081 c 1
 817 1390 l 1
784 1387 m 1
 778 1386 773 1386 767 1385 c 1
 505 1123 l 1
 505 1118 505 1113 505 1108 c 1
 784 1387 l 1
749 1382 m 1
 742 1381 735 1379 729 1377 c 1
 507 1155 l 1
 506 1150 505 1144 505 1138 c 1
 749 1382 l 1
708 1371 m 1
 700 1369 693 1366 685 1363 c 1
 515 1193 l 1
 513 1186 511 1180 510 1173 c 1
 708 1371 l 1
658 1351 m 1
 646 1345 635 1339 624 1332 c 1
 539 1247 l 1
 533 1237 528 1227 523 1216 c 1
 658 1351 l 1
EndSplineSet
EndChar

